<svg width="104" height="61" viewBox="0 0 104 61" fill="none" xmlns="http://www.w3.org/2000/svg">
<rect y="39" width="104" height="22" rx="2" fill="url(#paint0_radial_759_7)"/>
<path d="M31.5814 26.2599C31.5814 27.4081 31.7063 28.3389 31.924 29.0215C32.2005 29.7894 32.5333 30.5361 32.9198 31.2553C33.0755 31.5034 33.1376 31.7516 33.1376 31.969C33.1376 32.279 32.9511 32.5894 32.5464 32.8998L30.5856 34.2028C30.3055 34.3891 30.0253 34.482 29.776 34.482C29.465 34.482 29.1536 34.3268 28.8422 34.0476C28.4225 33.5987 28.0473 33.1103 27.7219 32.5894C27.4106 32.0623 27.0992 31.4723 26.757 30.759C24.3289 33.6131 21.2785 35.0403 17.6059 35.0406C14.9915 35.0406 12.9059 34.2957 11.3806 32.8068C9.85569 31.3171 9.07762 29.3315 9.07762 26.8496C9.07762 24.2124 10.0114 22.0716 11.9101 20.4582C13.8085 18.8449 16.3299 18.0382 19.5359 18.0382C20.5941 18.0382 21.6835 18.1311 22.835 18.2863C23.9869 18.4415 25.1696 18.6897 26.4147 18.9689V16.7041C26.4147 14.3458 25.9165 12.7017 24.9515 11.7398C23.9557 10.7779 22.2747 10.3124 19.8781 10.3124C18.7886 10.3124 17.6683 10.4368 16.5165 10.7161C15.3646 10.9953 14.2443 11.3365 13.1549 11.7709C12.657 11.988 12.2835 12.1121 12.0654 12.1743C11.8473 12.2365 11.692 12.2672 11.5675 12.2672C11.1317 12.2672 10.9139 11.9569 10.9139 11.3054V9.78494C10.9139 9.28863 10.9763 8.91639 11.1317 8.69935C11.2874 8.48193 11.5675 8.26489 12.0034 8.04784C13.0927 7.48906 14.3999 7.02362 15.9249 6.6515C17.4506 6.24816 19.0692 6.06222 20.781 6.06222C24.4852 6.06222 27.1932 6.89966 28.9362 8.57527C30.6481 10.2505 31.5198 12.7947 31.5198 16.2077V26.2599H31.5814ZM18.9443 30.976C19.9717 30.976 21.0299 30.7901 22.1502 30.4175C23.2709 30.0452 24.2671 29.3626 25.1072 28.4318C25.6055 27.8426 25.9789 27.1911 26.1654 26.4462C26.3523 25.7018 26.4768 24.8017 26.4768 23.7469V22.4439C25.5328 22.215 24.5768 22.0389 23.6131 21.9164C22.6427 21.7937 21.6655 21.7315 20.6874 21.7301C18.6017 21.7301 17.0768 22.1335 16.0498 22.9713C15.0228 23.8091 14.5245 24.988 14.5245 26.5392C14.5245 27.9974 14.8979 29.0833 15.676 29.8282C16.4232 30.6038 17.5127 30.976 18.9443 30.976ZM43.9384 34.3268C43.3781 34.3268 43.0046 34.2339 42.7557 34.0165C42.5067 33.8305 42.2886 33.3961 42.1021 32.8068L34.7877 8.82342C34.6005 8.20267 34.5072 7.79932 34.5072 7.58227C34.5072 7.08596 34.7561 6.80633 35.2544 6.80633H38.3046C38.8958 6.80633 39.3008 6.89966 39.5186 7.11671C39.7675 7.30301 39.9544 7.73746 40.141 8.32675L45.3701 28.8663L50.2258 8.32675C50.3814 7.70635 50.5683 7.30301 50.8169 7.11671C51.0662 6.93077 51.5021 6.80669 52.0624 6.80669H54.5523C55.1435 6.80669 55.5485 6.89966 55.7971 7.11671C56.0464 7.30301 56.2642 7.73746 56.3886 8.32675L61.3067 29.1145L66.6912 8.32675C66.8777 7.70635 67.0958 7.30301 67.3136 7.11671C67.5625 6.93077 67.9672 6.80669 68.5275 6.80669H71.422C71.9203 6.80669 72.2005 7.05485 72.2005 7.58227C72.2005 7.73746 72.1692 7.89265 72.138 8.07859C72.1068 8.26452 72.0448 8.51305 71.9203 8.85454L64.4187 32.8375C64.2321 33.4583 64.0143 33.8616 63.7651 34.0476C63.5161 34.2339 63.1115 34.358 62.5827 34.358H59.9059C59.3144 34.358 58.9097 34.265 58.6604 34.0476C58.4115 33.8305 58.1937 33.4272 58.0693 32.8068L53.2444 12.7947L48.4511 32.7753C48.2958 33.3961 48.1089 33.7994 47.86 34.0165C47.611 34.2339 47.1752 34.3268 46.6152 34.3268H43.9384ZM83.935 35.1647C82.3165 35.1647 80.6979 34.9784 79.1418 34.6061C77.5853 34.2339 76.3717 33.8302 75.5624 33.3653C75.0642 33.0857 74.7216 32.7757 74.5975 32.4964C74.4764 32.2225 74.4128 31.9268 74.4106 31.6275V30.0452C74.4106 29.3937 74.6595 29.0833 75.1266 29.0833C75.3172 29.0841 75.5064 29.1156 75.6869 29.1767C75.8734 29.2389 76.1536 29.3626 76.465 29.4867C77.5642 29.969 78.7119 30.333 79.8886 30.5727C81.1079 30.8191 82.3487 30.9438 83.5928 30.9449C85.5536 30.9449 87.0789 30.6038 88.1371 29.9212C89.1954 29.2385 89.7557 28.2459 89.7557 26.9736C89.7557 26.1051 89.4755 25.3914 88.9152 24.8017C88.3549 24.2121 87.2966 23.685 85.7717 23.1883L81.2582 21.7924C78.9861 21.0786 77.3055 20.0238 76.2781 18.6275C75.2511 17.2622 74.7219 15.7422 74.7219 14.1288C74.7219 12.8258 75.0021 11.6777 75.5624 10.6846C76.1224 9.69197 76.8696 8.82342 77.8034 8.14081C78.7371 7.42708 79.7954 6.89966 81.0405 6.52742C82.2853 6.15519 83.5925 6 84.9621 6C85.6469 6 86.3629 6.03111 87.0477 6.12408C87.7637 6.21705 88.4173 6.34112 89.0709 6.4652C89.6933 6.62039 90.2848 6.77558 90.8451 6.96188C91.4052 7.14782 91.841 7.33387 92.1523 7.52005C92.5882 7.76858 92.8992 8.01673 93.0861 8.296C93.2729 8.54416 93.3662 8.8854 93.3662 9.31974V10.7779C93.3662 11.4294 93.1173 11.7709 92.6502 11.7709C92.4013 11.7709 91.9966 11.6465 91.4679 11.3983C89.6931 10.5916 87.701 10.1883 85.4915 10.1883C83.7173 10.1883 82.3165 10.4676 81.3515 11.0572C80.3869 11.6465 79.8886 12.5465 79.8886 13.8184C79.8886 14.6873 80.2 15.4318 80.8224 16.0214C81.4448 16.6111 82.5966 17.2004 84.2464 17.7278L88.6662 19.1241C90.9072 19.8379 92.5258 20.8305 93.4907 22.1024C94.4557 23.3743 94.9228 24.8328 94.9228 26.4462C94.9228 27.7803 94.6422 28.9904 94.1131 30.0452C93.5531 31.1001 92.8059 32.0308 91.841 32.7757C90.876 33.5513 89.7245 34.1098 88.3861 34.5132C86.9853 34.9476 85.5224 35.1647 83.935 35.1647Z" fill="#252F3E"/>
<path d="M89.8177 44.2744C79.5776 51.8139 64.6992 55.8163 51.9067 55.8163C33.9781 55.8163 17.824 49.2076 5.62274 38.2242C4.65778 37.3557 5.52911 36.1768 6.68061 36.859C19.8781 44.4918 36.157 49.1146 52.9962 49.1146C64.357 49.1146 76.8384 46.7567 88.324 41.9166C90.0358 41.1406 91.4987 43.0336 89.8177 44.2744ZM94.0822 39.4343C92.7751 37.759 85.4291 38.6276 82.0987 39.0309C81.1025 39.1554 80.9469 38.2865 81.8498 37.635C87.7013 33.5393 97.3194 34.7186 98.4397 36.0834C99.5603 37.4798 98.1283 47.0668 92.6502 51.6588C91.8101 52.3725 91.0008 52.0002 91.3742 51.0695C92.619 47.9975 95.3894 41.0788 94.0822 39.4343Z" fill="#FF9900"/>
<defs>
<radialGradient id="paint0_radial_759_7" cx="0" cy="0" r="1" gradientUnits="userSpaceOnUse" gradientTransform="translate(52 50) rotate(90) scale(11 52)">
<stop stop-color="#FFB800"/>
<stop offset="1" stop-color="#FFB800" stop-opacity="0"/>
</radialGradient>
</defs>
</svg>
