<svg width="88" height="61" viewBox="0 0 88 61" fill="none" xmlns="http://www.w3.org/2000/svg">
<rect y="38" width="88" height="23" rx="2" fill="url(#paint0_radial_614_4)"/>
<path d="M81.39 21.3693C79.6335 20.1568 75.6083 19.7021 72.4615 20.3084C72.0958 17.2771 70.4124 14.6251 67.485 12.2759L65.8019 11.0634L64.6307 12.8064C63.1673 15.0798 62.4354 18.2626 62.6548 21.2938C62.7279 22.3545 63.0938 24.249 64.1916 25.9162C63.1673 26.5224 61.0448 27.2802 58.2639 27.2802H5.35183L5.20558 27.8865C4.6931 30.9174 4.6931 40.3897 10.6942 47.6644C15.2316 53.1961 21.9646 56 30.8198 56C49.9938 56 64.1916 46.8305 70.8515 30.2354C73.4861 30.3112 79.1213 30.2354 81.9756 24.5518C82.0488 24.4003 82.195 24.0971 82.7072 22.9607L83 22.3545L81.39 21.3693ZM47.6519 0H39.6021V7.57779H47.6519V0ZM47.6519 9.09341H39.6021V16.6712H47.6519V9.09341ZM38.1381 9.09341H30.0882V16.6712H38.1381V9.09341ZM28.6242 9.09341H20.574V16.6712H28.6242V9.09341ZM19.1103 18.1868H11.0602V25.7646H19.11L19.1103 18.1868ZM28.6242 18.1868H20.574V25.7646H28.6242V18.1868ZM38.1381 18.1868H30.0882V25.7646H38.1381V18.1868ZM47.6523 18.1868H39.6018V25.7646H47.6523V18.1868ZM57.1661 18.1868H49.1157V25.7646H57.1661V18.1868Z" fill="#2396ED"/>
<defs>
<radialGradient id="paint0_radial_614_4" cx="0" cy="0" r="1" gradientUnits="userSpaceOnUse" gradientTransform="translate(44 49.5) rotate(90) scale(11.5 44)">
<stop stop-color="#4A7698"/>
<stop offset="1" stop-color="#4A7698" stop-opacity="0"/>
</radialGradient>
</defs>
</svg>
