<svg width="203" height="61" viewBox="0 0 203 61" fill="none" xmlns="http://www.w3.org/2000/svg">
<rect y="38" width="203" height="23" rx="2" fill="url(#paint0_radial_445_31)"/>
<path d="M6.25601 43.6674V22.1485H33.074V20.8898H6.25601V1.25833H34.7695V0H5V44.9258H35.0205V43.6674H6.25601ZM59.201 12.5841L48.0846 27.2449L37.2189 12.5845H35.586L47.3307 28.189L34.4551 44.9254H35.9626L48.0839 29.132L60.2681 44.9254H61.8381L48.9003 28.1883L60.7076 12.5837L59.201 12.5841ZM65.6069 56V35.8655H65.7324C66.4863 38.8018 67.9727 41.1613 70.1918 42.9442C72.4109 44.7267 75.2369 45.6184 78.6702 45.6184C80.8893 45.6184 82.8574 45.1675 84.5741 44.2656C86.2907 43.3638 87.7246 42.1368 88.8762 40.5847C90.0274 39.0325 90.9069 37.2288 91.5141 35.1733C92.121 33.1181 92.4249 30.9576 92.4249 28.6928C92.4249 26.2596 92.1105 24.0152 91.4825 21.96C90.8545 19.9045 89.9437 18.1216 88.7507 16.6117C87.5573 15.1015 86.1128 13.9266 84.4169 13.0883C82.7213 12.2491 80.8057 11.8295 78.6702 11.8295C77.0373 11.8295 75.5196 12.0709 74.117 12.5531C72.7143 13.0358 71.4689 13.717 70.3803 14.5981C69.2852 15.4859 68.3321 16.5362 67.5539 17.7126C66.7585 18.9082 66.1512 20.2191 65.7324 21.6455H65.6069V12.5841H64.3509V56H65.6069ZM78.6702 44.4223C74.7348 44.4223 71.5733 43.0696 69.1868 40.3641C66.8003 37.6586 65.6069 33.7677 65.6069 28.692C65.6069 26.5946 65.9002 24.6021 66.4863 22.7146C67.0725 20.8271 67.9203 19.1699 69.0296 17.7439C70.1394 16.3176 71.5107 15.185 73.1433 14.3462C74.7763 13.5071 76.6188 13.0875 78.6702 13.0875C80.7638 13.0875 82.5958 13.5071 84.1658 14.3462C85.7358 15.185 87.034 16.3281 88.0597 17.7753C89.0854 19.2224 89.8601 20.8796 90.3837 22.7459C90.9069 24.6127 91.1685 26.5946 91.1685 28.692C91.1685 30.5799 90.928 32.4572 90.4462 34.3236C89.9649 36.1903 89.2215 37.8682 88.2165 39.3577C87.212 40.8464 85.9247 42.0628 84.3543 43.0069C82.7839 43.9507 80.8893 44.4223 78.6702 44.4223ZM99.3333 44.9258V26.6157C99.3333 24.854 99.5843 23.1338 100.087 21.4562C100.589 19.7783 101.364 18.2995 102.411 17.0204C103.458 15.7409 104.787 14.7341 106.399 13.9999C108.011 13.2658 109.926 12.9617 112.146 13.0875V11.8292C110.219 11.7876 108.534 11.9968 107.09 12.4583C105.645 12.9198 104.4 13.549 103.353 14.3462C102.306 15.1431 101.469 16.0762 100.841 17.1461C100.213 18.2143 99.7475 19.3699 99.4588 20.5752H99.3333V12.5841H98.0773V44.9261L99.3333 44.9258ZM113.716 29.0066H140.722C140.806 26.7834 140.586 24.6444 140.062 22.5888C139.539 20.5333 138.701 18.7085 137.55 17.1148C136.399 15.5207 134.912 14.2412 133.091 13.2763C131.269 12.3114 129.103 11.8292 126.591 11.8292C124.79 11.8292 123.032 12.2068 121.315 12.9621C119.598 13.717 118.091 14.8179 116.793 16.2651C115.495 17.7122 114.448 19.4845 113.653 21.5824C112.858 23.6795 112.46 26.0704 112.46 28.7551C112.46 31.146 112.732 33.3798 113.276 35.4562C113.82 37.5325 114.658 39.3365 115.788 40.8675C116.919 42.3985 118.374 43.5836 120.153 44.4223C121.932 45.2615 124.078 45.6599 126.591 45.618C130.275 45.618 133.374 44.5794 135.886 42.5035C138.398 40.4268 139.884 37.5011 140.345 33.7258H139.089C138.545 37.2915 137.152 39.9657 134.912 41.7482C132.672 43.5311 129.857 44.4223 126.465 44.4223C124.162 44.4223 122.215 44.0239 120.624 43.2271C119.033 42.4302 117.735 41.3392 116.73 39.9551C115.725 38.5706 114.982 36.9452 114.501 35.0785C114.019 33.2122 113.757 31.1879 113.716 29.0066ZM139.466 27.7483H113.716C113.841 25.4831 114.26 23.4487 114.972 21.6451C115.684 19.841 116.615 18.2995 117.767 17.0204C118.918 15.7409 120.258 14.7658 121.786 14.0943C123.314 13.4232 124.958 13.0875 126.716 13.0875C128.81 13.0875 130.652 13.4757 132.243 14.2518C133.834 15.0279 135.163 16.0872 136.231 17.4294C137.299 18.7715 138.105 20.3342 138.649 22.1168C139.193 23.8997 139.466 25.777 139.466 27.7483ZM166.786 22.1485H168.042C168.042 18.5408 166.995 15.9191 164.902 14.2831C162.808 12.6472 159.961 11.8292 156.36 11.8292C154.35 11.8292 152.655 12.0811 151.273 12.5845C149.891 13.0875 148.761 13.7378 147.881 14.5347C147.002 15.3315 146.374 16.2126 145.997 17.1775C145.62 18.1424 145.432 19.0653 145.432 19.946C145.432 21.7078 145.746 23.113 146.374 24.1617C147.002 25.2105 147.986 26.0285 149.326 26.6157C150.247 27.0349 151.294 27.4126 152.466 27.7487C153.639 28.084 154.999 28.4405 156.549 28.8178C157.93 29.1539 159.291 29.4893 160.631 29.8246C161.971 30.1604 163.154 30.6113 164.179 31.1774C165.205 31.7438 166.043 32.4674 166.692 33.3485C167.341 34.2292 167.665 35.3829 167.665 36.8089C167.665 38.1934 167.341 39.3679 166.692 40.3324C166.048 41.2923 165.201 42.098 164.211 42.6923C163.206 43.3003 162.086 43.7407 160.851 44.0133C159.616 44.286 158.412 44.4223 157.24 44.4223C153.429 44.4223 150.509 43.573 148.478 41.8743C146.448 40.1753 145.432 37.5011 145.432 33.8515H144.176C144.176 37.9207 145.275 40.8989 147.473 42.7867C149.672 44.6742 152.927 45.618 157.24 45.618C158.621 45.618 160.013 45.4605 161.416 45.1459C162.819 44.8313 164.075 44.3177 165.184 43.6044C166.284 42.9011 167.208 41.954 167.885 40.8362C168.576 39.7032 168.921 38.3191 168.921 36.6831C168.921 35.131 168.618 33.8727 168.011 32.9078C167.403 31.9432 166.608 31.146 165.624 30.5169C164.64 29.8877 163.531 29.3949 162.295 29.0383C161.053 28.6797 159.807 28.3335 158.558 27.9998C157.021 27.5957 155.482 27.1973 153.942 26.8045C152.623 26.4688 151.399 26.0704 150.268 25.6089C149.18 25.1474 148.311 24.4869 147.662 23.627C147.013 22.7671 146.688 21.5401 146.688 19.946C146.688 19.6526 146.772 19.128 146.939 18.3731C147.107 17.6178 147.505 16.8523 148.133 16.0762C148.761 15.3005 149.724 14.6083 151.022 13.9999C152.32 13.3919 154.099 13.0875 156.36 13.0875C157.91 13.0875 159.322 13.2556 160.599 13.5909C161.877 13.9266 162.976 14.4614 163.897 15.1955C164.818 15.9297 165.53 16.8629 166.032 17.9955C166.535 19.1284 166.786 20.5125 166.786 22.1485ZM195.865 22.1485H197.121C197.121 18.5408 196.074 15.9191 193.981 14.2831C191.887 12.6472 189.04 11.8292 185.439 11.8292C183.429 11.8292 181.733 12.0811 180.352 12.5845C178.97 13.0875 177.839 13.7378 176.96 14.5347C176.081 15.3315 175.453 16.2126 175.076 17.1775C174.699 18.1424 174.511 19.0653 174.511 19.946C174.511 21.7078 174.825 23.113 175.453 24.1617C176.081 25.2105 177.065 26.0285 178.404 26.6157C179.326 27.0349 180.373 27.4126 181.545 27.7487C182.718 28.084 184.078 28.4405 185.628 28.8178C187.009 29.1539 188.37 29.4893 189.71 29.8246C191.05 30.1604 192.232 30.6113 193.258 31.1774C194.284 31.7438 195.122 32.4674 195.77 33.3485C196.419 34.2292 196.744 35.3829 196.744 36.8089C196.744 38.1934 196.419 39.3679 195.77 40.3324C195.127 41.2922 194.28 42.098 193.29 42.6923C192.285 43.3003 191.165 43.7407 189.929 44.0133C188.695 44.286 187.491 44.4223 186.318 44.4223C182.508 44.4223 179.588 43.573 177.557 41.8743C175.526 40.1753 174.511 37.5011 174.511 33.8515H173.255C173.255 37.9207 174.354 40.8989 176.552 42.7867C178.75 44.6742 182.006 45.618 186.318 45.618C187.7 45.618 189.092 45.4605 190.495 45.1459C191.897 44.8313 193.154 44.3177 194.263 43.6044C195.363 42.9011 196.287 41.954 196.964 40.8362C197.655 39.7032 198 38.3191 198 36.6831C198 35.131 197.697 33.8727 197.089 32.9078C196.482 31.9432 195.687 31.146 194.703 30.5169C193.719 29.8877 192.609 29.3949 191.374 29.0383C190.132 28.6797 188.886 28.3335 187.637 27.9998C186.1 27.5957 184.561 27.1973 183.021 26.8045C181.702 26.4688 180.477 26.0704 179.347 25.6089C178.258 25.1474 177.389 24.4869 176.741 23.627C176.091 22.7671 175.767 21.5401 175.767 19.946C175.767 19.6526 175.851 19.128 176.018 18.3731C176.186 17.6178 176.584 16.8523 177.211 16.0762C177.839 15.3005 178.803 14.6083 180.1 13.9999C181.399 13.3919 183.178 13.0875 185.439 13.0875C186.988 13.0875 188.401 13.2556 189.678 13.5909C190.956 13.9266 192.054 14.4614 192.976 15.1955C193.897 15.9297 194.609 16.8629 195.111 17.9955C195.614 19.1284 195.865 20.5125 195.865 22.1485H195.865Z" fill="#666666"/>
<defs>
<radialGradient id="paint0_radial_445_31" cx="0" cy="0" r="1" gradientUnits="userSpaceOnUse" gradientTransform="translate(101.5 49.5) rotate(90) scale(11.5 101.5)">
<stop stop-color="#212121"/>
<stop offset="1" stop-color="#212121" stop-opacity="0"/>
</radialGradient>
</defs>
</svg>
