<svg width="47" height="61" viewBox="0 0 47 61" fill="none" xmlns="http://www.w3.org/2000/svg">
<rect y="38" width="47" height="23" rx="2" fill="url(#paint0_radial_447_91)"/>
<path d="M14.25 56C19.356 56 23.5 51.8187 23.5 46.6667V37.3334H14.25C9.144 37.3334 5 41.5147 5 46.6667C5 51.8187 9.144 56 14.25 56Z" fill="#0ACF83"/>
<path d="M5 28C5 22.848 9.144 18.6666 14.25 18.6666H23.5V37.3333H14.25C9.144 37.3333 5 33.152 5 28Z" fill="#A259FF"/>
<path d="M5 9.33333C5 4.18133 9.144 0 14.25 0H23.5V18.6667H14.25C9.144 18.6667 5 14.4853 5 9.33333Z" fill="#F24E1E"/>
<path d="M23.5 0H32.75C37.856 0 42 4.18133 42 9.33333C42 14.4853 37.856 18.6667 32.75 18.6667H23.5V0Z" fill="#FF7262"/>
<path d="M42 28C42 33.152 37.856 37.3333 32.75 37.3333C27.644 37.3333 23.5 33.152 23.5 28C23.5 22.848 27.644 18.6666 32.75 18.6666C37.856 18.6666 42 22.848 42 28Z" fill="#1ABCFE"/>
<defs>
<radialGradient id="paint0_radial_447_91" cx="0" cy="0" r="1" gradientUnits="userSpaceOnUse" gradientTransform="translate(23.5 49.5) rotate(90) scale(11.5 23.5)">
<stop stop-color="#232323"/>
<stop offset="1" stop-color="#232323" stop-opacity="0"/>
</radialGradient>
</defs>
</svg>
