<svg width="66" height="61" viewBox="0 0 66 61" fill="none" xmlns="http://www.w3.org/2000/svg">
<path d="M59.945 25.5054L35.494 1.05609C34.087 -0.35203 31.803 -0.35203 30.394 1.05609L25.3167 6.13337L31.7575 12.5741C33.2544 12.0684 34.9706 12.4077 36.1639 13.6008C37.3626 14.8015 37.6995 16.5325 37.1813 18.034L43.3884 24.2414C44.8902 23.724 46.6229 24.0587 47.8226 25.2601C49.4987 26.9358 49.4987 29.6516 47.8226 31.3284C46.1456 33.0053 43.4298 33.0053 41.7522 31.3284C40.4915 30.0662 40.18 28.2144 40.8181 26.661L35.0296 20.8724L35.029 36.1057C35.4486 36.3132 35.8319 36.5873 36.1639 36.9173C37.84 38.593 37.84 41.309 36.1639 42.9871C34.4869 44.6632 31.7697 44.6632 30.0956 42.9871C28.4191 41.309 28.4191 38.5932 30.0956 36.9175C30.4973 36.5156 30.9746 36.1973 31.5 35.981V20.6057C30.9738 20.3908 30.4962 20.0724 30.0956 19.6692C28.8253 18.4009 28.5199 16.5373 29.1707 14.9778L22.8221 8.62804L6.05675 25.3923C4.64775 26.8017 4.64775 29.0857 6.05675 30.494L30.5075 54.9437C31.9152 56.3521 34.1986 56.3521 35.6082 54.9437L59.9446 30.6076C61.3529 29.1988 61.3529 26.9135 59.9446 25.5054" fill="#DE4C36"/>
<rect y="38" width="66" height="23" rx="2" fill="url(#paint0_radial_447_39)"/>
<defs>
<radialGradient id="paint0_radial_447_39" cx="0" cy="0" r="1" gradientUnits="userSpaceOnUse" gradientTransform="translate(33 49.5) rotate(90) scale(11.5 33)">
<stop stop-color="#DE6935"/>
<stop offset="1" stop-color="#DE6935" stop-opacity="0"/>
</radialGradient>
</defs>
</svg>
