<svg width="67" height="61" viewBox="0 0 67 61" fill="none" xmlns="http://www.w3.org/2000/svg">
    <rect y="38" width="67" height="23" rx="2" fill="url(#paint0_radial_450_46)"/>
    <path d="M33.5002 0C17.762 0 5 12.8532 5 28.7089C5 41.3933 13.1661 52.1548 24.4902 55.9508C25.9145 56.2166 26.4376 55.328 26.4376 54.5697C26.4376 53.8851 26.4108 51.6236 26.3988 49.2249C18.47 50.9613 16.797 45.8375 16.797 45.8375C15.5005 42.5192 13.6324 41.6366 13.6324 41.6366C11.0467 39.8549 13.8274 39.8917 13.8274 39.8917C16.6892 40.094 18.1962 42.85 18.1962 42.85C20.7382 47.2388 24.8636 45.97 26.4899 45.2364C26.7457 43.3811 27.4843 42.1143 28.2994 41.3975C21.9691 40.6717 15.3146 38.21 15.3146 27.2096C15.3146 24.0752 16.4278 21.514 18.2509 19.5035C17.955 18.7804 16.9796 15.8607 18.527 11.906C18.527 11.906 20.9204 11.1345 26.3668 14.8489C28.6401 14.2128 31.0782 13.8939 33.5002 13.8829C35.9223 13.8939 38.3624 14.2126 40.6399 14.8489C46.0796 11.1347 48.4696 11.9063 48.4696 11.9063C50.0209 15.8604 49.045 18.7807 48.7491 19.5035C50.5764 21.514 51.6821 24.0752 51.6821 27.2096C51.6821 38.2362 45.0149 40.6641 38.6685 41.3749C39.6907 42.2657 40.6016 44.0129 40.6016 46.6914C40.6016 50.5325 40.5687 53.6241 40.5687 54.5697C40.5687 55.3338 41.0817 56.2289 42.5263 55.9468C53.8441 52.1467 62 41.3892 62 28.7092C62 12.8532 49.2398 0 33.5002 0ZM15.6744 40.8965C15.6116 41.0391 15.3887 41.0819 15.1859 40.9839C14.979 40.8904 14.863 40.6959 14.9298 40.5528C14.9913 40.4059 15.2146 40.3649 15.4208 40.4634C15.6278 40.5571 15.7458 40.7534 15.6744 40.8965ZM17.0762 42.1565C16.9404 42.2834 16.6745 42.2245 16.4942 42.0239C16.3078 41.8239 16.2729 41.5561 16.4107 41.4273C16.551 41.3004 16.8086 41.3598 16.9954 41.5599C17.182 41.7624 17.218 42.0282 17.0762 42.1565ZM18.0381 43.7687C17.8633 43.8909 17.5779 43.7763 17.4013 43.5211C17.2267 43.2658 17.2267 42.9597 17.4051 42.837C17.5821 42.7143 17.8633 42.8247 18.0421 43.0781C18.2162 43.3376 18.2162 43.6437 18.0379 43.7689L18.0381 43.7687ZM19.6644 45.6359C19.5083 45.8095 19.1754 45.7628 18.9318 45.526C18.6829 45.2945 18.6134 44.9661 18.7702 44.7925C18.9283 44.6185 19.2629 44.6674 19.5083 44.9024C19.7554 45.1335 19.8311 45.4643 19.6644 45.6359ZM21.7667 46.2661C21.6977 46.4911 21.377 46.5933 21.0544 46.4978C20.732 46.3993 20.5211 46.136 20.5862 45.9088C20.6532 45.6823 20.9751 45.576 21.3002 45.6783C21.6222 45.776 21.8337 46.0373 21.7667 46.2661ZM24.1589 46.5337C24.1669 46.7703 23.8933 46.9666 23.5544 46.971C23.2137 46.9787 22.9379 46.7871 22.9341 46.5539C22.9341 46.315 23.2017 46.1205 23.5426 46.1147C23.8815 46.108 24.1589 46.2982 24.1589 46.5337ZM26.509 46.4428C26.5496 46.6739 26.3142 46.9112 25.9776 46.9744C25.6469 47.0352 25.3405 46.8925 25.2985 46.6635C25.2575 46.4267 25.4973 46.1894 25.8275 46.1282C26.1646 46.0692 26.4661 46.208 26.509 46.4428Z" fill="#F2F2F2"/>
    <defs>
        <radialGradient id="paint0_radial_450_46" cx="0" cy="0" r="1" gradientUnits="userSpaceOnUse" gradientTransform="translate(33.5 49.5) rotate(90) scale(11.5 33.5)">
        <stop stop-color="#F2F2F2"/>
        <stop offset="1" stop-color="#F2F2F2" stop-opacity="0"/>
        </radialGradient>
    </defs>
</svg>
