<svg width="50" height="61" viewBox="0 0 50 61" fill="none" xmlns="http://www.w3.org/2000/svg">
<rect y="38" width="50" height="23" rx="2" fill="url(#paint0_radial_432_13)"/>
<mask id="mask0_432_13" style="mask-type:luminance" maskUnits="userSpaceOnUse" x="5" y="0" width="40" height="56">
<path d="M45 0H5V56H45V0Z" fill="white"/>
</mask>
<g mask="url(#mask0_432_13)">
<path d="M44.9288 10.9775L41.2977 51.3658L24.9757 55.8586L8.69858 51.372L5.07123 10.9775H44.9288Z" fill="#E44D26"/>
<path d="M25 52.4244L38.1891 48.7942L41.292 14.2804H25V52.4244Z" fill="#F16529"/>
<path d="M17.9413 24.189H25.0001V19.2347H12.4882L12.6075 20.5639L13.834 34.2163H25.0001V29.2621H18.3974L17.9413 24.189ZM19.0659 36.6935H14.0569L14.7559 44.4723L24.9771 47.2895L25.0001 47.2832V42.1288L24.9782 42.1346L19.4212 40.6447L19.0659 36.6935Z" fill="#EBEBEB"/>
<path d="M8.77954 0H11.3153V2.48742H13.6349V0H16.1708V7.53254H13.6351V5.01022H11.3154V7.53254H8.7797L8.77954 0ZM19.5052 2.49797H17.2732V0H24.2747V2.49797H22.0414V7.53254H19.5057L19.5052 2.49797ZM25.386 0H28.03L29.6564 2.64674L31.2813 0H33.9263V7.53254H31.401V3.79901L29.6564 6.47723H29.6126L27.867 3.79901V7.53254H25.386V0ZM35.1883 0H37.7247V5.0428H41.2908V7.53254H35.1881L35.1883 0Z" fill="white"/>
<path d="M24.9828 34.2163H31.1272L30.5479 40.6416L24.9827 42.133V47.2872L35.212 44.4723L35.2871 43.6354L36.4597 30.5925L36.5814 29.2621H24.9828V34.2163ZM24.9828 24.1768V24.189H37.0355L37.1354 23.0754L37.363 20.5639L37.4822 19.2347H24.9828V24.1768Z" fill="white"/>
</g>
<defs>
<radialGradient id="paint0_radial_432_13" cx="0" cy="0" r="1" gradientUnits="userSpaceOnUse" gradientTransform="translate(25 49.5) rotate(90) scale(11.5 25)">
<stop stop-color="#E36D27"/>
<stop offset="1" stop-color="#E36D27" stop-opacity="0"/>
</radialGradient>
</defs>
</svg>
