<svg width="66" height="61" viewBox="0 0 66 61" fill="none" xmlns="http://www.w3.org/2000/svg">
<rect y="38" width="66" height="23" rx="2" fill="url(#paint0_radial_440_324)"/>
<mask id="mask0_440_324" style="mask-type:luminance" maskUnits="userSpaceOnUse" x="5" y="0" width="56" height="56">
<path d="M61 0H5V56H61V0Z" fill="white"/>
</mask>
<g mask="url(#mask0_440_324)">
<path d="M5 0H61V56H5V0Z" fill="#F7DF1E"/>
<path d="M19.7245 46.7976L24.0097 44.2041C24.8366 45.6699 25.5888 46.9102 27.3928 46.9102C29.1219 46.9102 30.2125 46.2339 30.2125 43.6027V25.7094H35.4749V43.6771C35.4749 49.1276 32.2798 51.6088 27.6182 51.6088C23.4085 51.6088 20.965 49.4289 19.7245 46.7976ZM38.3333 46.2337L42.6182 43.7528C43.7462 45.5949 45.2123 46.9481 47.8059 46.9481C49.9865 46.9481 51.3769 45.8579 51.3769 44.3542C51.3769 42.5499 49.9484 41.9107 47.5427 40.8585L46.2273 40.2942C42.4305 38.6782 39.912 36.6483 39.912 32.363C39.912 28.4158 42.9192 25.4084 47.6182 25.4084C50.9637 25.4084 53.3696 26.5739 55.0985 29.6187L51.0009 32.2502C50.0985 30.6339 49.1216 29.995 47.6179 29.995C46.0766 29.995 45.0992 30.9723 45.0992 32.2502C45.0992 33.8289 46.0766 34.4684 48.332 35.4457L49.6475 36.0096C54.1209 37.9268 56.6393 39.8814 56.6393 44.2792C56.6393 49.016 52.918 51.6094 47.9185 51.6094C43.0318 51.6094 39.8744 49.2787 38.3333 46.2337Z" fill="white"/>
</g>
<defs>
<radialGradient id="paint0_radial_440_324" cx="0" cy="0" r="1" gradientUnits="userSpaceOnUse" gradientTransform="translate(33 49) rotate(90) scale(13.5 45.4708)">
<stop stop-color="#F4F71E"/>
<stop offset="1" stop-color="#F4F71E" stop-opacity="0"/>
</radialGradient>
</defs>
</svg>
