<svg width="51" height="61" viewBox="0 0 51 61" fill="none" xmlns="http://www.w3.org/2000/svg">
<rect y="38" width="51" height="23" rx="2" fill="url(#paint0_radial_445_30)"/>
<path d="M18.2045 43.3079C18.2045 43.3079 16.0801 44.5523 19.7163 44.9736C24.1216 45.4798 26.3731 45.4071 31.2276 44.4816C31.2276 44.4816 32.504 45.2878 34.2864 45.986C23.4037 50.6845 9.65662 45.7139 18.2045 43.3079ZM16.8746 37.1769C16.8746 37.1769 14.492 38.9535 18.1309 39.3327C22.8367 39.8217 26.553 39.8618 32.9835 38.6144C32.9835 38.6144 33.8729 39.5227 35.2715 40.0194C22.1136 43.8952 7.45825 40.325 16.8746 37.1769Z" fill="#5382A1"/>
<path d="M28.0854 26.7764C30.767 29.8863 27.3809 32.6848 27.3809 32.6848C27.3809 32.6848 34.1896 29.1441 31.0626 24.7104C28.1422 20.5757 25.9025 18.5212 38.027 11.4377C38.027 11.4377 18.9956 16.2258 28.0854 26.7764Z" fill="#E76F00"/>
<path d="M42.4786 47.8428C42.4786 47.8428 44.0506 49.1477 40.7471 50.1572C34.4656 52.074 14.6024 52.6528 9.08444 50.2334C7.10095 49.3643 10.8207 48.158 11.9907 47.9049C13.2111 47.6383 13.9083 47.6879 13.9083 47.6879C11.7024 46.1226 -0.349636 50.7616 7.78647 52.0902C29.975 55.715 48.2339 50.4579 42.4786 47.8428ZM19.2261 30.8242C19.2261 30.8242 9.12242 33.2417 15.648 34.1195C18.4036 34.4912 23.8963 34.407 29.0125 33.9752C33.1939 33.62 37.3924 32.8646 37.3924 32.8646C37.3924 32.8646 35.9181 33.5005 34.8514 34.2342C24.5913 36.9524 4.7706 35.6879 10.4767 32.9075C15.3024 30.5576 19.2261 30.8242 19.2261 30.8242ZM37.3509 41.0296C47.7807 35.5702 42.9584 30.3235 39.5924 31.0304C38.7674 31.2034 38.3996 31.3532 38.3996 31.3532C38.3996 31.3532 38.7059 30.8701 39.2908 30.6609C45.9496 28.3026 51.0708 37.6161 37.1412 41.3049C37.1412 41.3049 37.3026 41.1595 37.3509 41.0296Z" fill="#5382A1"/>
<path d="M31.0626 0C31.0626 0 36.8389 5.82068 25.5841 14.771C16.559 21.9509 23.5261 26.0446 25.5804 30.7219C20.3123 25.9339 16.446 21.7189 19.0399 17.7961C22.8469 12.0376 33.393 9.24574 31.0626 0Z" fill="#E76F00"/>
<path d="M20.2509 55.824C30.2625 56.4695 45.6359 55.4656 46 50.6938C46 50.6938 45.3002 52.5029 37.7261 53.9396C29.1814 55.5594 18.6423 55.3703 12.3915 54.332C12.3917 54.332 13.6709 55.3988 20.2509 55.824Z" fill="#5382A1"/>
<defs>
<radialGradient id="paint0_radial_445_30" cx="0" cy="0" r="1" gradientUnits="userSpaceOnUse" gradientTransform="translate(25.5 49.5) rotate(90) scale(11.5 25.5)">
<stop stop-color="#5469A1"/>
<stop offset="1" stop-color="#5469A1" stop-opacity="0"/>
</radialGradient>
</defs>
</svg>
