<svg width="66" height="61" viewBox="0 0 66 61" fill="none" xmlns="http://www.w3.org/2000/svg">
<rect y="38" width="66" height="23" rx="2" fill="url(#paint0_radial_665_2)"/>
<path d="M37.2407 15.064L37.1845 0H28.7593L28.8155 15.064L33.028 20.8321L37.2407 15.064ZM28.8155 40.88V56H37.2407V40.88L33.028 35.112L28.8155 40.88Z" fill="white"/>
<path d="M37.2407 40.88L46.1154 53.088L52.9117 48.16L44.037 35.9522L37.2407 33.7679V40.88ZM28.8155 15.064L19.8846 2.85596L13.0883 7.78401L21.963 19.992L28.8155 22.176V15.064Z" fill="#00F2E6"/>
<path d="M21.963 19.992L7.58366 15.344L5 23.2959L19.3791 28L26.1754 25.7599L21.963 19.992ZM39.8246 30.184L44.037 35.9521L58.4163 40.5999L61 32.648L46.6209 28L39.8246 30.184Z" fill="#00B9F1"/>
<path d="M46.6209 28L61 23.2959L58.4163 15.344L44.037 19.992L39.8246 25.7599L46.6209 28ZM19.3791 28L5 32.648L7.58366 40.5999L21.963 35.9521L26.1754 30.184L19.3791 28Z" fill="#D63AFF"/>
<path d="M21.963 35.9522L13.0883 48.16L19.8846 53.088L28.8155 40.88V33.7679L21.963 35.9522ZM44.037 19.992L52.9117 7.78401L46.1154 2.85596L37.2407 15.064V22.176L44.037 19.992Z" fill="#FB015B"/>
<defs>
<radialGradient id="paint0_radial_665_2" cx="0" cy="0" r="1" gradientUnits="userSpaceOnUse" gradientTransform="translate(33 49.5) rotate(90) scale(11.5 33)">
<stop/>
<stop offset="1" stop-opacity="0"/>
</radialGradient>
</defs>
</svg>
