<svg width="36" height="61" viewBox="0 0 36 61" fill="none" xmlns="http://www.w3.org/2000/svg">
<rect y="41" width="36" height="20" rx="2" fill="url(#paint0_radial_764_6)"/>
<path d="M22.8366 6.24157C20.4997 3.45303 18.4872 0.620788 18.0761 0.0326645C18.0663 0.0223429 18.0546 0.0141253 18.0415 0.00851033C18.0285 0.00289533 18.0145 0 18.0003 0C17.9861 0 17.9721 0.00289533 17.9591 0.00851033C17.9461 0.0141253 17.9343 0.0223429 17.9245 0.0326645C17.5134 0.62089 15.501 3.45303 13.1639 6.24157C-6.89539 31.9703 16.3233 49.3335 16.3233 49.3335L16.518 49.4643C16.6911 52.1438 17.1239 56 17.1239 56H18.8551C18.8551 56 19.2877 52.1657 19.4609 49.4644L19.6557 49.3118C19.6773 49.3336 42.896 31.9704 22.8366 6.24157ZM17.9894 48.9413C17.9894 48.9413 16.9508 48.0482 16.6694 47.5908V47.5471L17.9245 19.5308C17.9245 19.4437 18.0544 19.4437 18.0544 19.5308L19.3095 47.5471V47.5908C19.0281 48.0482 17.9894 48.9414 17.9894 48.9414" fill="#01EC64"/>
<defs>
<radialGradient id="paint0_radial_764_6" cx="0" cy="0" r="1" gradientUnits="userSpaceOnUse" gradientTransform="translate(18 51) rotate(90) scale(10 18)">
<stop stop-color="#4DED00"/>
<stop offset="1" stop-color="#4DED00" stop-opacity="0"/>
</radialGradient>
</defs>
</svg>
