<svg width="66" height="61" viewBox="0 0 66 61" fill="none" xmlns="http://www.w3.org/2000/svg">
<rect y="38" width="66" height="23" rx="2" fill="url(#paint0_radial_728_10)"/>
<path d="M33 56C48.464 56 61 43.464 61 28C61 12.536 48.464 0 33 0C17.536 0 5 12.536 5 28C5 43.464 17.536 56 33 56Z" fill="black"/>
<path d="M51.5137 49.0062L26.5105 16.8H21.8V39.1909H25.5686V21.5859L48.5549 51.2851C49.5908 50.5922 50.5792 49.8308 51.5137 49.0062Z" fill="url(#paint1_linear_728_10)"/>
<path d="M40.7779 16.8H44.511V39.2H40.7779V16.8Z" fill="url(#paint2_linear_728_10)"/>
<defs>
<radialGradient id="paint0_radial_728_10" cx="0" cy="0" r="1" gradientUnits="userSpaceOnUse" gradientTransform="translate(33 49) rotate(90) scale(13.5 45.4708)">
<stop stop-color="#606060"/>
<stop offset="1" stop-color="#606060" stop-opacity="0"/>
</radialGradient>
<linearGradient id="paint1_linear_728_10" x1="38.911" y1="36.2444" x2="49.9555" y2="49.9333" gradientUnits="userSpaceOnUse">
<stop stop-color="white"/>
<stop offset="1" stop-color="white" stop-opacity="0"/>
</linearGradient>
<linearGradient id="paint2_linear_728_10" x1="42.6444" y1="16.8" x2="42.5818" y2="33.25" gradientUnits="userSpaceOnUse">
<stop stop-color="white"/>
<stop offset="1" stop-color="white" stop-opacity="0"/>
</linearGradient>
</defs>
</svg>
