<svg width="60" height="61" viewBox="0 0 60 61" fill="none" xmlns="http://www.w3.org/2000/svg">
<rect y="38" width="60" height="23" rx="2" fill="url(#paint0_radial_445_29)"/>
<path d="M30 55.9998C29.2236 55.9998 28.499 55.794 27.8262 55.4339L20.942 51.3696C19.9068 50.8037 20.4244 50.5979 20.735 50.495C22.1324 50.032 22.3912 49.9291 23.8404 49.1058C23.9959 49.0029 24.2029 49.0544 24.358 49.1573L29.6377 52.2956C29.8447 52.3985 30.1035 52.3985 30.2588 52.2956L50.9111 40.4114C51.1182 40.3086 51.2217 40.1028 51.2217 39.8456V16.1283C51.2217 15.8711 51.1182 15.6653 50.9111 15.5624L30.2588 3.72955C30.0518 3.62666 29.793 3.62666 29.6377 3.72955L8.98535 15.5626C8.77832 15.6655 8.6748 15.9227 8.6748 16.1285V39.8456C8.6748 40.0513 8.77832 40.3086 8.98535 40.4114L14.6273 43.6525C17.6812 45.1958 19.5961 43.3952 19.5961 41.5947V18.1861C19.5961 17.8775 19.8551 17.5688 20.2174 17.5688H22.8572C23.1678 17.5688 23.4783 17.826 23.4783 18.1861V41.5945C23.4783 45.6588 21.2525 48.0253 17.3705 48.0253C16.1801 48.0253 15.2484 48.0253 12.6088 46.7392L7.17383 43.6525C5.82813 42.8806 5 41.4401 5 39.8968V16.18C5 14.6366 5.82813 13.1962 7.17383 12.4243L27.8262 0.54017C29.1201 -0.180057 30.8799 -0.180057 32.1738 0.54017L52.8262 12.4243C54.1719 13.196 55 14.6364 55 16.18V39.897C55 41.4403 54.1719 42.8808 52.8262 43.6525L32.1738 55.537C31.501 55.8457 30.7246 56 30 56V55.9998ZM36.3664 39.691C27.3084 39.691 25.4451 35.5754 25.4451 32.077C25.4451 31.7683 25.7039 31.4597 26.0662 31.4597H28.7576C29.0682 31.4597 29.3271 31.6654 29.3271 31.9741C29.7412 34.7007 30.9316 36.0384 36.4182 36.0384C40.766 36.0384 42.6295 35.061 42.6295 32.746C42.6295 31.4082 42.1119 30.4308 35.3313 29.7618C29.6895 29.1959 26.1697 27.9612 26.1697 23.4855C26.1697 19.3181 29.6893 16.8488 35.59 16.8488C42.2152 16.8488 45.4762 19.1123 45.8902 24.0512C45.8902 24.2056 45.8385 24.3599 45.735 24.5142C45.6314 24.6171 45.4762 24.72 45.3209 24.72H42.6295C42.3705 24.72 42.1119 24.5142 42.06 24.257C41.4389 21.4275 39.8344 20.5015 35.59 20.5015C30.8283 20.5015 30.2588 22.1478 30.2588 23.3824C30.2588 24.8745 30.9316 25.3373 37.3498 26.1605C43.7164 26.9836 46.7184 28.167 46.7184 32.5914C46.6666 37.1188 42.94 39.691 36.3664 39.691Z" fill="#539E43"/>
<defs>
<radialGradient id="paint0_radial_445_29" cx="0" cy="0" r="1" gradientUnits="userSpaceOnUse" gradientTransform="translate(30 49.5) rotate(90) scale(11.5 30)">
<stop stop-color="#429E54"/>
<stop offset="1" stop-color="#429E54" stop-opacity="0"/>
</radialGradient>
</defs>
</svg>
