<svg width="64" height="61" viewBox="0 0 64 61" fill="none" xmlns="http://www.w3.org/2000/svg">
<rect y="39" width="64" height="22" rx="2" fill="url(#paint0_radial_764_3)"/>
<path d="M58.8571 33.5452C58.5325 32.5564 57.6823 31.8678 56.5828 31.7025C56.0643 31.6247 55.4706 31.6578 54.768 31.8035C53.5433 32.0577 52.6347 32.1545 51.9716 32.1732C54.4745 27.9226 56.5096 23.0755 57.6813 18.5128C59.5758 11.1349 58.5634 7.7738 57.3804 6.25352C54.2495 2.22949 49.6817 0.0677469 44.171 0.00160146C41.2313 -0.0345552 38.6506 0.549269 37.3044 0.969112C36.0509 0.746642 34.7032 0.622433 33.2891 0.599463C30.6382 0.556926 28.296 1.1382 26.2947 2.33286C25.1867 1.95598 23.4085 1.42469 21.3549 1.08566C16.5251 0.28809 12.6324 0.90956 9.78514 2.93284C6.33733 5.38257 4.73902 9.63885 5.03462 15.5834C5.1285 17.4708 6.17811 23.2133 7.83076 28.6594C8.78057 31.7897 9.79339 34.3892 10.8411 36.3863C12.3269 39.2182 13.9168 40.8859 15.7016 41.4848C16.7019 41.82 18.5195 42.0548 20.4311 40.4533C20.6735 40.7485 20.9968 41.0418 21.4258 41.3142C21.9707 41.6598 22.6369 41.9423 23.3023 42.1097C25.7003 42.7126 27.9465 42.5618 29.8628 41.7166C29.8747 42.0595 29.8837 42.387 29.8914 42.6699C29.904 43.1287 29.9167 43.5785 29.9334 43.9992C30.047 46.8436 30.2394 49.0554 30.8095 50.6029C30.8407 50.6879 30.8828 50.8177 30.9272 50.9553C31.2116 51.8311 31.6872 53.2974 32.897 54.4457C34.1498 55.6352 35.6653 56 37.0532 56C37.7493 56 38.4134 55.9081 38.9959 55.7826C41.0723 55.3349 43.4305 54.6531 45.1365 52.2097C46.7494 49.8999 47.5334 46.421 47.6753 40.9395C47.6936 40.7844 47.7108 40.6363 47.7269 40.4954L47.7607 40.2057L48.1407 40.2393L48.2386 40.2459C50.3534 40.3429 52.9394 39.8918 54.5276 39.1497C55.7825 38.564 59.8039 36.4284 58.8571 33.5452Z" fill="black"/>
<path d="M55.241 34.1059C48.9526 35.4107 48.5202 33.2692 48.5202 33.2692C55.1596 23.3595 57.9352 10.7806 55.5402 7.70192C49.0057 -0.696004 37.6945 3.2757 37.5057 3.37864L37.445 3.3897C36.2026 3.13022 34.8123 2.97581 33.2495 2.95008C30.4043 2.90329 28.2459 3.70044 26.6081 4.94975C26.6081 4.94975 6.42996 -3.4118 7.36856 15.4658C7.56816 19.4818 13.0911 45.853 19.6784 37.8876C22.0861 34.9749 24.4126 32.5122 24.4126 32.5122C25.568 33.2843 26.9512 33.6782 28.4013 33.5367L28.514 33.4406C28.4789 33.8021 28.495 34.1558 28.5591 34.5746C26.862 36.4818 27.3608 36.8166 23.9684 37.5191C20.5356 38.2307 22.5522 39.4975 23.8688 39.8288C25.465 40.2302 29.1577 40.7989 31.6527 37.2855L31.5533 37.6864C32.2181 38.2222 32.685 41.1709 32.6067 43.8441C32.5285 46.5172 32.4763 48.3524 33 49.7859C33.5242 51.2195 34.0463 54.4448 38.506 53.4837C42.2323 52.6804 44.1634 50.5988 44.4322 47.1265C44.6227 44.6581 45.0542 45.0231 45.0813 42.816L45.4274 41.7713C45.8264 38.4251 45.4909 37.3455 47.7865 37.8477L48.3447 37.897C50.0342 37.9742 52.2459 37.6235 53.5439 37.0167C56.3388 35.7121 57.9965 33.5335 55.2406 34.1059H55.241Z" fill="#336791"/>
<path d="M27.7892 17.2617C27.2225 17.1824 26.7093 17.2558 26.4497 17.4536C26.3038 17.5648 26.2585 17.6937 26.2463 17.7824C26.2137 18.0174 26.3774 18.2773 26.478 18.4113C26.7626 18.7907 27.1783 19.0515 27.5898 19.1089C27.6494 19.1173 27.7088 19.1214 27.7678 19.1212C28.454 19.1212 29.0779 18.5838 29.1329 18.1871C29.2016 17.6903 28.4846 17.3589 27.7892 17.2617ZM46.562 17.2775C46.5079 16.888 45.819 16.777 45.1652 16.8685C44.5123 16.9599 43.8792 17.2564 43.9321 17.6467C43.9744 17.9502 44.5193 18.4683 45.1642 18.4683C45.2187 18.4683 45.2737 18.4645 45.3291 18.4568C45.7596 18.3968 46.0755 18.1218 46.2256 17.9634C46.454 17.7218 46.5864 17.4525 46.562 17.2775Z" fill="white"/>
<path d="M57.3334 33.9576C57.0937 33.2283 56.3219 32.9937 55.0397 33.26C51.2326 34.0504 49.8692 33.5029 49.4216 33.1713C52.3808 28.6369 54.8151 23.1555 56.1284 18.0415C56.7505 15.619 57.0941 13.3692 57.1222 11.5354C57.1533 9.52273 56.8124 8.04371 56.1096 7.14022C53.2758 3.49796 49.1167 1.54423 44.0822 1.49063C40.6211 1.4515 37.6968 2.34244 37.1299 2.59298C35.9361 2.29437 34.6347 2.11104 33.2178 2.08764C30.6196 2.04532 28.3736 2.67104 26.5142 3.94652C25.7065 3.64408 23.6191 2.92328 21.0663 2.50961C16.6531 1.79498 13.146 2.33648 10.6434 4.11986C7.65717 6.248 6.27855 10.0521 6.54561 15.4263C6.63547 17.2343 7.65971 22.7965 9.27599 28.1232C11.4035 35.1342 13.7163 39.1031 16.1496 39.9196C16.4344 40.0151 16.7628 40.0819 17.125 40.0819C18.0126 40.0819 19.1009 39.6795 20.2332 38.3102C21.6143 36.6438 23.0429 35.0177 24.5173 33.4342C25.4739 33.9506 26.5248 34.239 27.5995 34.2679C27.6018 34.2963 27.6042 34.3245 27.6069 34.3526C27.4219 34.5745 27.2408 34.7996 27.0635 35.0279C26.3188 35.9788 26.1638 36.1768 23.7667 36.6732C23.0848 36.8148 21.2737 37.1902 21.2471 38.4672C21.2184 39.8624 23.388 40.4484 23.6352 40.5105C24.4966 40.7274 25.3265 40.8344 26.1179 40.8344C28.0427 40.8344 29.7366 40.1981 31.0903 38.9668C31.0486 43.9407 31.2548 48.8418 31.8485 50.3351C32.3348 51.5576 33.5227 54.5452 37.275 54.545C37.8256 54.545 38.4316 54.4806 39.0983 54.3368C43.0144 53.4924 44.7151 51.7514 45.3729 47.913C45.7249 45.8617 46.329 40.9633 46.6132 38.3358C47.2129 38.524 47.9849 38.6101 48.8194 38.6099C50.56 38.6099 52.5685 38.2379 53.8281 37.6499C55.2431 36.9888 57.7965 35.3669 57.3334 33.9576ZM48.0075 16.2026C47.9946 16.9782 47.8884 17.6824 47.7759 18.4175C47.6548 19.208 47.5296 20.0254 47.4981 21.0176C47.467 21.9832 47.5869 22.987 47.7028 23.958C47.9371 25.9189 48.1775 27.9377 47.2469 29.9298C47.0926 29.6541 46.9549 29.3694 46.8346 29.0771C46.7189 28.7951 46.4677 28.3421 46.1199 27.7151C44.7669 25.2743 41.5984 19.5585 43.2204 17.2262C43.7035 16.532 44.9297 15.8182 48.0075 16.2026ZM44.2768 3.06132C48.7877 3.16149 52.356 4.85894 54.8824 8.10624C56.82 10.597 54.6864 21.9304 48.5094 31.7078C48.4473 31.6284 48.3849 31.5492 48.3221 31.4703L48.2439 31.372C49.8401 28.7204 49.528 26.0969 49.2501 23.771C49.136 22.8165 49.0281 21.9149 49.0556 21.068C49.0839 20.1704 49.2019 19.4005 49.3161 18.6561C49.4563 17.7388 49.599 16.7896 49.5597 15.6706C49.5891 15.5532 49.6009 15.4146 49.5855 15.2499C49.485 14.1769 48.2671 10.9656 45.7848 8.05902C44.4269 6.46919 42.4467 4.69007 39.743 3.49009C40.9059 3.24763 42.4962 3.02155 44.2768 3.06132ZM19.035 37.3081C17.7875 38.8169 16.926 38.5276 16.6427 38.4328C14.7968 37.8134 12.6549 33.8889 10.7665 27.6657C9.13242 22.2809 8.17753 16.8661 8.10184 15.3478C7.86333 10.5457 9.02056 7.19913 11.5416 5.40066C15.6445 2.47409 22.39 4.22578 25.1005 5.11417C25.0616 5.15288 25.021 5.18903 24.9825 5.22838C20.5345 9.74669 20.6401 17.4664 20.651 17.9383C20.6506 18.1204 20.6658 18.3781 20.6866 18.7327C20.7631 20.0311 20.9056 22.4477 20.525 25.1843C20.1715 27.7274 20.9509 30.2165 22.6629 32.0135C22.8386 32.1976 23.0233 32.3728 23.2163 32.5384C22.4542 33.3593 20.798 35.1748 19.035 37.3081ZM23.788 30.929C22.4081 29.4806 21.7814 27.466 22.0684 25.4013C22.4701 22.5104 22.3219 19.9926 22.2422 18.64C22.231 18.4507 22.221 18.2848 22.2153 18.154C22.8651 17.5744 25.8763 15.9516 28.0237 16.4465C29.0035 16.6722 29.6006 17.3434 29.8489 18.4979C31.1336 24.475 30.0189 26.9662 29.1232 28.9682C28.9386 29.3806 28.7642 29.7705 28.6153 30.1737L28.4999 30.4855C28.2076 31.2737 27.9357 32.0066 27.7672 32.7026C26.3002 32.6983 24.8732 32.0679 23.788 30.9288M24.0132 38.9896C23.5848 38.882 23.1996 38.695 22.9735 38.54C23.1624 38.4506 23.4984 38.329 24.0811 38.2082C26.9011 37.6243 27.3367 37.2121 28.2878 35.9975C28.5058 35.7189 28.753 35.4033 29.0953 35.0187L29.0957 35.0183C29.6055 34.444 29.8387 34.5414 30.2616 34.718C30.6044 34.8605 30.9382 35.2927 31.0736 35.7682C31.1376 35.9928 31.2095 36.419 30.9742 36.7508C28.9874 39.5489 26.0924 39.513 24.0132 38.9896ZM38.7718 52.804C35.3219 53.5475 34.1004 51.7769 33.2954 49.7528C32.7759 48.446 32.5205 42.5533 32.7017 36.0458C32.704 35.9592 32.6917 35.8756 32.668 35.7969C32.6469 35.6415 32.6147 35.4879 32.5716 35.3371C32.3023 34.3902 31.6457 33.5982 30.8581 33.2698C30.5452 33.1394 29.9709 32.9001 29.2807 33.0777C29.4279 32.4678 29.6831 31.7789 29.9599 31.033L30.076 30.7193C30.2066 30.3656 30.3707 29.9991 30.5441 29.6112C31.4814 27.5166 32.7651 24.6477 31.3719 18.1665C30.8501 15.7389 29.1073 14.5534 26.4655 14.8288C24.8818 14.9937 23.4328 15.6364 22.7101 16.005C22.5547 16.0841 22.4126 16.1607 22.2798 16.2351C22.4815 13.7892 23.2436 9.21816 26.0943 6.32605C27.8892 4.50546 30.2796 3.60622 33.192 3.65471C38.9306 3.74915 42.6106 6.71144 44.6874 9.18009C46.477 11.3072 47.4461 13.45 47.8328 14.6057C44.9244 14.3082 42.9464 14.8856 41.9437 16.3276C39.7622 19.4643 43.1371 25.5523 44.7591 28.4782C45.0566 29.0144 45.3133 29.4778 45.394 29.6748C45.9222 30.9624 46.606 31.822 47.1052 32.4495C47.2583 32.6417 47.4068 32.8283 47.5197 32.9912C46.6388 33.2466 45.0566 33.8368 45.2008 36.787C45.0845 38.2673 44.2575 45.1979 43.8374 47.6465C43.2828 50.8815 42.0993 52.0862 38.7718 52.804ZM53.172 36.2283C52.2712 36.6487 50.7639 36.9642 49.332 37.032C47.7504 37.1064 46.9452 36.8538 46.7557 36.6983C46.6669 34.8598 47.3471 34.6678 48.0671 34.4645C48.1802 34.4326 48.2906 34.4013 48.3972 34.3639C48.4633 34.4182 48.536 34.4718 48.6154 34.5246C49.8866 35.3686 52.1539 35.4596 55.3549 34.795L55.39 34.7879C54.9583 35.194 54.2195 35.7389 53.172 36.2283Z" fill="white"/>
<defs>
<radialGradient id="paint0_radial_764_3" cx="0" cy="0" r="1" gradientUnits="userSpaceOnUse" gradientTransform="translate(32 50) rotate(90) scale(11 32)">
<stop stop-color="#334991"/>
<stop offset="1" stop-color="#334991" stop-opacity="0"/>
</radialGradient>
</defs>
</svg>
