<svg width="169" height="61" viewBox="0 0 169 61" fill="none" xmlns="http://www.w3.org/2000/svg">
<rect y="38" width="169" height="23" rx="2" fill="url(#paint0_radial_450_39)"/>
<path d="M73.1485 46.9549C73.1485 46.9549 80.1682 46.3517 80.1682 37.2665C80.1682 28.1809 71.6647 27.3368 71.6647 27.3368H56.3421V56H64.0435V49.0858L70.7018 56.0003H82.0934L73.1485 46.9549ZM70.1805 41.0853H64.0435V34.5327H70.2203C70.2203 34.5327 71.9452 35.1758 71.9452 37.7889C71.9452 40.402 70.1805 41.0853 70.1805 41.0853ZM99.1807 27.5378H91.3589C85.7836 27.5378 83.8985 32.6032 83.8985 35.015V56H91.72V50.9751H99.0603V56H106.641V35.0153C106.641 28.9044 101.106 27.5378 99.1807 27.5378ZM99.0603 42.8543H91.6799V35.8996C91.6799 35.8996 91.6799 34.3317 94.1266 34.3317H96.8141C98.98 34.3317 99.0202 35.8996 99.0202 35.8996V42.8543H99.0603ZM110.211 27.5378H118.354V56H110.211V27.5378ZM129.785 48.6432V27.5378H121.683V55.9997H140.736V48.6432H129.785ZM143.423 48.7236V56H156.539C159.227 56 163.84 54.0302 164 48.5225V45.7087C164 41.0049 160.15 38.2312 156.539 38.2312H150.001V34.8544H162.957V27.5378H150.523C147.314 27.5378 143.022 30.1909 143.022 35.1356V37.6683C143.022 42.613 147.274 45.1457 150.523 45.1457C159.548 45.1862 148.357 45.1457 156.7 45.1457V48.6837L143.423 48.7236Z" fill="#CC0000"/>
<path d="M7.80786 55.9598H39.4955C39.4955 55.9598 33.4388 28.2614 53.4944 17.0452C57.8664 14.9147 71.7847 6.95499 94.5679 23.8394C95.2898 23.2362 95.9719 22.7537 95.9719 22.7537C95.9719 22.7537 75.1141 1.88931 51.8899 4.22125C40.2174 5.26643 25.8577 15.9196 17.4345 29.9901C9.01119 44.0604 7.80786 55.9598 7.80786 55.9598ZM73.8306 6.47246L73.991 3.77893C73.63 3.57787 72.6272 3.09533 70.1002 2.37184L69.9397 5.02517C71.2519 5.46558 72.5495 5.94826 73.8306 6.47246ZM70.02 14.9948L69.8595 17.5278C71.1832 17.568 72.5069 17.7288 73.8306 18.01L73.991 15.5175C72.6272 15.2363 71.3035 15.0752 70.02 14.9948ZM55.1789 2.45258H55.5801L54.7777 0C53.5342 0 52.2506 0.0804226 50.9273 0.241268L51.6893 2.61311C52.8525 2.49248 54.0157 2.45258 55.1789 2.45258ZM57.1041 17.2466L58.0268 20.0205C59.1901 19.4576 60.3533 18.9754 61.5165 18.6135L60.6341 15.9601C59.431 16.3123 58.2519 16.742 57.1041 17.2466ZM38.894 6.67383L37.0889 3.89956C36.0862 4.42231 35.043 4.98527 33.96 5.62833L35.8053 8.4425C36.8481 7.79943 37.8512 7.19626 38.894 6.67383ZM47.1167 24.7642L49.0419 27.6585C49.7236 26.6535 50.5261 25.729 51.4087 24.8044L49.6036 22.0707C48.702 22.8983 47.8702 23.7994 47.1167 24.7642ZM41.3007 37.7088L44.5495 40.2817C44.71 38.7138 44.9906 37.1459 45.3918 35.5783L42.5037 33.2869C41.9824 34.7744 41.6213 36.2616 41.3004 37.7088H41.3007ZM23.7319 18.6132L20.884 16.121C19.8411 17.126 18.8384 18.1309 17.9156 19.1359L21.004 21.7892C21.8469 20.7038 22.769 19.6184 23.7316 18.6135L23.7319 18.6132ZM11.6184 36.5836L7.00544 34.895C6.24345 36.6231 5.40121 38.6334 5 39.7188L9.61269 41.407C10.1343 40.0402 10.9765 38.0704 11.6184 36.5829V36.5836ZM40.6985 47.92C40.7791 50.0506 40.9797 51.7791 41.18 52.9854L45.9936 54.7139C45.6325 53.1459 45.2714 51.3773 45.0307 49.4879L40.6985 47.92Z" fill="#CC0000"/>
<defs>
<radialGradient id="paint0_radial_450_39" cx="0" cy="0" r="1" gradientUnits="userSpaceOnUse" gradientTransform="translate(84.5 49.5) rotate(90) scale(11.5 90.7725)">
<stop stop-color="#CC2400"/>
<stop offset="1" stop-color="#CC2400" stop-opacity="0"/>
</radialGradient>
</defs>
</svg>
