<svg width="73" height="61" viewBox="0 0 73 61" fill="none" xmlns="http://www.w3.org/2000/svg">
<rect y="38" width="73" height="23" rx="2" fill="url(#paint0_radial_444_23)"/>
<path d="M56.7986 18.1507C56.1281 17.9209 55.4519 17.708 54.7707 17.5122C54.8852 17.0451 54.9905 16.5836 55.084 16.1302C56.6192 8.68516 55.6156 2.68727 52.1877 0.712475C48.9012 -1.18069 43.5262 0.793365 38.0979 5.51324C37.5629 5.97924 37.0398 6.45867 36.529 6.95107C36.1871 6.62364 35.8392 6.30256 35.4854 5.98801C29.7962 0.941376 24.0937 -1.18561 20.6695 0.79484C17.3859 2.69391 16.4136 8.33234 17.7956 15.3882C17.9331 16.087 18.0884 16.7822 18.2613 17.4731C17.4541 17.7023 16.6752 17.9462 15.9298 18.2058C9.25964 20.5292 5 24.1703 5 27.947C5 31.8476 9.57291 35.7601 16.5201 38.1325C17.0682 38.3198 17.6374 38.4968 18.2234 38.6648C18.0376 39.4089 17.8726 40.1581 17.7287 40.9115C16.4111 47.8449 17.44 53.3501 20.7148 55.2371C24.0971 57.1858 29.774 55.183 35.3015 50.3554C35.7497 49.9629 36.1881 49.5594 36.6162 49.145C37.1693 49.6782 37.7371 50.1959 38.3191 50.6974C43.6736 55.3005 48.9617 57.1593 52.2333 55.2671C55.6124 53.3127 56.7107 47.3986 55.2848 40.2034C55.1725 39.6397 55.0465 39.0788 54.9071 38.5212C55.3057 38.4032 55.697 38.2817 56.0785 38.1553C63.3008 35.7648 68 31.8998 68 27.947C68 24.1565 63.6028 20.4909 56.7986 18.1507ZM55.2322 35.6032C54.8876 35.7171 54.5342 35.827 54.174 35.9339C53.3766 33.4121 52.3007 30.7307 50.9838 27.96C52.2404 25.2555 53.275 22.6083 54.0499 20.1029C54.6944 20.2893 55.3198 20.4857 55.9227 20.693C61.7527 22.6983 65.3087 25.6627 65.3087 27.947C65.3087 30.3801 61.4682 33.5387 55.2322 35.6032ZM52.6447 40.7256C53.2752 43.9071 53.3651 46.7837 52.9474 49.0327C52.5724 51.0534 51.8179 52.4005 50.8847 52.9402C48.8994 54.0884 44.6536 52.596 40.0745 48.6592C39.5332 48.1929 39.005 47.7116 38.4904 47.216C40.2657 45.2763 42.0398 43.0215 43.7713 40.5171C46.817 40.2472 49.6943 39.8056 52.3036 39.203C52.4294 39.7077 52.5432 40.2154 52.6447 40.7256ZM26.4781 52.7418C24.5384 53.426 22.9934 53.4457 22.0595 52.9078C20.0723 51.7628 19.2461 47.3423 20.373 41.413C20.5069 40.7124 20.6603 40.0156 20.8329 39.3234C23.4135 39.8938 26.2699 40.3039 29.3227 40.5513C31.066 43.0018 32.8913 45.2542 34.7308 47.2265C34.3399 47.6045 33.9397 47.9727 33.5306 48.331C31.0862 50.4656 28.6368 51.9801 26.4781 52.7418ZM17.3908 35.5882C14.3188 34.5391 11.7819 33.1758 10.043 31.6881C8.48026 30.3513 7.69153 29.0239 7.69153 27.947C7.69153 25.655 11.1115 22.7317 16.8157 20.7449C17.508 20.5039 18.2325 20.2765 18.9843 20.0631C19.7728 22.625 20.8068 25.3037 22.0548 28.0124C20.7906 30.7612 19.7418 33.4827 18.9456 36.0748C18.4235 35.9254 17.905 35.7631 17.3908 35.5882ZM20.437 14.8716C19.253 8.82653 20.0393 4.26646 22.0181 3.12196C24.1257 1.90296 28.7862 3.64098 33.6985 7.9987C34.0188 8.28351 34.3339 8.57408 34.6437 8.87029C32.8133 10.834 31.0047 13.0697 29.2769 15.5057C26.3139 15.7801 23.4777 16.2207 20.8701 16.811C20.7094 16.1684 20.565 15.5215 20.437 14.8716ZM47.6124 21.5759C46.9965 20.513 46.3577 19.4635 45.6965 18.4281C47.7066 18.682 49.6325 19.0191 51.4411 19.4312C50.8982 21.17 50.2215 22.9876 49.4248 24.8513C48.8426 23.7476 48.2383 22.6555 47.6124 21.5759ZM36.5303 10.792C37.7716 12.1356 39.0148 13.6357 40.2377 15.2633C37.757 15.1462 35.2723 15.1457 32.7916 15.2618C34.0157 13.6492 35.2695 12.1511 36.5303 10.792ZM25.3771 21.5943C24.759 22.6653 24.1659 23.7505 23.5985 24.8491C22.815 22.9921 22.1444 21.166 21.5968 19.4027C23.3943 19.0009 25.3111 18.6725 27.3084 18.4231C26.6399 19.4649 25.9959 20.5224 25.3771 21.5943ZM27.3657 37.6621C25.3022 37.432 23.3566 37.1205 21.5596 36.7296C22.1158 34.9347 22.8012 33.0698 23.6017 31.173C24.1714 32.2724 24.7669 33.3583 25.3876 34.4297C26.026 35.5312 26.687 36.6101 27.3657 37.6621ZM36.6046 45.2913C35.3288 43.9165 34.0565 42.3953 32.814 40.7593C34.0204 40.8065 35.2501 40.8306 36.5 40.8306C37.7841 40.8306 39.0535 40.8018 40.3029 40.7463C39.0761 42.4118 37.8375 43.9351 36.6046 45.2913ZM49.4502 31.0761C50.2923 32.9939 51.0021 34.8489 51.5656 36.613C49.7391 37.0295 47.7669 37.3649 45.6889 37.6139C46.3548 36.5593 46.9996 35.4915 47.6229 34.4113C48.2567 33.3133 48.866 32.2013 49.4502 31.0761ZM45.2917 33.0679C44.3374 34.7241 43.3294 36.3489 42.2694 37.9397C40.3998 38.0732 38.4685 38.1421 36.5 38.1421C34.5394 38.1421 32.6324 38.0811 30.796 37.9621C29.7084 36.375 28.6812 34.7473 27.7167 33.0826C26.7567 31.4268 25.8603 29.735 25.0288 28.0112C25.8582 26.2869 26.7521 24.5944 27.7088 22.9372L27.7085 22.9375C28.6649 21.2799 29.6839 19.6592 30.7633 18.0789C32.6368 17.9373 34.5581 17.8636 36.4998 17.8636C38.4503 17.8636 40.3743 17.9381 42.2473 18.0807C43.3158 19.6586 44.3283 21.2737 45.2828 22.923C46.2427 24.5765 47.1485 26.2607 47.9987 27.9731C47.1572 29.7029 46.2543 31.4023 45.2917 33.0679ZM50.8436 3.0418C52.9531 4.25736 53.7736 9.15918 52.4481 15.5873C52.3613 16.0062 52.267 16.4234 52.1651 16.8388C49.5511 16.2359 46.7129 15.7877 43.7413 15.5092C42.0103 13.0463 40.2165 10.8072 38.4158 8.86882C38.8878 8.41434 39.3709 7.97164 39.8648 7.54114C44.516 3.49739 48.863 1.90074 50.8436 3.0418ZM36.5 22.3265C39.6069 22.3265 42.1257 24.8429 42.1257 27.947C42.1257 31.051 39.6069 33.5675 36.5 33.5675C33.3931 33.5675 30.8743 31.051 30.8743 27.947C30.8743 24.8429 33.3931 22.3265 36.5 22.3265Z" fill="#00D8FF"/>
<defs>
<radialGradient id="paint0_radial_444_23" cx="0" cy="0" r="1" gradientUnits="userSpaceOnUse" gradientTransform="translate(36.5 49.5) rotate(90) scale(11.5 36.5)">
<stop stop-color="#0088FF"/>
<stop offset="1" stop-color="#0088FF" stop-opacity="0"/>
</radialGradient>
</defs>
</svg>
