<svg width="75" height="61" viewBox="0 0 75 61" fill="none" xmlns="http://www.w3.org/2000/svg">
<rect y="38" width="75" height="23" rx="2" fill="url(#paint0_radial_708_34)"/>
<path d="M67.4491 43.1644C63.9797 44.9888 46.0116 52.3908 42.1797 54.4238C38.3479 56.4567 36.2248 56.4046 33.2215 54.945C30.2182 53.4855 11.1108 45.7707 7.64144 44.1027C5.93265 43.2686 5.05237 42.591 5.05237 41.9133V35.2932C5.05237 35.2932 29.9075 29.8199 33.9465 28.4125C37.9854 26.953 39.3317 26.9008 42.7493 28.1519C46.1669 29.4029 66.6206 33.1039 69.9864 34.355V40.8708C69.9864 41.5485 69.2097 42.2782 67.4491 43.1644Z" fill="#A41E11"/>
<path d="M67.4493 36.5963C63.98 38.4208 46.0118 45.8228 42.1799 47.8557C38.3481 49.8887 36.2251 49.8365 33.2217 48.377C30.2184 46.9174 11.111 39.1505 7.64165 37.4825C4.22407 35.8144 4.12051 34.6676 7.48631 33.3645C10.8521 32.0092 29.8559 24.5029 33.8949 23.0955C37.9339 21.6359 39.2802 21.5838 42.6978 22.8349C46.1153 24.0859 63.98 31.2273 67.3458 32.4783C70.8151 33.7294 70.9187 34.7719 67.4493 36.5963Z" fill="#D82C20"/>
<path d="M67.4491 32.4262C63.9797 34.2507 46.0116 41.6527 42.1797 43.6856C38.3479 45.6664 36.2248 45.6664 33.2215 44.2069C30.2182 42.7473 11.1108 34.9804 7.64144 33.3124C5.93265 32.4784 5.05237 31.8007 5.05237 31.1231V24.503C5.05237 24.503 29.9075 19.0296 33.9465 17.6222C37.9854 16.1627 39.3317 16.1105 42.7493 17.3616C46.1669 18.6126 66.6206 22.3136 69.9864 23.5647V30.0805C69.9864 30.7582 69.2097 31.488 67.4491 32.4262Z" fill="#A41E11"/>
<path d="M67.4491 25.8062C63.9798 27.6306 46.0116 35.0326 42.1797 37.0656C38.3479 39.0464 36.2249 39.0464 33.2215 37.5868C30.2182 36.1273 11.1108 28.3604 7.64145 26.6923C4.17208 25.0243 4.1203 23.8775 7.4861 22.5743C10.8519 21.219 29.8557 13.7128 33.8947 12.3053C37.9336 10.8458 39.28 10.7936 42.6975 12.0447C46.1151 13.2957 63.9798 20.4371 67.3456 21.6882C70.8149 22.9392 70.9185 23.9817 67.4491 25.8062Z" fill="#D82C20"/>
<path d="M67.4492 21.2191C63.9798 23.0435 46.0117 30.4455 42.1798 32.4785C38.348 34.4593 36.2249 34.4593 33.2216 32.9997C30.2183 31.5923 11.1109 23.8254 7.64153 22.1574C5.93274 21.3233 5.00067 20.6457 5.00067 19.968V13.3479C5.00067 13.3479 29.8558 7.87462 33.8948 6.46719C37.9337 5.00764 39.28 4.95551 42.6976 6.20656C46.1152 7.4576 66.5689 11.1586 69.9347 12.4096V18.9255C69.9865 19.6031 69.2098 20.2808 67.4492 21.2191Z" fill="#A41E11"/>
<path d="M67.4491 14.5989C63.9798 16.4233 46.0116 23.8253 42.1797 25.8583C38.3479 27.8391 36.2249 27.8391 33.2215 26.3796C30.2182 24.92 11.1108 17.2052 7.64145 15.5372C4.17208 13.8691 4.1203 12.7223 7.4861 11.4192C10.8519 10.0639 29.8557 2.5576 33.8947 1.15018C37.9336 -0.309375 39.28 -0.361502 42.6975 0.889542C46.1151 2.14059 63.9798 9.28196 67.3456 10.533C70.8149 11.784 70.9185 12.8266 67.4491 14.5989Z" fill="#D82C20"/>
<path d="M46.0116 8.23951L40.4192 8.86504L39.1246 11.8884L37.1052 8.50015L30.6325 7.92675L35.4482 6.15444L33.9983 3.44385L38.555 5.21616L42.8011 3.80874L41.6619 6.62358L46.0116 8.23951ZM38.814 23.0435L28.3023 18.6649L43.3707 16.3713L38.814 23.0435Z" fill="white"/>
<path d="M24.2633 16.2148C28.696 16.2148 32.2895 14.8145 32.2895 13.0872C32.2895 11.3599 28.696 9.95959 24.2633 9.95959C19.8306 9.95959 16.2372 11.3599 16.2372 13.0872C16.2372 14.8145 19.8306 16.2148 24.2633 16.2148Z" fill="white"/>
<path d="M52.6914 9.07349L61.5978 12.6181L52.6914 16.1627V9.07349Z" fill="#7A0C00"/>
<path d="M42.8529 13.0351L52.6914 9.07349V16.1627L51.7075 16.5797L42.8529 13.0351Z" fill="#AD2115"/>
<defs>
<radialGradient id="paint0_radial_708_34" cx="0" cy="0" r="1" gradientUnits="userSpaceOnUse" gradientTransform="translate(37.5 49.5) rotate(90) scale(11.5 37.5)">
<stop stop-color="#AE3F37"/>
<stop offset="1" stop-color="#AE3F37" stop-opacity="0"/>
</radialGradient>
</defs>
</svg>
