<svg width="66" height="61" viewBox="0 0 66 61" fill="none" xmlns="http://www.w3.org/2000/svg">
<rect y="38" width="66" height="23" rx="2" fill="url(#paint0_radial_450_29)"/>
<path d="M48.3857 36.962L16.4133 56L57.8118 53.1828L61 11.323L48.3857 36.962Z" fill="url(#paint1_linear_450_29)"/>
<path d="M57.8794 53.1541L54.3212 28.5272L44.6291 41.361L57.8794 53.1541Z" fill="url(#paint2_linear_450_29)"/>
<path d="M57.9276 53.1541L31.8597 51.1023L16.5515 55.9463L57.9276 53.1541Z" fill="url(#paint3_linear_450_29)"/>
<path d="M16.5885 55.9517L23.1007 34.5585L8.77026 37.6309L16.5885 55.9517Z" fill="url(#paint4_linear_450_29)"/>
<path d="M44.6267 41.4315L38.6345 17.8959L21.4867 34.0146L44.6267 41.4315Z" fill="url(#paint5_linear_450_29)"/>
<path d="M59.6406 18.2272L43.431 4.95154L38.9173 19.5849L59.6406 18.2272Z" fill="url(#paint6_linear_450_29)"/>
<path d="M52.06 0.218062L42.5267 5.50137L36.5119 0.147339L52.06 0.218062Z" fill="url(#paint7_linear_450_29)"/>
<path d="M5 44.8073L8.99369 37.5034L5.76306 28.802L5 44.8073Z" fill="url(#paint8_linear_450_29)"/>
<path d="M5.5484 28.5272L8.79881 37.7726L22.9225 34.5951L39.0471 19.5676L43.5978 5.07334L36.4326 0L24.2507 4.57167C20.4125 8.15145 12.965 15.2344 12.6965 15.3674C12.4306 15.5036 7.77847 24.3211 5.5484 28.5272Z" fill="white"/>
<path d="M16.9615 11.9181C25.2798 3.6477 36.0032 -1.23859 40.1184 2.92504C44.2314 7.08868 39.8697 17.2069 31.5514 25.4747C23.2332 33.7423 12.6427 38.8978 8.5301 34.7342C4.41491 30.5734 8.64325 20.1859 16.9615 11.9181Z" fill="url(#paint9_linear_450_29)"/>
<path d="M16.5884 55.9431L23.0497 34.4818L44.5078 41.3946C36.7494 48.6901 28.1202 54.8576 16.5884 55.9431Z" fill="url(#paint10_linear_450_29)"/>
<path d="M39.0754 19.5253L44.5843 41.4061C51.0653 34.5726 56.8819 27.2262 59.7307 18.1395L39.0754 19.5253Z" fill="url(#paint11_linear_450_29)"/>
<path d="M59.6745 18.2499C61.8793 11.5782 62.3879 2.00673 51.992 0.229614L43.4618 4.95441L59.6745 18.2499Z" fill="url(#paint12_linear_450_29)"/>
<path d="M5 44.7109C5.3054 55.7224 13.2277 55.8865 16.6025 55.983L8.80716 37.7272L5 44.7109Z" fill="#9E1209"/>
<path d="M39.1062 19.5595C44.0864 22.629 54.1235 28.7936 54.3269 28.9069C54.6433 29.0853 58.6542 22.1245 59.5644 18.1904L39.1062 19.5595Z" fill="url(#paint13_radial_450_29)"/>
<path d="M23.0411 34.4818L31.6786 51.1928C36.7861 48.4152 40.7857 45.031 44.4485 41.4061L23.0411 34.4818Z" fill="url(#paint14_radial_450_29)"/>
<path d="M8.77332 37.7499L7.54953 52.3633C9.8587 55.5265 13.0357 55.8015 16.3679 55.5549C13.957 49.5377 9.14068 37.5062 8.77332 37.7499Z" fill="url(#paint15_linear_450_29)"/>
<path d="M43.4112 4.99121L60.5707 7.40593C59.6545 3.51461 56.8422 1.00339 52.049 0.218384L43.4112 4.99121Z" fill="url(#paint16_linear_450_29)"/>
<defs>
<radialGradient id="paint0_radial_450_29" cx="0" cy="0" r="1" gradientUnits="userSpaceOnUse" gradientTransform="translate(33 49.5) rotate(90) scale(11.5 33)">
<stop offset="0.328125" stop-color="#78250D"/>
<stop offset="1" stop-color="#78250D" stop-opacity="0"/>
</radialGradient>
<linearGradient id="paint1_linear_450_29" x1="54.2008" y1="61.0927" x2="42.351" y2="40.1973" gradientUnits="userSpaceOnUse">
<stop stop-color="#FB7655"/>
<stop offset="0.41" stop-color="#E42B1E"/>
<stop offset="0.99" stop-color="#990000"/>
<stop offset="1" stop-color="#990000"/>
</linearGradient>
<linearGradient id="paint2_linear_450_29" x1="60.0858" y1="43.5228" x2="43.4945" y2="40.2907" gradientUnits="userSpaceOnUse">
<stop stop-color="#871101"/>
<stop offset="0.99" stop-color="#911209"/>
<stop offset="1" stop-color="#911209"/>
</linearGradient>
<linearGradient id="paint3_linear_450_29" x1="47.9041" y1="61.727" x2="47.6892" y2="51.1761" gradientUnits="userSpaceOnUse">
<stop stop-color="#871101"/>
<stop offset="0.99" stop-color="#911209"/>
<stop offset="1" stop-color="#911209"/>
</linearGradient>
<linearGradient id="paint4_linear_450_29" x1="15.9372" y1="36.1061" x2="20.8938" y2="50.6001" gradientUnits="userSpaceOnUse">
<stop stop-color="white"/>
<stop offset="0.23" stop-color="#E57252"/>
<stop offset="0.46" stop-color="#DE3B20"/>
<stop offset="0.99" stop-color="#A60003"/>
<stop offset="1" stop-color="#A60003"/>
</linearGradient>
<linearGradient id="paint5_linear_450_29" x1="32.1713" y1="21.7433" x2="33.0708" y2="37.4399" gradientUnits="userSpaceOnUse">
<stop stop-color="white"/>
<stop offset="0.23" stop-color="#E4714E"/>
<stop offset="0.56" stop-color="#BE1A0D"/>
<stop offset="0.99" stop-color="#A80D00"/>
<stop offset="1" stop-color="#A80D00"/>
</linearGradient>
<linearGradient id="paint6_linear_450_29" x1="46.5776" y1="7.23339" x2="47.893" y2="18.6329" gradientUnits="userSpaceOnUse">
<stop stop-color="white"/>
<stop offset="0.18" stop-color="#E46342"/>
<stop offset="0.4" stop-color="#C82410"/>
<stop offset="0.99" stop-color="#A80D00"/>
<stop offset="1" stop-color="#A80D00"/>
</linearGradient>
<linearGradient id="paint7_linear_450_29" x1="38.6281" y1="3.27116" x2="40.4822" y2="-4.56855" gradientUnits="userSpaceOnUse">
<stop stop-color="white"/>
<stop offset="0.54" stop-color="#C81F11"/>
<stop offset="0.99" stop-color="#BF0905"/>
<stop offset="1" stop-color="#BF0905"/>
</linearGradient>
<linearGradient id="paint8_linear_450_29" x1="6.10322" y1="32.185" x2="10.9337" y2="35.2044" gradientUnits="userSpaceOnUse">
<stop stop-color="white"/>
<stop offset="0.31" stop-color="#DE4024"/>
<stop offset="0.99" stop-color="#BF190B"/>
<stop offset="1" stop-color="#BF190B"/>
</linearGradient>
<linearGradient id="paint9_linear_450_29" x1="-0.24471" y1="43.9613" x2="43.2215" y2="-0.737466" gradientUnits="userSpaceOnUse">
<stop stop-color="#BD0012"/>
<stop offset="0.07" stop-color="white"/>
<stop offset="0.17" stop-color="white"/>
<stop offset="0.27" stop-color="#C82F1C"/>
<stop offset="0.33" stop-color="#820C01"/>
<stop offset="0.46" stop-color="#A31601"/>
<stop offset="0.72" stop-color="#B31301"/>
<stop offset="0.99" stop-color="#E82609"/>
<stop offset="1" stop-color="#E82609"/>
</linearGradient>
<linearGradient id="paint10_linear_450_29" x1="33.003" y1="48.4756" x2="20.727" y2="43.3339" gradientUnits="userSpaceOnUse">
<stop stop-color="#8C0C01"/>
<stop offset="0.54" stop-color="#990C00"/>
<stop offset="0.99" stop-color="#A80D0E"/>
<stop offset="1" stop-color="#A80D0E"/>
</linearGradient>
<linearGradient id="paint11_linear_450_29" x1="55.4591" y1="32.7402" x2="42.8012" y2="23.7741" gradientUnits="userSpaceOnUse">
<stop stop-color="#7E110B"/>
<stop offset="0.99" stop-color="#9E0C00"/>
<stop offset="1" stop-color="#9E0C00"/>
</linearGradient>
<linearGradient id="paint12_linear_450_29" x1="59.7261" y1="13.5867" x2="53.768" y2="7.55511" gradientUnits="userSpaceOnUse">
<stop stop-color="#79130D"/>
<stop offset="0.99" stop-color="#9E120B"/>
<stop offset="1" stop-color="#9E120B"/>
</linearGradient>
<radialGradient id="paint13_radial_450_29" cx="0" cy="0" r="1" gradientUnits="userSpaceOnUse" gradientTransform="translate(45.6532 22.501) scale(14.2334 7.45817)">
<stop stop-color="#A80D00"/>
<stop offset="0.99" stop-color="#7E0E08"/>
<stop offset="1" stop-color="#7E0E08"/>
</radialGradient>
<radialGradient id="paint14_radial_450_29" cx="0" cy="0" r="1" gradientUnits="userSpaceOnUse" gradientTransform="translate(25.9416 41.3099) scale(18.9211 14.7701)">
<stop stop-color="#A30C00"/>
<stop offset="0.99" stop-color="#800E08"/>
<stop offset="1" stop-color="#800E08"/>
</radialGradient>
<linearGradient id="paint15_linear_450_29" x1="12.5379" y1="55.9305" x2="1.86128" y2="47.0923" gradientUnits="userSpaceOnUse">
<stop stop-color="#8B2114"/>
<stop offset="0.43" stop-color="#9E100A"/>
<stop offset="0.99" stop-color="#B3100C"/>
<stop offset="1" stop-color="#B3100C"/>
</linearGradient>
<linearGradient id="paint16_linear_450_29" x1="48.7083" y1="2.77709" x2="51.7465" y2="10.4417" gradientUnits="userSpaceOnUse">
<stop stop-color="#B31000"/>
<stop offset="0.44" stop-color="#910F08"/>
<stop offset="0.99" stop-color="#791C12"/>
<stop offset="1" stop-color="#791C12"/>
</linearGradient>
</defs>
</svg>
