<svg width="85" height="61" viewBox="0 0 85 61" fill="none" xmlns="http://www.w3.org/2000/svg">
<rect y="38" width="85" height="23" rx="2" fill="url(#paint0_radial_442_4)"/>
<mask id="path-2-inside-1_442_4" fill="white">
<path d="M69.5809 32.1924C66.9645 32.2058 64.6903 32.8332 62.7863 33.7607C62.0874 32.3831 61.3888 31.1558 61.2657 30.2555C61.1285 29.2054 60.9643 28.5642 61.1285 27.3094C61.293 26.0546 62.0328 24.2677 62.019 24.1314C62.0055 23.9951 61.8545 23.354 60.3477 23.3405C58.8409 23.3268 57.5394 23.6269 57.3887 24.0223C57.238 24.4178 56.9504 25.3181 56.7585 26.2453C56.4983 27.6095 53.745 32.4784 52.1697 35.029C51.6626 34.0336 51.2243 33.1605 51.1283 32.465C50.9914 31.4149 50.8268 30.7738 50.9914 29.5189C51.1559 28.2641 51.8956 26.4776 51.8815 26.341C51.868 26.2047 51.7173 25.5635 50.2105 25.55C48.7034 25.5363 47.402 25.8364 47.2515 26.2319C47.1008 26.6276 46.9363 27.5548 46.6214 28.4551C46.3062 29.3554 42.6486 37.4845 41.6897 39.5847C41.3022 40.4347 40.8957 41.276 40.4705 42.108C40.4705 42.108 40.4567 42.149 40.4156 42.2171C40.1553 42.7217 40.0046 42.9946 40.0046 42.9946V43.0081C39.7992 43.3766 39.5801 43.7174 39.4705 43.7174C39.3882 43.7174 39.2375 42.7354 39.4978 41.3987C40.0457 38.5755 41.3471 34.1837 41.3336 34.0336C41.3336 33.9517 41.5801 33.188 40.4843 32.7923C39.4155 32.3968 39.0322 33.0514 38.9361 33.0514C38.8403 33.0514 38.7716 33.2834 38.7716 33.2834C38.7716 33.2834 39.9637 28.346 36.4977 28.346C34.3334 28.346 31.3469 30.7056 29.8674 32.8332C28.9361 33.3381 26.9496 34.4156 24.8261 35.5748C24.0179 36.025 23.1824 36.4751 22.4016 36.8978C22.3466 36.8434 22.292 36.7749 22.2371 36.7205C18.0451 32.2605 10.2914 29.1097 10.6204 23.1223C10.7438 20.94 11.497 15.2114 25.5112 8.25555C37.0456 2.59514 46.2242 4.16351 47.8132 7.6416C50.0871 12.6065 42.8954 21.8266 30.977 23.163C26.429 23.6678 24.0453 21.9219 23.4427 21.2673C22.8126 20.5852 22.7165 20.5442 22.4835 20.6808C22.1002 20.8856 22.3466 21.4993 22.4835 21.8538C22.8399 22.781 24.3056 24.4178 26.7851 25.2227C28.977 25.9318 34.3058 26.3275 40.7581 23.8451C47.9775 21.0626 53.6216 13.3292 51.9641 6.85069C50.3063 0.276512 39.3471 -1.89236 28.977 1.77673C22.8126 3.95905 16.1273 7.39619 11.3193 11.8699C5.60647 17.189 4.70221 21.8128 5.07208 23.7497C6.40114 30.6237 15.922 35.0975 19.7302 38.4117C19.5384 38.5209 19.3601 38.6165 19.2097 38.6984C17.3054 39.6394 10.0449 43.4173 8.23668 47.4137C6.18169 51.9418 8.56571 55.1882 10.141 55.6243C15.0315 56.9748 20.059 54.5471 22.7576 50.5369C25.4563 46.5271 25.1276 41.3168 23.881 38.9301C23.8676 38.8998 23.8491 38.8721 23.8261 38.8482C24.3194 38.5618 24.8261 38.2617 25.3194 37.9753C26.226 37.4418 27.144 36.9278 28.073 36.4339C27.6071 37.7024 27.2645 39.2164 27.1003 41.3987C26.8946 43.9631 27.9493 47.2908 29.333 48.6C29.9497 49.1733 30.6756 49.1868 31.1415 49.1868C32.7579 49.1868 33.4838 47.8501 34.2923 46.2679C35.2785 44.3313 36.169 42.0808 36.169 42.0808C36.169 42.0808 35.0594 48.1639 38.0733 48.1639C39.1691 48.1639 40.2787 46.7453 40.7719 46.0225V46.036C40.7719 46.036 40.7992 45.995 40.8542 45.8997C40.9638 45.7224 41.0322 45.613 41.0322 45.613V45.5858C41.4705 44.8224 42.457 43.09 43.9227 40.2121C45.8132 36.5023 47.6352 31.8648 47.6352 31.8648C47.6352 31.8648 47.7997 32.9967 48.3608 34.8793C48.6899 35.984 49.375 37.1979 49.9229 38.3708C49.4846 38.9845 49.2105 39.3255 49.2105 39.3255L49.2243 39.3393C48.8679 39.8029 48.4845 40.3074 48.0597 40.7988C46.5664 42.5716 44.7855 44.6042 44.5391 45.1904C44.2512 45.8859 44.3199 46.3908 44.8681 46.8C45.265 47.0998 45.9774 47.1408 46.7036 47.0998C48.0462 47.0044 48.9913 46.6771 49.4569 46.4724C50.1832 46.2132 51.0325 45.8178 51.8269 45.2313C53.2928 44.1538 54.183 42.6126 54.101 40.5806C54.0599 39.4618 53.69 38.3436 53.2379 37.2932C53.3751 37.1022 53.4982 36.9115 53.6354 36.7205C55.9504 33.3515 57.7451 29.6553 57.7451 29.6553C57.7451 29.6553 57.9096 30.7872 58.471 32.6697C58.7451 33.6244 59.3065 34.6611 59.7998 35.6702C57.6217 37.4298 56.2791 39.4756 55.7997 40.8123C54.9365 43.2947 55.6078 44.4129 56.8819 44.6721C57.4572 44.7949 58.2792 44.522 58.882 44.2629C59.649 44.0175 60.5533 43.5945 61.4164 42.9671C62.8821 41.8898 64.2931 40.3893 64.2109 38.3573C64.1697 37.4298 63.923 36.5158 63.5807 35.6292C65.43 34.8658 67.8138 34.4429 70.8547 34.7974C77.3757 35.5611 78.6634 39.6119 78.4166 41.3171C78.1701 43.0218 76.8002 43.9493 76.3484 44.2357C75.896 44.5223 75.7455 44.6177 75.7867 44.8221C75.8413 45.1222 76.0605 45.1088 76.4442 45.0541C76.9782 44.9584 79.8687 43.6764 79.9921 40.5394C80.1978 36.5295 76.3619 32.1514 69.5809 32.1924ZM19.2781 49.0777C17.1135 51.4235 14.0999 52.3101 12.7985 51.5601C11.4013 50.7551 11.9492 47.2908 14.6067 44.8087C16.2231 43.2947 18.3054 41.8895 19.6891 41.0305C20.004 40.8395 20.47 40.5669 21.0317 40.2258C21.1274 40.1711 21.1824 40.1439 21.1824 40.1439L21.5111 39.9392C22.4835 43.4854 21.5523 46.609 19.2781 49.0777ZM35.0321 38.4117C34.2785 40.2393 32.7033 44.9178 31.7441 44.6586C30.9224 44.4404 30.4153 40.8942 31.5795 37.3889C32.1689 35.6292 33.4157 33.5288 34.1413 32.7107C35.3194 31.4012 36.6208 30.9645 36.936 31.4968C37.3335 32.1924 35.4977 37.266 35.0321 38.4117ZM48.0324 44.6039C47.7172 44.7677 47.4158 44.8768 47.2789 44.7949C47.1831 44.7402 47.4158 44.522 47.4158 44.522C47.4158 44.522 49.0462 42.7764 49.6899 41.9852C50.0601 41.5216 50.4981 40.9761 50.964 40.3621V40.5394C50.964 42.6263 48.9367 44.0312 48.0324 44.6039ZM58.06 42.3262C57.827 42.1624 57.8682 41.6169 58.649 39.912C58.9504 39.2436 59.6626 38.1254 60.882 37.0478C61.0189 37.4842 61.115 37.9072 61.1012 38.3026C61.0874 40.9351 59.1969 41.917 58.06 42.3262Z"/>
</mask>
<path d="M69.5809 32.1924C66.9645 32.2058 64.6903 32.8332 62.7863 33.7607C62.0874 32.3831 61.3888 31.1558 61.2657 30.2555C61.1285 29.2054 60.9643 28.5642 61.1285 27.3094C61.293 26.0546 62.0328 24.2677 62.019 24.1314C62.0055 23.9951 61.8545 23.354 60.3477 23.3405C58.8409 23.3268 57.5394 23.6269 57.3887 24.0223C57.238 24.4178 56.9504 25.3181 56.7585 26.2453C56.4983 27.6095 53.745 32.4784 52.1697 35.029C51.6626 34.0336 51.2243 33.1605 51.1283 32.465C50.9914 31.4149 50.8268 30.7738 50.9914 29.5189C51.1559 28.2641 51.8956 26.4776 51.8815 26.341C51.868 26.2047 51.7173 25.5635 50.2105 25.55C48.7034 25.5363 47.402 25.8364 47.2515 26.2319C47.1008 26.6276 46.9363 27.5548 46.6214 28.4551C46.3062 29.3554 42.6486 37.4845 41.6897 39.5847C41.3022 40.4347 40.8957 41.276 40.4705 42.108C40.4705 42.108 40.4567 42.149 40.4156 42.2171C40.1553 42.7217 40.0046 42.9946 40.0046 42.9946V43.0081C39.7992 43.3766 39.5801 43.7174 39.4705 43.7174C39.3882 43.7174 39.2375 42.7354 39.4978 41.3987C40.0457 38.5755 41.3471 34.1837 41.3336 34.0336C41.3336 33.9517 41.5801 33.188 40.4843 32.7923C39.4155 32.3968 39.0322 33.0514 38.9361 33.0514C38.8403 33.0514 38.7716 33.2834 38.7716 33.2834C38.7716 33.2834 39.9637 28.346 36.4977 28.346C34.3334 28.346 31.3469 30.7056 29.8674 32.8332C28.9361 33.3381 26.9496 34.4156 24.8261 35.5748C24.0179 36.025 23.1824 36.4751 22.4016 36.8978C22.3466 36.8434 22.292 36.7749 22.2371 36.7205C18.0451 32.2605 10.2914 29.1097 10.6204 23.1223C10.7438 20.94 11.497 15.2114 25.5112 8.25555C37.0456 2.59514 46.2242 4.16351 47.8132 7.6416C50.0871 12.6065 42.8954 21.8266 30.977 23.163C26.429 23.6678 24.0453 21.9219 23.4427 21.2673C22.8126 20.5852 22.7165 20.5442 22.4835 20.6808C22.1002 20.8856 22.3466 21.4993 22.4835 21.8538C22.8399 22.781 24.3056 24.4178 26.7851 25.2227C28.977 25.9318 34.3058 26.3275 40.7581 23.8451C47.9775 21.0626 53.6216 13.3292 51.9641 6.85069C50.3063 0.276512 39.3471 -1.89236 28.977 1.77673C22.8126 3.95905 16.1273 7.39619 11.3193 11.8699C5.60647 17.189 4.70221 21.8128 5.07208 23.7497C6.40114 30.6237 15.922 35.0975 19.7302 38.4117C19.5384 38.5209 19.3601 38.6165 19.2097 38.6984C17.3054 39.6394 10.0449 43.4173 8.23668 47.4137C6.18169 51.9418 8.56571 55.1882 10.141 55.6243C15.0315 56.9748 20.059 54.5471 22.7576 50.5369C25.4563 46.5271 25.1276 41.3168 23.881 38.9301C23.8676 38.8998 23.8491 38.8721 23.8261 38.8482C24.3194 38.5618 24.8261 38.2617 25.3194 37.9753C26.226 37.4418 27.144 36.9278 28.073 36.4339C27.6071 37.7024 27.2645 39.2164 27.1003 41.3987C26.8946 43.9631 27.9493 47.2908 29.333 48.6C29.9497 49.1733 30.6756 49.1868 31.1415 49.1868C32.7579 49.1868 33.4838 47.8501 34.2923 46.2679C35.2785 44.3313 36.169 42.0808 36.169 42.0808C36.169 42.0808 35.0594 48.1639 38.0733 48.1639C39.1691 48.1639 40.2787 46.7453 40.7719 46.0225V46.036C40.7719 46.036 40.7992 45.995 40.8542 45.8997C40.9638 45.7224 41.0322 45.613 41.0322 45.613V45.5858C41.4705 44.8224 42.457 43.09 43.9227 40.2121C45.8132 36.5023 47.6352 31.8648 47.6352 31.8648C47.6352 31.8648 47.7997 32.9967 48.3608 34.8793C48.6899 35.984 49.375 37.1979 49.9229 38.3708C49.4846 38.9845 49.2105 39.3255 49.2105 39.3255L49.2243 39.3393C48.8679 39.8029 48.4845 40.3074 48.0597 40.7988C46.5664 42.5716 44.7855 44.6042 44.5391 45.1904C44.2512 45.8859 44.3199 46.3908 44.8681 46.8C45.265 47.0998 45.9774 47.1408 46.7036 47.0998C48.0462 47.0044 48.9913 46.6771 49.4569 46.4724C50.1832 46.2132 51.0325 45.8178 51.8269 45.2313C53.2928 44.1538 54.183 42.6126 54.101 40.5806C54.0599 39.4618 53.69 38.3436 53.2379 37.2932C53.3751 37.1022 53.4982 36.9115 53.6354 36.7205C55.9504 33.3515 57.7451 29.6553 57.7451 29.6553C57.7451 29.6553 57.9096 30.7872 58.471 32.6697C58.7451 33.6244 59.3065 34.6611 59.7998 35.6702C57.6217 37.4298 56.2791 39.4756 55.7997 40.8123C54.9365 43.2947 55.6078 44.4129 56.8819 44.6721C57.4572 44.7949 58.2792 44.522 58.882 44.2629C59.649 44.0175 60.5533 43.5945 61.4164 42.9671C62.8821 41.8898 64.2931 40.3893 64.2109 38.3573C64.1697 37.4298 63.923 36.5158 63.5807 35.6292C65.43 34.8658 67.8138 34.4429 70.8547 34.7974C77.3757 35.5611 78.6634 39.6119 78.4166 41.3171C78.1701 43.0218 76.8002 43.9493 76.3484 44.2357C75.896 44.5223 75.7455 44.6177 75.7867 44.8221C75.8413 45.1222 76.0605 45.1088 76.4442 45.0541C76.9782 44.9584 79.8687 43.6764 79.9921 40.5394C80.1978 36.5295 76.3619 32.1514 69.5809 32.1924ZM19.2781 49.0777C17.1135 51.4235 14.0999 52.3101 12.7985 51.5601C11.4013 50.7551 11.9492 47.2908 14.6067 44.8087C16.2231 43.2947 18.3054 41.8895 19.6891 41.0305C20.004 40.8395 20.47 40.5669 21.0317 40.2258C21.1274 40.1711 21.1824 40.1439 21.1824 40.1439L21.5111 39.9392C22.4835 43.4854 21.5523 46.609 19.2781 49.0777ZM35.0321 38.4117C34.2785 40.2393 32.7033 44.9178 31.7441 44.6586C30.9224 44.4404 30.4153 40.8942 31.5795 37.3889C32.1689 35.6292 33.4157 33.5288 34.1413 32.7107C35.3194 31.4012 36.6208 30.9645 36.936 31.4968C37.3335 32.1924 35.4977 37.266 35.0321 38.4117ZM48.0324 44.6039C47.7172 44.7677 47.4158 44.8768 47.2789 44.7949C47.1831 44.7402 47.4158 44.522 47.4158 44.522C47.4158 44.522 49.0462 42.7764 49.6899 41.9852C50.0601 41.5216 50.4981 40.9761 50.964 40.3621V40.5394C50.964 42.6263 48.9367 44.0312 48.0324 44.6039ZM58.06 42.3262C57.827 42.1624 57.8682 41.6169 58.649 39.912C58.9504 39.2436 59.6626 38.1254 60.882 37.0478C61.0189 37.4842 61.115 37.9072 61.1012 38.3026C61.0874 40.9351 59.1969 41.917 58.06 42.3262Z" fill="#CD6799" stroke="black" stroke-opacity="0.1" stroke-width="2" mask="url(#path-2-inside-1_442_4)"/>
<defs>
<radialGradient id="paint0_radial_442_4" cx="0" cy="0" r="1" gradientUnits="userSpaceOnUse" gradientTransform="translate(42.5 49.5) rotate(90) scale(11.5 42.5)">
<stop stop-color="#C766CC"/>
<stop offset="1" stop-color="#C766CC" stop-opacity="0"/>
</radialGradient>
</defs>
</svg>
