<svg width="66" height="61" viewBox="0 0 66 61" fill="none" xmlns="http://www.w3.org/2000/svg">
<rect y="38" width="66" height="23" rx="2" fill="url(#paint0_radial_613_2)"/>
<path d="M14.4842 20.4243H59.1364V53.4285H14.4842V20.4243Z" fill="white"/>
<path d="M5 28V56H61V0H5V28ZM50.127 25.76C51.4683 26.0713 52.6873 26.7728 53.6304 27.776C54.1496 28.3165 54.6009 28.9183 54.9744 29.568C54.9744 29.6397 52.5552 31.2749 51.0813 32.1888C51.0275 32.2246 50.8125 31.9917 50.575 31.6378C50.306 31.1735 49.9237 30.7849 49.4638 30.5084C49.0039 30.2319 48.4815 30.0763 47.9453 30.0563C46.2474 29.9398 45.1542 30.8314 45.1632 32.2963C45.1492 32.6611 45.2327 33.0229 45.4051 33.3446C45.777 34.1197 46.4714 34.5811 48.6486 35.5219C52.6582 37.2467 54.3741 38.3846 55.4403 40.0019C56.632 41.7939 56.8963 44.688 56.0899 46.8294C55.1939 49.159 52.9987 50.7405 49.8941 51.2646C48.4761 51.4271 47.0434 51.412 45.6291 51.2198C43.4615 50.8625 41.4649 49.8218 39.9306 48.2496C39.4154 47.6806 38.4118 46.1978 38.4746 46.0902C38.6381 45.9688 38.8103 45.8595 38.9898 45.7632L41.064 44.6163L42.6723 43.6845L43.0083 44.1818C43.5754 44.9929 44.297 45.6841 45.1318 46.2157C46.9238 47.1565 49.3699 47.0266 50.5795 45.9379C50.9856 45.539 51.239 45.0103 51.2955 44.4438C51.352 43.8774 51.208 43.309 50.8886 42.8378C50.4406 42.215 49.5446 41.6909 47.0403 40.5978C44.1507 39.3523 42.9053 38.5818 41.7674 37.3542C41.057 36.5442 40.5325 35.5885 40.2307 34.5542C40.0056 33.3726 39.9723 32.1624 40.1322 30.9702C40.728 28.1792 42.8202 26.2304 45.8755 25.6525C47.2905 25.4774 48.7238 25.5167 50.127 25.769V25.76ZM36.9827 28.1075V30.4013H29.7117V51.1123H24.5552V30.3968H17.2662V28.1568C17.2435 27.3843 17.2615 26.6112 17.32 25.8406C17.3558 25.8003 21.8 25.8003 27.176 25.8003H36.9558L36.9827 28.1075Z" fill="#007ACC"/>
<defs>
<radialGradient id="paint0_radial_613_2" cx="0" cy="0" r="1" gradientUnits="userSpaceOnUse" gradientTransform="translate(33 49) rotate(90) scale(13.5 37.0207)">
<stop stop-color="#285777"/>
<stop offset="1" stop-color="#285777" stop-opacity="0"/>
</radialGradient>
</defs>
</svg>
