<svg width="66" height="61" viewBox="0 0 66 61" fill="none" xmlns="http://www.w3.org/2000/svg">
<rect y="38" width="66" height="23" rx="2" fill="url(#paint0_radial_447_78)"/>
<mask id="mask0_447_78" style="mask-type:luminance" maskUnits="userSpaceOnUse" x="5" y="0" width="56" height="56">
<path d="M44.7106 55.7607C45.1562 55.9353 45.6328 56.0159 46.1107 55.9975C46.5886 55.979 47.0577 55.8619 47.4886 55.6534L59.0181 50.077C59.6119 49.7896 60.1129 49.3396 60.4635 48.7786C60.8141 48.2177 61.0001 47.5687 61 46.9062V9.09388C61.0001 8.43146 60.8141 7.78248 60.4635 7.22159C60.1129 6.6607 59.6119 6.2107 59.0181 5.92336L47.4888 0.346732C46.8374 0.031623 46.1046 -0.0721291 45.3918 0.049837C44.6791 0.171803 44.0218 0.513455 43.5107 1.0275L21.4389 21.2685L11.8246 13.9328C11.391 13.6019 10.8557 13.434 10.3118 13.4583C9.76786 13.4826 9.24956 13.6976 8.84681 14.0659L5.76335 16.8854C4.74658 17.815 4.74548 19.4229 5.76071 20.354L14.0984 28.0001L5.76071 35.6459C4.74548 36.5772 4.74658 38.1849 5.76335 39.1147L8.84681 41.934C9.24953 42.3023 9.76782 42.5173 10.3118 42.5417C10.8557 42.566 11.3909 42.3982 11.8246 42.0673L21.4389 34.7314L43.5107 54.9724C43.852 55.316 44.2606 55.5844 44.7106 55.7607V55.7607ZM47.0086 15.2215L30.2611 28.0001L47.0086 40.7784V15.2215Z" fill="white"/>
</mask>
<g mask="url(#mask0_447_78)">
<path d="M59.0523 5.93194L47.5139 0.347591C46.8622 0.0322267 46.1292 -0.0717464 45.4162 0.0500591C44.7031 0.171865 44.0454 0.513426 43.534 1.02748L5.76116 35.6459C4.74527 36.5772 4.74658 38.1849 5.76379 39.1146L8.84923 41.934C9.25231 42.3024 9.77093 42.5174 10.3152 42.5417C10.8594 42.5661 11.395 42.3983 11.829 42.0673L57.3161 7.38067C58.8422 6.21714 61.034 7.31114 61.034 9.23646V9.10181C61.034 8.43951 60.8481 7.79067 60.4975 7.22991C60.1469 6.66915 59.646 6.21925 59.0523 5.93194Z" fill="#0065A9"/>
</g>
<mask id="mask1_447_78" style="mask-type:luminance" maskUnits="userSpaceOnUse" x="5" y="0" width="56" height="56">
<path d="M44.7106 55.7607C45.1562 55.9353 45.6328 56.0159 46.1107 55.9975C46.5886 55.979 47.0577 55.8619 47.4886 55.6534L59.0181 50.077C59.6119 49.7896 60.1129 49.3396 60.4635 48.7786C60.8141 48.2177 61.0001 47.5687 61 46.9062V9.09388C61.0001 8.43146 60.8141 7.78248 60.4635 7.22159C60.1129 6.6607 59.6119 6.2107 59.0181 5.92336L47.4888 0.346732C46.8374 0.031623 46.1046 -0.0721291 45.3918 0.049837C44.6791 0.171803 44.0218 0.513455 43.5107 1.0275L21.4389 21.2685L11.8246 13.9328C11.391 13.6019 10.8557 13.434 10.3118 13.4583C9.76786 13.4826 9.24956 13.6976 8.84681 14.0659L5.76335 16.8854C4.74658 17.815 4.74548 19.4229 5.76071 20.354L14.0984 28.0001L5.76071 35.6459C4.74548 36.5772 4.74658 38.1849 5.76335 39.1147L8.84681 41.934C9.24953 42.3023 9.76782 42.5173 10.3118 42.5417C10.8557 42.566 11.3909 42.3982 11.8246 42.0673L21.4389 34.7314L43.5107 54.9724C43.852 55.316 44.2606 55.5844 44.7106 55.7607V55.7607ZM47.0086 15.2215L30.2611 28.0001L47.0086 40.7784V15.2215Z" fill="white"/>
</mask>
<g mask="url(#mask1_447_78)">
<path d="M59.0523 50.0679L47.5139 55.6523C46.8622 55.9676 46.1292 56.0715 45.4162 55.9497C44.7032 55.8279 44.0454 55.4864 43.534 54.9724L5.76116 20.354C4.74527 19.4229 4.74658 17.815 5.76379 16.8854L8.84923 14.0659C9.25234 13.6975 9.77097 13.4826 10.3152 13.4582C10.8595 13.4339 11.395 13.6018 11.829 13.9328L57.3161 48.6192C58.8422 49.7827 61.034 48.6887 61.034 46.7632V46.8981C61.034 47.5604 60.848 48.2092 60.4974 48.7699C60.1469 49.3307 59.646 49.7806 59.0523 50.0679Z" fill="#007ACC"/>
</g>
<mask id="mask2_447_78" style="mask-type:luminance" maskUnits="userSpaceOnUse" x="5" y="0" width="56" height="56">
<path d="M44.7106 55.7607C45.1562 55.9353 45.6328 56.0159 46.1107 55.9975C46.5886 55.979 47.0577 55.8619 47.4886 55.6534L59.0181 50.077C59.6119 49.7896 60.1129 49.3396 60.4635 48.7786C60.8141 48.2177 61.0001 47.5687 61 46.9062V9.09388C61.0001 8.43146 60.8141 7.78248 60.4635 7.22159C60.1129 6.6607 59.6119 6.2107 59.0181 5.92336L47.4888 0.346732C46.8374 0.031623 46.1046 -0.0721291 45.3918 0.049837C44.6791 0.171803 44.0218 0.513455 43.5107 1.0275L21.4389 21.2685L11.8246 13.9328C11.391 13.6019 10.8557 13.434 10.3118 13.4583C9.76786 13.4826 9.24956 13.6976 8.84681 14.0659L5.76335 16.8854C4.74658 17.815 4.74548 19.4229 5.76071 20.354L14.0984 28.0001L5.76071 35.6459C4.74548 36.5772 4.74658 38.1849 5.76335 39.1147L8.84681 41.934C9.24953 42.3023 9.76782 42.5173 10.3118 42.5417C10.8557 42.566 11.3909 42.3982 11.8246 42.0673L21.4389 34.7314L43.5107 54.9724C43.852 55.316 44.2606 55.5844 44.7106 55.7607V55.7607ZM47.0086 15.2215L30.2611 28.0001L47.0086 40.7784V15.2215Z" fill="white"/>
</mask>
<g mask="url(#mask2_447_78)">
<path d="M47.4776 55.6569C46.8258 55.9721 46.0927 56.0758 45.3796 55.9539C44.6665 55.8319 44.0088 55.4903 43.4973 54.9762C44.7888 56.2741 46.9974 55.3548 46.9974 53.5186V2.48841C46.9974 0.652275 44.7888 -0.267119 43.4973 1.03107C44.0088 0.516976 44.6665 0.175328 45.3796 0.0533702C46.0927 -0.0685875 46.8258 0.0351716 47.4776 0.350299L59.0141 5.92692C59.6081 6.21407 60.1094 6.66399 60.4602 7.2249C60.8111 7.78581 60.9972 8.4349 60.9972 9.09745V46.91C60.9972 48.2621 60.2263 49.4947 59.0141 50.0805L47.4776 55.6569Z" fill="#1F9CF0"/>
</g>
<mask id="mask3_447_78" style="mask-type:luminance" maskUnits="userSpaceOnUse" x="5" y="0" width="56" height="56">
<path d="M44.7106 55.7607C45.1562 55.9353 45.6328 56.0159 46.1107 55.9975C46.5886 55.979 47.0577 55.8619 47.4886 55.6534L59.0181 50.077C59.6119 49.7896 60.1129 49.3396 60.4635 48.7786C60.8141 48.2177 61.0001 47.5687 61 46.9062V9.09388C61.0001 8.43146 60.8141 7.78248 60.4635 7.22159C60.1129 6.6607 59.6119 6.2107 59.0181 5.92336L47.4888 0.346732C46.8374 0.031623 46.1046 -0.0721291 45.3918 0.049837C44.6791 0.171803 44.0218 0.513455 43.5107 1.0275L21.4389 21.2685L11.8246 13.9328C11.391 13.6019 10.8557 13.434 10.3118 13.4583C9.76786 13.4826 9.24956 13.6976 8.84681 14.0659L5.76335 16.8854C4.74658 17.815 4.74548 19.4229 5.76071 20.354L14.0984 28.0001L5.76071 35.6459C4.74548 36.5772 4.74658 38.1849 5.76335 39.1147L8.84681 41.934C9.24953 42.3023 9.76782 42.5173 10.3118 42.5417C10.8557 42.566 11.3909 42.3982 11.8246 42.0673L21.4389 34.7314L43.5107 54.9724C43.852 55.316 44.2606 55.5844 44.7106 55.7607V55.7607ZM47.0086 15.2215L30.2611 28.0001L47.0086 40.7784V15.2215Z" fill="white"/>
</mask>
<g mask="url(#mask3_447_78)">
<path d="M44.7106 55.7607C45.1562 55.9353 45.6328 56.0159 46.1107 55.9975C46.5886 55.979 47.0576 55.8619 47.4886 55.6534L59.0178 50.0768C59.6117 49.7895 60.1127 49.3395 60.4634 48.7786C60.8141 48.2177 61 47.5687 61 46.9063V9.09391C61 8.43149 60.8141 7.7825 60.4635 7.22162C60.1128 6.66073 59.6118 6.21073 59.018 5.92338L47.4884 0.346539C46.8369 0.0314799 46.1042 -0.0722447 45.3915 0.0497202C44.6788 0.171685 44.0215 0.513308 43.5105 1.02731L21.4389 21.2685L11.8246 13.9328C11.3909 13.6019 10.8557 13.434 10.3118 13.4584C9.76783 13.4827 9.24953 13.6976 8.84678 14.0659L5.76332 16.8855C4.74655 17.815 4.74545 19.4229 5.76068 20.354L14.0984 28.0001L5.76068 35.646C4.74545 36.5773 4.74655 38.1849 5.76332 39.1147L8.84678 41.934C9.2495 42.3024 9.76779 42.5173 10.3117 42.5417C10.8557 42.5661 11.3909 42.3982 11.8246 42.0674L21.4389 34.7314L43.5105 54.9724C43.8518 55.316 44.2605 55.5844 44.7106 55.7607ZM47.0085 15.2213L30.2611 28.0001L47.0085 40.7784V15.2213Z" fill="url(#paint1_linear_447_78)" fill-opacity="0.25"/>
</g>
<defs>
<radialGradient id="paint0_radial_447_78" cx="0" cy="0" r="1" gradientUnits="userSpaceOnUse" gradientTransform="translate(33 49.5) rotate(90) scale(11.5 33)">
<stop stop-color="#1F5AF0"/>
<stop offset="1" stop-color="#1F5AF0" stop-opacity="0"/>
</radialGradient>
<linearGradient id="paint1_linear_447_78" x1="33.0001" y1="-2.74547e-05" x2="33.0001" y2="56.0001" gradientUnits="userSpaceOnUse">
<stop stop-color="white"/>
<stop offset="1" stop-color="white" stop-opacity="0"/>
</linearGradient>
</defs>
</svg>
