<svg id="svg" version="1.1" xmlns="http://www.w3.org/2000/svg" xmlns:xlink="http://www.w3.org/1999/xlink" width="400" height="400" viewBox="0, 0, 400,400"><g id="svgg"><path id="path0" d="M185.744 40.543 C 177.539 46.642,165.090 62.752,158.035 76.400 C 155.498 81.308,157.416 78.467,160.608 72.590 C 167.380 60.119,179.086 45.749,187.100 40.067 L 188.400 39.146 188.400 45.427 C 188.400 48.881,188.578 52.809,188.795 54.154 C 189.012 55.499,189.296 57.471,189.425 58.537 C 189.554 59.602,189.753 60.381,189.866 60.268 C 189.979 60.154,189.775 57.740,189.413 54.903 C 188.998 51.652,188.800 47.720,188.877 44.272 C 189.019 37.968,189.091 38.054,185.744 40.543 M199.819 54.412 C 194.804 58.173,190.550 61.093,190.306 60.942 C 190.009 60.759,189.961 60.920,190.158 61.434 C 190.319 61.855,190.726 63.550,191.062 65.200 C 192.591 72.718,194.658 79.921,197.834 88.800 C 200.075 95.064,205.171 107.119,205.187 106.192 C 205.206 105.001,218.450 92.317,219.049 92.915 C 219.147 93.014,217.706 96.673,215.845 101.047 C 213.984 105.421,211.847 110.493,211.095 112.318 C 209.523 116.136,209.690 116.196,207.187 110.913 C 206.226 108.886,205.367 107.300,205.277 107.389 C 205.188 107.479,206.129 109.654,207.368 112.222 L 209.622 116.893 208.461 119.946 C 200.427 141.078,199.519 155.467,204.442 183.600 C 207.235 199.555,207.604 201.960,208.032 206.964 C 209.212 220.752,204.593 236.338,194.619 252.223 C 191.762 256.774,191.654 256.342,197.099 262.133 L 198.917 264.066 207.559 263.846 C 219.518 263.542,227.675 262.634,238.200 260.435 C 240.784 259.895,243.537 259.210,244.800 258.794 C 245.350 258.612,246.880 258.150,248.200 257.766 C 249.520 257.383,250.780 256.940,251.000 256.783 C 251.220 256.626,251.850 256.362,252.400 256.196 C 252.950 256.030,254.718 255.288,256.329 254.547 C 257.940 253.806,259.345 253.200,259.450 253.200 C 259.556 253.200,260.305 252.750,261.114 252.200 C 261.923 251.650,262.824 251.200,263.114 251.200 C 264.762 251.200,272.825 243.892,275.469 240.000 C 278.793 235.109,282.956 222.868,280.853 224.167 C 280.604 224.321,280.400 225.236,280.400 226.200 C 280.400 227.164,280.237 228.054,280.037 228.177 C 279.838 228.300,279.551 229.301,279.400 230.400 C 279.249 231.500,278.962 232.400,278.762 232.400 C 278.563 232.400,278.400 232.657,278.400 232.971 C 278.400 235.955,270.995 245.224,265.519 249.093 L 263.689 250.386 263.424 249.093 C 263.278 248.382,262.997 246.090,262.799 244.000 C 262.601 241.910,262.254 239.300,262.028 238.200 C 261.802 237.100,261.520 235.480,261.401 234.600 C 261.282 233.720,260.913 231.200,260.580 229.000 C 260.247 226.800,259.881 224.190,259.766 223.200 C 259.652 222.210,259.404 221.040,259.214 220.600 C 259.025 220.160,258.676 218.270,258.437 216.400 C 258.198 214.530,257.817 212.010,257.590 210.800 C 257.363 209.590,256.901 206.800,256.563 204.600 C 256.225 202.400,255.777 199.610,255.566 198.400 C 254.891 194.508,253.405 183.104,253.013 178.800 C 251.936 166.960,251.888 161.849,252.781 153.922 L 253.669 146.044 252.461 144.322 C 251.796 143.375,250.824 142.116,250.300 141.524 C 249.776 140.932,248.999 139.967,248.574 139.379 C 248.148 138.792,247.609 138.106,247.375 137.856 C 247.141 137.605,245.978 136.050,244.790 134.400 C 243.602 132.750,242.527 131.310,242.402 131.200 C 242.276 131.090,241.553 130.010,240.794 128.800 C 240.035 127.590,239.276 126.540,239.107 126.467 C 238.938 126.393,238.800 126.093,238.800 125.800 C 238.800 125.507,238.659 125.207,238.487 125.133 C 238.156 124.993,234.800 119.775,234.800 119.402 C 234.800 119.282,234.317 118.423,233.726 117.492 C 232.252 115.170,229.604 109.911,229.602 109.300 C 229.601 109.025,229.462 108.800,229.294 108.800 C 228.973 108.800,227.600 105.880,227.600 105.197 C 227.600 104.979,227.420 104.800,227.200 104.800 C 226.980 104.800,226.800 104.440,226.800 104.000 C 226.800 103.560,226.628 103.200,226.418 103.200 C 226.208 103.200,225.918 102.570,225.774 101.800 C 225.629 101.030,225.351 100.400,225.155 100.400 C 224.960 100.400,224.800 100.158,224.800 99.861 C 224.800 99.360,224.043 97.517,223.174 95.905 C 222.968 95.523,222.800 94.938,222.800 94.605 C 222.800 94.272,222.636 94.000,222.435 94.000 C 222.234 94.000,221.949 93.280,221.800 92.400 C 221.651 91.520,221.385 90.800,221.209 90.800 C 220.533 90.800,218.594 85.680,215.226 75.000 C 214.515 72.745,212.669 65.471,211.673 61.000 C 211.175 58.765,210.166 52.799,209.796 49.909 C 209.441 47.137,209.642 47.046,199.819 54.412 M153.894 84.251 C 150.901 90.317,150.703 90.800,151.213 90.800 C 151.426 90.800,151.600 90.593,151.600 90.341 C 151.600 90.088,152.775 87.543,154.212 84.686 C 155.649 81.829,156.737 79.403,156.630 79.296 C 156.523 79.189,155.291 81.419,153.894 84.251 M149.823 92.870 C 149.406 93.822,148.552 95.751,147.924 97.158 C 147.296 98.564,146.871 99.804,146.980 99.913 C 147.089 100.022,147.342 99.681,147.542 99.155 C 147.743 98.630,148.564 96.779,149.367 95.041 C 150.170 93.304,150.772 91.715,150.704 91.511 C 150.636 91.307,150.239 91.919,149.823 92.870 M145.670 102.415 C 145.171 103.559,144.845 104.579,144.947 104.681 C 145.195 104.928,146.852 101.157,146.699 100.696 C 146.632 100.497,146.170 101.271,145.670 102.415 M143.650 107.450 C 143.173 108.696,142.872 109.805,142.980 109.914 C 143.089 110.022,143.367 109.591,143.600 108.955 C 143.832 108.320,144.221 107.299,144.465 106.687 C 144.708 106.075,144.820 105.486,144.712 105.379 C 144.605 105.272,144.127 106.204,143.650 107.450 M142.301 110.883 C 141.627 112.647,137.228 125.177,136.994 126.000 C 136.385 128.143,137.503 126.101,138.308 123.600 C 139.011 121.415,140.395 117.526,142.479 111.880 C 142.706 111.263,142.804 110.671,142.696 110.562 C 142.587 110.454,142.410 110.598,142.301 110.883 M135.668 129.770 C 135.191 131.290,134.886 132.619,134.991 132.724 C 135.095 132.829,135.256 132.664,135.346 132.357 C 135.437 132.051,135.817 130.945,136.189 129.900 C 136.562 128.854,136.792 127.776,136.701 127.503 C 136.610 127.230,136.145 128.250,135.668 129.770 M133.245 137.182 C 132.516 139.421,132.000 141.334,132.098 141.432 C 132.353 141.686,134.881 134.043,134.711 133.534 C 134.634 133.301,133.974 134.943,133.245 137.182 M130.446 145.667 C 130.421 146.034,130.296 146.664,130.170 147.067 C 129.952 147.762,129.963 147.763,130.397 147.087 C 130.648 146.696,130.773 146.066,130.673 145.687 C 130.511 145.068,130.488 145.066,130.446 145.667 M129.451 148.843 C 128.238 152.878,127.947 154.080,128.136 154.270 C 128.260 154.393,128.480 153.978,128.624 153.347 C 128.769 152.716,129.144 151.411,129.457 150.447 C 129.770 149.482,129.935 148.602,129.823 148.489 C 129.711 148.377,129.543 148.536,129.451 148.843 M109.370 150.619 C 109.224 151.399,109.008 151.942,108.892 151.825 C 108.498 151.431,107.626 152.991,107.613 154.113 C 107.606 154.724,107.330 155.329,107.000 155.455 C 106.670 155.582,106.400 155.857,106.400 156.066 C 106.400 156.276,106.580 156.336,106.800 156.200 C 107.020 156.064,107.200 156.100,107.200 156.280 C 107.200 156.460,106.840 156.832,106.400 157.107 C 105.895 157.423,105.600 158.040,105.600 158.784 C 105.600 159.480,105.315 160.128,104.900 160.373 C 104.289 160.733,104.277 160.837,104.800 161.187 C 105.203 161.456,105.236 161.590,104.900 161.594 C 104.625 161.597,104.400 161.945,104.400 162.367 C 104.400 162.788,104.196 163.201,103.947 163.284 C 103.698 163.367,103.449 164.018,103.393 164.731 C 103.334 165.484,102.911 166.357,102.384 166.814 C 101.886 167.246,101.685 167.600,101.939 167.600 C 102.192 167.600,102.400 167.791,102.400 168.024 C 102.400 168.257,102.220 168.336,102.000 168.200 C 101.780 168.064,101.600 168.311,101.600 168.748 C 101.600 169.185,101.330 169.813,101.000 170.143 C 100.322 170.821,100.193 171.375,100.800 171.000 C 101.020 170.864,101.200 170.943,101.200 171.176 C 101.200 171.409,101.020 171.600,100.800 171.600 C 100.580 171.600,100.400 171.960,100.400 172.400 C 100.400 172.840,100.240 173.200,100.045 173.200 C 99.850 173.200,99.569 174.010,99.421 175.000 C 99.272 175.990,98.982 176.800,98.775 176.800 C 98.569 176.800,98.400 177.261,98.400 177.824 C 98.400 178.404,98.227 178.740,98.000 178.600 C 97.774 178.460,97.600 178.786,97.600 179.348 C 97.600 179.895,97.329 180.614,96.997 180.946 C 96.600 181.343,96.538 181.638,96.817 181.810 C 97.080 181.973,96.920 182.349,96.394 182.806 C 95.928 183.209,95.582 183.598,95.625 183.670 C 95.855 184.055,95.069 188.000,94.762 188.000 C 94.563 188.000,94.400 188.461,94.400 189.024 C 94.400 189.587,94.240 189.949,94.046 189.828 C 93.851 189.708,93.568 190.597,93.417 191.805 C 93.266 193.012,92.975 194.000,92.771 194.000 C 92.567 194.000,92.400 194.450,92.400 195.000 C 92.400 195.550,92.233 196.000,92.029 196.000 C 91.825 196.000,91.534 196.990,91.383 198.200 C 91.232 199.410,90.992 200.400,90.850 200.400 C 90.708 200.400,90.356 200.779,90.067 201.242 C 89.778 201.705,89.734 201.964,89.970 201.818 C 90.207 201.672,90.400 201.743,90.400 201.976 C 90.400 202.209,90.220 202.400,90.000 202.400 C 89.780 202.400,89.600 202.900,89.600 203.511 C 89.600 204.122,89.330 205.007,89.001 205.478 C 88.536 206.141,88.514 206.386,88.901 206.567 C 89.300 206.753,89.300 206.847,88.900 207.033 C 88.625 207.162,88.400 207.777,88.400 208.400 C 88.400 209.023,88.224 209.593,88.009 209.667 C 87.795 209.740,87.529 210.507,87.419 211.371 C 87.309 212.235,87.014 213.068,86.764 213.222 C 86.442 213.421,86.468 213.561,86.855 213.702 C 87.292 213.861,87.301 214.005,86.900 214.430 C 86.625 214.721,86.400 215.565,86.400 216.304 C 86.400 217.043,86.245 217.551,86.055 217.434 C 85.865 217.316,85.598 218.160,85.462 219.308 C 85.326 220.456,85.031 221.456,84.807 221.531 C 84.583 221.606,84.400 221.842,84.400 222.057 C 84.400 222.272,84.593 222.328,84.830 222.182 C 85.136 221.993,85.136 222.158,84.830 222.758 C 84.593 223.221,84.207 223.979,83.970 224.442 C 83.664 225.042,83.664 225.207,83.970 225.018 C 84.207 224.872,84.400 225.018,84.400 225.343 C 84.400 225.668,84.216 225.995,83.991 226.070 C 83.767 226.144,83.481 227.644,83.356 229.403 C 83.231 231.161,82.965 232.660,82.764 232.733 C 82.564 232.807,82.400 233.176,82.400 233.553 C 82.400 233.931,82.175 234.482,81.900 234.779 C 81.500 235.210,81.500 235.261,81.900 235.035 C 82.245 234.841,82.400 235.078,82.400 235.800 C 82.400 236.396,82.228 236.741,82.000 236.600 C 81.780 236.464,81.587 236.768,81.571 237.276 C 81.455 240.991,81.211 242.904,80.791 243.411 C 80.449 243.823,80.437 244.000,80.751 244.000 C 81.307 244.000,81.350 246.260,80.800 246.600 C 80.580 246.736,80.400 247.452,80.400 248.190 C 80.400 248.929,80.175 249.624,79.900 249.735 C 79.500 249.896,79.500 249.943,79.900 249.968 C 80.233 249.989,80.398 250.700,80.394 252.100 C 80.389 253.603,80.278 254.030,80.000 253.600 C 79.744 253.204,79.612 256.327,79.612 262.800 C 79.612 269.273,79.744 272.396,80.000 272.000 C 80.279 271.568,80.389 271.963,80.394 273.405 L 80.400 275.411 85.500 280.431 C 93.128 287.940,99.715 292.664,109.501 297.645 C 114.166 300.020,114.777 300.239,114.599 299.472 C 112.702 291.305,112.108 254.465,113.597 237.400 C 113.808 234.980,114.186 230.300,114.437 227.000 C 114.952 220.217,115.281 217.073,116.194 210.200 C 116.545 207.560,116.938 204.452,117.066 203.293 C 117.195 202.134,117.458 201.088,117.650 200.969 C 118.167 200.649,118.075 199.183,117.545 199.300 C 116.979 199.425,116.700 198.447,115.236 191.200 C 112.859 179.435,111.527 168.520,110.990 156.400 C 110.667 149.110,110.060 146.943,109.370 150.619 M127.449 155.815 C 127.312 156.173,127.215 156.766,127.234 157.133 C 127.253 157.500,127.427 157.269,127.621 156.620 C 127.998 155.358,127.865 154.733,127.449 155.815 M126.449 159.200 C 126.416 159.530,126.289 160.250,126.167 160.800 C 125.975 161.664,126.007 161.703,126.399 161.088 C 126.648 160.697,126.775 159.977,126.681 159.488 C 126.586 159.000,126.482 158.870,126.449 159.200 M125.464 163.100 C 124.969 164.925,124.808 166.168,125.139 165.600 C 125.534 164.925,126.068 162.400,125.817 162.400 C 125.727 162.400,125.569 162.715,125.464 163.100 M124.250 167.650 C 123.917 169.317,124.240 169.640,124.600 168.000 C 124.752 167.309,124.793 166.659,124.691 166.558 C 124.589 166.456,124.391 166.947,124.250 167.650 M123.422 170.900 C 123.338 171.175,123.167 172.030,123.041 172.800 C 122.758 174.545,123.387 173.546,123.735 171.700 C 123.970 170.453,123.739 169.863,123.422 170.900 M122.449 175.000 C 122.416 175.440,122.296 176.250,122.183 176.800 L 121.977 177.800 122.406 176.819 C 122.642 176.279,122.761 175.469,122.672 175.019 C 122.513 174.221,122.507 174.221,122.449 175.000 M121.408 179.800 C 120.847 182.501,120.797 182.987,121.140 182.400 C 121.526 181.741,122.050 178.800,121.782 178.800 C 121.690 178.800,121.522 179.250,121.408 179.800 M120.454 184.000 C 120.419 184.550,120.296 185.450,120.183 186.000 L 119.977 187.000 120.407 186.015 C 120.643 185.474,120.765 184.574,120.678 184.015 L 120.520 183.000 120.454 184.000 M272.226 185.700 C 272.380 186.195,272.662 186.660,272.853 186.733 C 273.044 186.807,273.200 187.139,273.200 187.472 C 273.200 187.804,273.454 188.554,273.764 189.138 C 274.672 190.847,275.600 193.085,275.600 193.566 C 275.600 193.811,275.759 194.323,275.953 194.705 C 276.936 196.637,278.400 201.107,278.400 202.175 C 278.400 202.519,278.547 202.800,278.726 202.800 C 279.063 202.800,279.882 207.018,280.259 210.700 C 280.377 211.855,280.637 212.800,280.837 212.800 C 282.321 212.800,278.494 198.306,274.817 190.000 C 273.892 187.910,273.039 185.885,272.921 185.500 C 272.803 185.115,272.536 184.800,272.326 184.800 C 272.116 184.800,272.071 185.202,272.226 185.700 M279.122 190.764 C 290.528 201.560,298.396 210.404,304.213 218.968 C 305.493 220.852,306.611 222.323,306.697 222.236 C 308.033 220.900,276.093 185.200,273.561 185.200 C 273.387 185.200,275.889 187.704,279.122 190.764 M119.449 189.015 C 119.312 189.373,119.223 190.236,119.250 190.933 C 119.292 191.987,119.350 191.898,119.599 190.400 C 119.917 188.486,119.859 187.948,119.449 189.015 M118.460 194.450 C 118.427 195.028,118.311 196.108,118.201 196.850 L 118.003 198.200 118.424 196.857 C 118.655 196.119,118.772 195.039,118.682 194.457 L 118.520 193.400 118.460 194.450 M281.357 218.400 C 281.357 221.370,281.420 222.585,281.497 221.100 C 281.574 219.615,281.574 217.185,281.497 215.700 C 281.420 214.215,281.357 215.430,281.357 218.400 M307.506 224.000 C 309.200 226.859,311.049 230.223,311.330 230.957 C 311.489 231.374,311.719 231.615,311.841 231.492 C 311.963 231.370,311.480 230.219,310.766 228.935 C 310.053 227.651,309.123 225.970,308.699 225.200 C 308.276 224.430,307.647 223.530,307.303 223.200 C 306.910 222.824,306.986 223.122,307.506 224.000 M312.000 232.149 C 312.000 232.589,313.693 236.040,313.838 235.895 C 314.033 235.700,312.459 232.000,312.181 232.000 C 312.082 232.000,312.000 232.067,312.000 232.149 M314.258 237.198 C 314.400 237.747,314.850 238.917,315.259 239.798 C 315.667 240.679,315.885 240.951,315.742 240.402 C 315.600 239.853,315.150 238.683,314.741 237.802 C 314.333 236.921,314.115 236.649,314.258 237.198 M316.056 242.000 C 316.056 242.330,316.211 242.960,316.400 243.400 C 316.617 243.904,316.744 243.978,316.744 243.600 C 316.744 243.270,316.589 242.640,316.400 242.200 C 316.183 241.696,316.056 241.622,316.056 242.000 M317.067 245.600 C 317.451 247.716,318.067 248.943,317.771 247.000 C 317.637 246.120,317.366 245.130,317.170 244.800 C 316.942 244.416,316.905 244.705,317.067 245.600 M318.053 249.400 C 318.076 249.840,318.232 250.740,318.400 251.400 L 318.705 252.600 318.747 251.200 C 318.769 250.430,318.613 249.530,318.400 249.200 C 318.081 248.706,318.020 248.742,318.053 249.400 M318.940 254.249 C 319.064 255.102,319.281 256.745,319.421 257.900 C 319.706 260.258,320.400 260.754,320.400 258.600 C 320.400 257.830,320.220 257.200,320.000 257.200 C 319.780 257.200,319.600 256.311,319.600 255.224 C 319.600 254.137,319.400 253.124,319.156 252.973 C 318.847 252.782,318.781 253.168,318.940 254.249 M319.600 272.606 C 319.600 275.282,308.897 285.456,299.511 291.702 C 297.153 293.272,295.307 294.640,295.409 294.742 C 295.661 294.994,298.400 293.498,298.400 293.109 C 298.400 292.939,298.631 292.800,298.913 292.800 C 299.195 292.800,299.870 292.452,300.413 292.026 C 300.956 291.601,302.570 290.389,304.000 289.334 C 305.430 288.278,306.809 287.232,307.065 287.007 C 307.321 286.783,308.131 286.150,308.864 285.600 C 311.207 283.842,318.800 275.980,318.800 275.311 C 318.800 274.957,318.911 274.778,319.048 274.914 C 319.184 275.050,319.544 274.913,319.848 274.610 C 320.480 273.977,320.604 271.200,320.000 271.200 C 319.780 271.200,319.600 271.833,319.600 272.606 M319.896 275.733 C 319.433 276.879,319.516 277.844,320.034 277.326 C 320.272 277.088,320.406 276.467,320.330 275.946 C 320.209 275.113,320.157 275.088,319.896 275.733 M318.800 282.200 C 318.800 282.530,318.980 282.800,319.200 282.800 C 319.420 282.800,319.600 282.530,319.600 282.200 C 319.600 281.870,319.420 281.600,319.200 281.600 C 318.980 281.600,318.800 281.870,318.800 282.200 M289.800 297.368 C 284.325 300.228,277.791 303.030,271.400 305.258 C 268.298 306.340,267.526 306.720,268.785 306.547 C 269.766 306.412,270.891 306.143,271.285 305.951 C 271.678 305.758,272.321 305.443,272.713 305.251 C 273.105 305.059,274.044 304.766,274.800 304.600 C 275.556 304.434,276.495 304.141,276.887 303.949 C 277.279 303.757,277.921 303.443,278.313 303.251 C 278.705 303.059,279.605 302.775,280.313 302.619 C 281.021 302.464,281.600 302.171,281.600 301.968 C 281.600 301.766,281.842 301.600,282.139 301.600 C 282.435 301.600,283.200 301.352,283.839 301.050 C 284.477 300.747,285.585 300.253,286.300 299.952 C 287.015 299.651,287.600 299.269,287.600 299.102 C 287.600 298.936,287.798 298.800,288.040 298.800 C 288.520 298.800,291.278 297.577,291.600 297.221 C 291.710 297.099,292.475 296.657,293.300 296.237 C 294.125 295.817,294.800 295.322,294.800 295.137 C 294.800 294.712,295.359 294.463,289.800 297.368 M115.000 302.200 C 115.641 307.009,116.988 313.285,116.631 309.800 C 116.327 306.824,115.511 302.205,115.148 301.400 C 114.891 300.830,114.849 301.060,115.000 302.200 M264.797 307.174 C 264.246 307.341,263.220 307.776,262.517 308.139 C 261.815 308.503,260.791 308.800,260.243 308.800 C 259.696 308.800,259.151 308.956,259.033 309.147 C 258.915 309.338,257.959 309.611,256.909 309.754 C 253.139 310.266,253.119 310.238,259.874 314.040 C 260.575 314.434,261.873 315.215,262.760 315.775 C 264.152 316.653,272.630 320.800,273.034 320.800 C 273.113 320.800,274.128 321.229,275.289 321.753 C 280.954 324.310,288.472 326.895,295.320 328.641 C 297.477 329.191,299.512 329.745,299.844 329.872 C 300.237 330.023,300.525 329.807,300.671 329.252 C 300.793 328.783,301.033 328.400,301.204 328.400 C 301.375 328.400,301.624 328.085,301.759 327.700 C 301.908 327.274,301.619 327.430,301.021 328.100 C 300.069 329.166,298.400 329.612,298.400 328.800 C 298.400 328.580,297.781 328.400,297.024 328.400 C 296.267 328.400,295.549 328.241,295.429 328.047 C 295.309 327.852,294.218 327.570,293.005 327.418 C 291.792 327.266,290.800 326.975,290.800 326.771 C 290.800 326.567,290.361 326.400,289.824 326.400 C 289.287 326.400,288.749 326.241,288.629 326.046 C 288.508 325.852,287.598 325.571,286.605 325.422 C 285.612 325.273,284.800 324.982,284.800 324.775 C 284.800 324.569,284.361 324.400,283.824 324.400 C 283.287 324.400,282.750 324.243,282.632 324.052 C 282.514 323.860,281.900 323.600,281.268 323.474 C 280.637 323.347,279.058 322.774,277.760 322.199 C 276.462 321.625,275.040 321.001,274.600 320.813 C 272.299 319.830,266.470 317.065,265.600 316.543 C 265.050 316.214,264.095 315.733,263.478 315.476 C 262.371 315.014,262.360 314.976,262.611 312.404 C 262.988 308.531,263.660 307.600,266.080 307.600 C 266.476 307.600,266.800 307.420,266.800 307.200 C 266.800 306.743,266.236 306.736,264.797 307.174 M149.489 312.481 C 140.096 337.956,145.854 359.991,165.241 372.763 C 169.593 375.630,169.479 375.716,164.113 373.625 C 152.485 369.093,143.203 362.365,135.659 353.000 C 134.418 351.460,133.300 350.110,133.174 350.000 C 131.875 348.866,125.104 336.572,123.616 332.645 C 123.375 332.009,123.080 331.586,122.961 331.706 C 122.638 332.028,125.247 337.648,128.103 342.785 C 134.019 353.422,142.508 362.256,153.000 368.693 C 156.313 370.726,165.111 374.800,166.188 374.800 C 166.524 374.800,166.800 374.980,166.800 375.200 C 166.800 375.420,167.250 375.600,167.800 375.600 C 168.350 375.600,168.800 375.763,168.800 375.963 C 168.800 376.162,169.147 376.234,169.572 376.123 C 170.073 375.992,170.528 376.216,170.868 376.761 C 171.250 377.371,171.802 377.600,172.896 377.600 C 173.723 377.600,174.400 377.766,174.400 377.970 C 174.400 378.173,176.020 378.467,178.000 378.622 C 179.980 378.776,181.600 379.060,181.600 379.252 C 181.600 379.443,182.860 379.600,184.400 379.600 C 186.000 379.600,187.200 379.771,187.200 380.000 C 187.200 380.497,190.100 380.532,190.620 380.041 C 190.829 379.844,191.720 379.597,192.600 379.493 C 197.169 378.954,201.042 378.277,201.380 377.958 C 201.589 377.761,202.253 377.600,202.856 377.600 C 203.459 377.600,204.064 377.420,204.200 377.200 C 204.336 376.980,204.790 376.800,205.210 376.800 C 205.943 376.800,208.938 375.923,210.600 375.222 C 211.040 375.037,212.300 374.567,213.400 374.179 C 214.500 373.791,215.490 373.358,215.600 373.216 C 215.710 373.075,216.700 372.625,217.800 372.216 C 218.900 371.808,219.890 371.363,220.000 371.229 C 220.110 371.094,220.740 370.750,221.400 370.464 C 223.232 369.670,231.719 364.390,232.414 363.611 C 232.752 363.233,233.225 362.851,233.467 362.762 C 234.248 362.474,237.307 359.876,240.593 356.710 C 243.614 353.800,244.843 353.099,245.386 353.977 C 245.514 354.184,246.424 354.475,247.409 354.622 C 248.394 354.770,249.200 355.050,249.200 355.245 C 249.200 355.440,249.639 355.600,250.176 355.600 C 250.713 355.600,251.256 355.767,251.383 355.972 C 251.509 356.177,252.602 356.468,253.812 356.619 C 255.021 356.770,256.109 357.052,256.229 357.247 C 256.349 357.441,256.941 357.600,257.544 357.600 C 258.147 357.600,258.811 357.771,259.020 357.979 C 259.229 358.188,260.660 358.454,262.200 358.571 C 265.330 358.809,265.404 358.836,257.800 356.975 C 248.522 354.704,236.249 350.545,233.600 348.775 C 233.050 348.407,231.160 347.421,229.400 346.583 C 227.640 345.745,226.065 344.990,225.900 344.906 C 225.735 344.822,225.600 344.854,225.600 344.978 C 225.600 345.101,227.337 346.048,229.461 347.081 L 233.321 348.959 230.761 351.342 C 220.689 360.716,210.296 366.526,197.400 369.993 C 174.401 376.175,158.636 367.022,152.627 344.000 C 150.871 337.270,150.867 326.833,152.618 319.600 C 153.373 316.480,154.979 311.992,155.359 311.941 C 155.601 311.909,154.810 311.759,153.600 311.608 C 152.390 311.458,151.113 311.205,150.762 311.048 C 150.271 310.828,149.977 311.158,149.489 312.481 M117.071 313.200 C 117.202 314.190,117.441 315.270,117.602 315.600 C 117.763 315.930,118.020 316.893,118.173 317.740 C 118.502 319.563,121.782 329.693,122.368 330.701 C 123.074 331.912,122.836 330.714,121.833 328.008 C 120.493 324.391,119.032 319.557,118.204 316.000 C 117.316 312.183,116.751 310.786,117.071 313.200 M158.200 312.423 C 159.080 312.605,160.340 312.742,161.000 312.727 C 161.900 312.707,161.750 312.620,160.400 312.380 C 157.986 311.950,156.094 311.987,158.200 312.423 M164.600 313.220 C 165.040 313.398,166.480 313.542,167.800 313.540 C 170.816 313.536,170.258 313.322,166.600 313.081 C 164.973 312.974,164.135 313.032,164.600 313.220 M177.800 314.418 C 178.900 314.590,180.520 314.720,181.400 314.709 C 182.793 314.690,182.716 314.648,180.800 314.383 C 179.590 314.216,177.970 314.085,177.200 314.093 C 176.078 314.104,176.197 314.169,177.800 314.418 M183.607 315.356 C 184.952 317.098,197.593 327.506,202.816 331.171 C 203.577 331.705,204.821 332.605,205.580 333.171 C 206.339 333.737,206.834 333.992,206.679 333.737 C 206.525 333.483,204.596 331.987,202.392 330.414 C 198.345 327.524,190.117 320.920,186.800 317.899 C 183.797 315.164,182.921 314.466,183.607 315.356 M307.274 317.798 C 307.023 318.349,306.972 318.800,307.162 318.800 C 307.494 318.800,308.092 317.159,307.849 316.916 C 307.784 316.850,307.525 317.247,307.274 317.798 M304.934 321.468 C 305.081 321.615,304.959 322.020,304.662 322.368 C 303.945 323.207,303.538 324.400,303.969 324.400 C 304.158 324.400,304.426 323.950,304.564 323.400 C 304.702 322.850,304.992 322.400,305.208 322.400 C 305.423 322.400,305.600 322.130,305.600 321.800 C 305.600 321.470,305.390 321.200,305.133 321.200 C 304.877 321.200,304.787 321.320,304.934 321.468 M207.200 334.102 C 207.200 334.209,208.595 335.190,210.300 336.282 C 214.630 339.055,216.400 340.097,216.400 339.873 C 216.400 339.767,214.735 338.647,212.700 337.383 C 210.665 336.119,208.595 334.820,208.100 334.496 C 207.605 334.173,207.200 333.995,207.200 334.102 M217.400 340.602 C 218.363 341.364,224.666 344.801,225.096 344.799 C 225.511 344.796,223.619 343.674,219.800 341.659 C 218.040 340.730,216.960 340.254,217.400 340.602 M265.200 359.200 C 265.200 359.420,265.942 359.600,266.849 359.600 C 268.340 359.600,268.445 359.664,267.949 360.265 C 267.481 360.832,267.485 360.902,267.975 360.740 C 268.985 360.406,268.899 359.618,267.806 359.202 C 266.452 358.687,265.200 358.686,265.200 359.200 M255.500 367.429 C 254.049 368.216,254.099 368.444,255.600 367.878 C 256.260 367.628,256.800 367.284,256.800 367.112 C 256.800 366.719,256.816 366.715,255.500 367.429 " stroke="none" fill="#9b8cbc" fill-rule="evenodd"></path><path id="path1" d="M206.400 20.000 C 206.400 20.220,205.785 20.400,205.033 20.400 C 204.282 20.400,203.607 20.575,203.533 20.788 C 203.460 21.002,203.040 21.234,202.600 21.304 C 201.521 21.475,199.200 22.532,199.200 22.853 C 199.200 22.995,198.570 23.229,197.800 23.374 C 197.030 23.518,196.400 23.808,196.400 24.018 C 196.400 24.228,196.130 24.400,195.800 24.400 C 195.470 24.400,195.200 24.577,195.200 24.792 C 195.200 25.008,194.750 25.298,194.200 25.436 C 193.650 25.574,193.200 25.847,193.200 26.043 C 193.200 26.240,192.930 26.400,192.600 26.400 C 192.270 26.400,192.000 26.568,192.000 26.773 C 192.000 27.192,190.417 27.820,189.800 27.646 C 189.580 27.584,189.532 27.665,189.693 27.826 C 189.995 28.128,188.540 29.600,187.940 29.600 C 187.754 29.600,186.934 30.230,186.118 31.000 C 185.301 31.770,184.484 32.400,184.301 32.400 C 184.118 32.400,183.300 33.090,182.484 33.933 C 181.668 34.777,180.685 35.581,180.300 35.721 C 179.915 35.861,179.600 36.251,179.600 36.587 C 179.600 36.924,179.426 37.200,179.214 37.200 C 178.887 37.200,177.298 38.517,175.800 40.030 C 175.580 40.252,174.905 40.906,174.300 41.483 C 173.695 42.060,173.200 42.691,173.200 42.885 C 173.200 43.080,171.850 44.589,170.200 46.239 C 168.550 47.889,167.200 49.403,167.200 49.604 C 167.200 49.805,166.390 50.803,165.400 51.821 C 164.410 52.840,163.600 53.810,163.600 53.977 C 163.600 54.145,163.105 54.834,162.500 55.510 C 161.018 57.164,160.664 57.619,159.778 59.010 C 159.362 59.665,158.701 60.491,158.310 60.847 C 157.920 61.203,157.600 61.659,157.600 61.860 C 157.600 62.244,156.295 64.024,155.100 65.270 C 154.715 65.671,154.400 66.270,154.400 66.600 C 154.400 66.930,154.239 67.200,154.042 67.200 C 153.845 67.200,153.083 68.145,152.349 69.300 C 151.615 70.455,150.876 71.460,150.707 71.533 C 150.538 71.607,150.400 71.844,150.400 72.060 C 150.400 72.418,148.539 75.122,147.964 75.600 C 147.831 75.710,147.602 76.295,147.454 76.900 C 147.306 77.505,147.008 78.000,146.792 78.000 C 146.577 78.000,146.400 78.270,146.400 78.600 C 146.400 78.930,146.240 79.200,146.043 79.200 C 145.847 79.200,145.574 79.650,145.436 80.200 C 145.298 80.750,145.008 81.200,144.792 81.200 C 144.577 81.200,144.400 81.470,144.400 81.800 C 144.400 82.130,144.240 82.400,144.043 82.400 C 143.847 82.400,143.574 82.850,143.436 83.400 C 143.298 83.950,143.008 84.400,142.792 84.400 C 142.577 84.400,142.400 84.670,142.400 85.000 C 142.400 85.330,142.220 85.600,142.000 85.600 C 141.780 85.600,141.600 85.938,141.600 86.351 C 141.600 86.764,141.330 87.326,141.000 87.600 C 140.670 87.874,140.400 88.346,140.400 88.649 C 140.400 88.952,140.220 89.200,140.000 89.200 C 139.780 89.200,139.599 89.425,139.598 89.700 C 139.597 89.975,139.058 91.010,138.400 92.000 C 137.742 92.990,137.203 94.072,137.202 94.404 C 137.201 94.736,136.856 95.222,136.436 95.485 C 136.016 95.747,135.551 96.510,135.404 97.181 C 135.257 97.851,135.013 98.400,134.863 98.400 C 134.588 98.400,133.200 101.334,133.200 101.914 C 133.200 102.084,132.847 102.478,132.415 102.789 C 131.983 103.101,131.519 103.860,131.383 104.478 C 131.247 105.095,130.971 105.600,130.768 105.600 C 130.566 105.600,130.400 105.960,130.400 106.400 C 130.400 106.840,130.234 107.200,130.032 107.200 C 129.829 107.200,129.545 107.740,129.400 108.400 C 129.255 109.060,128.971 109.600,128.768 109.600 C 128.566 109.600,128.400 109.945,128.400 110.367 C 128.400 110.788,128.264 111.193,128.098 111.267 C 127.932 111.340,127.171 112.660,126.406 114.200 C 125.642 115.740,124.913 117.090,124.787 117.200 C 124.442 117.501,123.200 120.262,123.200 120.727 C 123.200 120.951,123.065 121.193,122.900 121.267 C 122.427 121.477,121.200 123.856,121.200 124.562 C 121.200 124.913,121.020 125.200,120.800 125.200 C 120.580 125.200,120.400 125.460,120.400 125.779 C 120.400 126.097,119.950 127.204,119.400 128.238 C 118.850 129.273,118.400 130.362,118.400 130.660 C 118.400 130.957,118.234 131.200,118.032 131.200 C 117.829 131.200,117.545 131.740,117.400 132.400 C 117.255 133.060,116.971 133.600,116.768 133.600 C 116.566 133.600,116.400 133.960,116.400 134.400 C 116.400 134.840,116.234 135.200,116.032 135.200 C 115.829 135.200,115.545 135.740,115.400 136.400 C 115.255 137.060,114.971 137.600,114.768 137.600 C 114.566 137.600,114.400 137.849,114.400 138.154 C 114.400 138.459,114.131 139.224,113.802 139.854 C 113.474 140.484,113.204 141.315,113.202 141.700 C 113.201 142.085,113.062 142.400,112.894 142.400 C 112.573 142.400,111.200 145.320,111.200 146.003 C 111.200 146.221,111.064 146.400,110.898 146.400 C 110.310 146.400,109.730 149.032,110.218 149.488 C 110.492 149.744,110.780 152.272,110.944 155.856 C 111.518 168.476,112.834 179.309,115.236 191.200 C 117.183 200.834,117.491 201.337,118.294 196.176 C 118.565 194.429,118.962 192.100,119.176 191.000 C 119.389 189.900,119.752 187.920,119.981 186.600 C 120.378 184.316,120.818 182.312,121.604 179.200 C 121.799 178.430,122.255 176.360,122.619 174.600 C 122.982 172.840,123.416 171.040,123.583 170.600 C 123.751 170.160,124.199 168.450,124.579 166.800 C 124.959 165.150,125.426 163.260,125.617 162.600 C 126.267 160.353,127.209 157.004,127.586 155.600 C 128.735 151.321,129.315 149.315,129.609 148.600 C 129.791 148.160,130.241 146.720,130.609 145.400 C 130.978 144.080,131.427 142.640,131.607 142.200 C 131.787 141.760,133.134 137.710,134.601 133.200 C 138.488 121.248,143.789 106.541,145.775 102.200 C 146.077 101.540,146.812 99.830,147.408 98.400 C 157.967 73.078,173.488 49.654,185.744 40.543 C 189.084 38.059,189.020 37.986,188.871 44.099 C 188.745 49.279,189.734 60.211,190.393 60.927 C 190.559 61.107,194.789 58.184,199.793 54.432 C 209.643 47.045,209.441 47.136,209.796 49.909 C 210.166 52.799,211.175 58.765,211.673 61.000 C 212.669 65.471,214.515 72.745,215.226 75.000 C 218.594 85.680,220.533 90.800,221.209 90.800 C 221.385 90.800,221.651 91.520,221.800 92.400 C 221.949 93.280,222.234 94.000,222.435 94.000 C 222.636 94.000,222.800 94.242,222.800 94.539 C 222.800 95.040,223.557 96.883,224.426 98.495 C 224.632 98.877,224.800 99.462,224.800 99.795 C 224.800 100.128,224.960 100.400,225.155 100.400 C 225.351 100.400,225.629 101.030,225.774 101.800 C 225.918 102.570,226.208 103.200,226.418 103.200 C 226.628 103.200,226.800 103.560,226.800 104.000 C 226.800 104.440,226.980 104.800,227.200 104.800 C 227.420 104.800,227.600 104.979,227.600 105.197 C 227.600 105.880,228.973 108.800,229.294 108.800 C 229.462 108.800,229.601 109.025,229.602 109.300 C 229.604 109.911,232.252 115.170,233.726 117.492 C 234.317 118.423,234.800 119.282,234.800 119.402 C 234.800 119.775,238.156 124.993,238.487 125.133 C 238.659 125.207,238.800 125.507,238.800 125.800 C 238.800 126.093,238.938 126.393,239.107 126.467 C 239.276 126.540,240.035 127.590,240.794 128.800 C 241.553 130.010,242.276 131.090,242.402 131.200 C 242.527 131.310,243.602 132.750,244.790 134.400 C 245.978 136.050,247.141 137.605,247.375 137.856 C 247.609 138.106,248.148 138.792,248.574 139.379 C 248.999 139.967,249.776 140.932,250.300 141.524 C 250.824 142.116,251.796 143.375,252.461 144.322 L 253.669 146.044 252.781 153.922 C 251.888 161.849,251.936 166.960,253.013 178.800 C 253.405 183.104,254.891 194.508,255.566 198.400 C 255.777 199.610,256.225 202.400,256.563 204.600 C 256.901 206.800,257.363 209.590,257.590 210.800 C 257.817 212.010,258.198 214.530,258.437 216.400 C 258.676 218.270,259.025 220.160,259.214 220.600 C 259.404 221.040,259.652 222.210,259.766 223.200 C 259.881 224.190,260.247 226.800,260.580 229.000 C 260.913 231.200,261.282 233.720,261.401 234.600 C 261.520 235.480,261.802 237.100,262.028 238.200 C 262.254 239.300,262.601 241.910,262.799 244.000 C 262.997 246.090,263.278 248.382,263.424 249.093 L 263.689 250.386 265.519 249.093 C 270.995 245.224,278.400 235.955,278.400 232.971 C 278.400 232.657,278.563 232.400,278.762 232.400 C 278.962 232.400,279.249 231.500,279.400 230.400 C 279.551 229.301,279.838 228.300,280.037 228.177 C 280.237 228.054,280.400 227.164,280.400 226.200 C 280.400 225.236,280.580 224.336,280.800 224.200 C 281.305 223.888,281.341 212.800,280.837 212.800 C 280.637 212.800,280.377 211.855,280.259 210.700 C 279.882 207.018,279.063 202.800,278.726 202.800 C 278.547 202.800,278.400 202.519,278.400 202.175 C 278.400 201.107,276.936 196.637,275.953 194.705 C 275.759 194.323,275.600 193.811,275.600 193.566 C 275.600 193.085,274.672 190.847,273.764 189.138 C 273.454 188.554,273.200 187.804,273.200 187.472 C 273.200 187.139,273.044 186.807,272.853 186.733 C 272.137 186.458,271.910 184.800,272.588 184.800 C 273.906 184.800,289.118 199.710,296.055 207.800 C 299.524 211.845,306.800 221.644,306.800 222.270 C 306.800 222.417,307.052 222.821,307.359 223.169 C 309.689 225.798,314.949 237.310,316.969 244.200 C 317.549 246.180,318.199 248.353,318.412 249.028 C 318.625 249.704,318.800 250.818,318.800 251.505 C 318.800 252.191,318.980 252.864,319.200 253.000 C 319.420 253.136,319.600 254.137,319.600 255.224 C 319.600 256.311,319.780 257.200,320.000 257.200 C 320.226 257.200,320.400 256.067,320.400 254.600 C 320.400 253.133,320.226 252.000,320.000 252.000 C 319.780 252.000,319.600 251.021,319.600 249.824 C 319.600 248.627,319.441 247.549,319.248 247.429 C 319.054 247.310,318.768 245.860,318.614 244.208 C 318.459 242.557,318.167 241.104,317.966 240.979 C 317.765 240.855,317.600 240.223,317.600 239.576 C 317.600 238.929,317.438 238.400,317.239 238.400 C 317.041 238.400,316.753 237.320,316.600 236.000 C 316.447 234.680,316.159 233.600,315.961 233.600 C 315.762 233.600,315.600 233.150,315.600 232.600 C 315.600 232.050,315.431 231.600,315.225 231.600 C 315.018 231.600,314.728 230.790,314.579 229.800 C 314.431 228.810,314.150 228.000,313.955 228.000 C 313.760 228.000,313.600 227.640,313.600 227.200 C 313.600 226.760,313.434 226.400,313.232 226.400 C 313.029 226.400,312.746 225.864,312.602 225.209 C 312.458 224.554,311.905 223.159,311.372 222.109 C 310.839 221.059,310.403 219.975,310.402 219.700 C 310.401 219.425,310.220 219.200,310.000 219.200 C 309.780 219.200,309.600 218.840,309.600 218.400 C 309.600 217.960,309.434 217.600,309.232 217.600 C 309.029 217.600,308.745 217.060,308.600 216.400 C 308.455 215.740,308.171 215.200,307.968 215.200 C 307.766 215.200,307.600 214.840,307.600 214.400 C 307.600 213.960,307.420 213.600,307.200 213.600 C 306.980 213.600,306.800 213.343,306.800 213.029 C 306.800 212.714,306.575 212.219,306.299 211.929 C 306.024 211.638,305.439 210.713,304.999 209.873 C 304.560 209.033,303.885 208.006,303.500 207.590 C 303.115 207.174,302.800 206.578,302.800 206.266 C 302.800 205.953,302.530 205.474,302.200 205.200 C 301.870 204.926,301.600 204.469,301.600 204.184 C 301.600 203.900,301.457 203.607,301.282 203.533 C 300.779 203.323,298.188 199.115,298.310 198.707 C 298.370 198.506,298.266 198.436,298.078 198.552 C 297.890 198.668,297.229 197.961,296.610 196.982 C 295.991 196.002,295.371 195.200,295.233 195.200 C 295.095 195.200,294.643 194.570,294.228 193.800 C 293.813 193.030,293.322 192.400,293.137 192.400 C 292.952 192.400,292.800 192.149,292.800 191.842 C 292.800 191.536,292.260 190.707,291.600 190.000 C 290.940 189.293,290.400 188.477,290.400 188.185 C 290.400 187.893,290.049 187.543,289.620 187.406 C 289.192 187.270,288.730 186.808,288.594 186.380 C 288.457 185.951,288.178 185.600,287.973 185.600 C 287.768 185.600,287.600 185.396,287.600 185.146 C 287.600 184.896,287.175 184.298,286.655 183.816 C 286.136 183.335,285.371 182.414,284.955 181.770 C 284.540 181.127,283.891 180.240,283.514 179.800 C 283.136 179.360,282.326 178.420,281.714 177.712 C 281.101 177.004,280.185 175.924,279.678 175.312 C 279.170 174.700,277.869 173.210,276.785 172.000 C 275.701 170.790,274.811 169.687,274.807 169.548 C 274.803 169.410,273.908 168.362,272.817 167.218 C 271.727 166.075,270.725 164.793,270.590 164.370 C 270.456 163.946,270.191 163.600,270.002 163.600 C 269.630 163.600,269.155 163.131,267.600 161.230 C 267.050 160.557,265.888 159.240,265.018 158.303 C 264.148 157.367,263.458 156.510,263.485 156.400 C 263.513 156.290,262.785 155.353,261.867 154.317 C 260.950 153.281,259.840 151.968,259.400 151.399 C 258.960 150.831,258.150 149.870,257.600 149.264 C 256.629 148.196,255.671 147.016,253.600 144.340 C 253.050 143.629,252.195 142.640,251.700 142.142 C 251.205 141.644,250.800 141.061,250.800 140.847 C 250.800 140.633,250.350 140.104,249.800 139.671 C 249.250 139.239,248.800 138.694,248.800 138.461 C 248.800 138.227,248.350 137.586,247.800 137.036 C 247.250 136.486,246.797 135.893,246.794 135.718 C 246.790 135.543,246.250 134.791,245.594 134.046 C 244.937 133.301,244.400 132.544,244.400 132.364 C 244.400 132.184,243.995 131.595,243.500 131.056 C 242.032 129.457,241.600 128.858,241.600 128.417 C 241.600 128.188,241.461 128.000,241.291 128.000 C 241.121 128.000,240.643 127.370,240.228 126.600 C 239.813 125.830,239.322 125.200,239.137 125.200 C 238.952 125.200,238.800 124.943,238.800 124.629 C 238.800 124.314,238.575 123.812,238.300 123.512 C 237.645 122.797,236.980 121.720,236.132 120.000 C 235.752 119.230,235.322 118.510,235.175 118.400 C 235.028 118.290,234.781 117.795,234.627 117.300 C 234.472 116.805,234.178 116.400,233.973 116.400 C 233.768 116.400,233.600 116.130,233.600 115.800 C 233.600 115.470,233.420 115.200,233.200 115.200 C 232.980 115.200,232.800 114.913,232.800 114.562 C 232.800 113.856,231.573 111.477,231.100 111.267 C 230.935 111.193,230.800 110.970,230.800 110.769 C 230.800 110.111,229.418 107.200,229.106 107.200 C 228.938 107.200,228.800 107.002,228.800 106.760 C 228.800 106.278,227.575 103.520,227.219 103.200 C 227.097 103.090,226.653 101.965,226.233 100.700 C 225.814 99.435,225.327 98.400,225.153 98.400 C 224.979 98.400,224.718 97.770,224.574 97.000 C 224.429 96.230,224.151 95.600,223.955 95.600 C 223.760 95.600,223.600 95.270,223.600 94.867 C 223.600 94.463,223.472 94.005,223.315 93.848 C 222.866 93.399,221.601 89.878,221.600 89.076 C 221.600 88.678,221.432 88.457,221.226 88.584 C 221.020 88.711,220.729 88.002,220.580 87.008 C 220.431 86.013,220.150 85.200,219.955 85.200 C 219.760 85.200,219.600 84.750,219.600 84.200 C 219.600 83.650,219.437 83.200,219.238 83.200 C 219.038 83.200,218.751 82.300,218.600 81.200 C 218.449 80.100,218.162 79.200,217.962 79.200 C 217.763 79.200,217.600 78.750,217.600 78.200 C 217.600 77.650,217.433 77.200,217.229 77.200 C 217.025 77.200,216.734 76.210,216.583 75.000 C 216.432 73.790,216.149 72.800,215.954 72.800 C 215.759 72.800,215.600 72.260,215.600 71.600 C 215.600 70.940,215.441 70.400,215.247 70.400 C 215.052 70.400,214.768 69.230,214.615 67.800 C 214.462 66.370,214.171 65.200,213.968 65.200 C 213.766 65.200,213.600 64.581,213.600 63.824 C 213.600 63.067,213.432 62.343,213.227 62.217 C 213.022 62.090,212.728 60.549,212.575 58.793 C 212.422 57.037,212.140 55.600,211.948 55.600 C 211.757 55.600,211.600 54.736,211.600 53.680 C 211.600 52.624,211.426 51.586,211.214 51.374 C 211.002 51.162,210.708 48.021,210.561 44.394 C 210.414 40.767,210.126 37.588,209.922 37.329 C 209.490 36.782,209.553 29.593,209.995 29.000 C 210.159 28.780,210.394 26.575,210.519 24.100 L 210.744 19.600 208.572 19.600 C 207.377 19.600,206.400 19.780,206.400 20.000 M215.735 95.426 C 210.787 99.671,205.200 105.319,205.200 106.075 C 205.200 106.740,208.897 114.764,209.464 115.331 C 209.616 115.483,210.353 114.121,211.101 112.304 C 211.850 110.487,213.984 105.421,215.845 101.047 C 217.706 96.673,219.147 93.014,219.049 92.915 C 218.950 92.817,217.459 93.946,215.735 95.426 M103.200 164.533 C 103.200 164.900,103.020 165.200,102.800 165.200 C 102.580 165.200,102.400 165.470,102.400 165.800 C 102.400 166.130,102.560 166.400,102.757 166.400 C 103.173 166.400,103.743 164.410,103.419 164.086 C 103.299 163.965,103.200 164.167,103.200 164.533 M98.400 176.200 C 98.400 176.530,98.580 176.800,98.800 176.800 C 99.020 176.800,99.200 176.530,99.200 176.200 C 99.200 175.870,99.020 175.600,98.800 175.600 C 98.580 175.600,98.400 175.870,98.400 176.200 M90.400 199.800 C 90.400 200.130,90.580 200.400,90.800 200.400 C 91.020 200.400,91.200 200.130,91.200 199.800 C 91.200 199.470,91.020 199.200,90.800 199.200 C 90.580 199.200,90.400 199.470,90.400 199.800 M87.879 208.557 C 87.715 208.974,87.675 209.409,87.791 209.524 C 88.155 209.889,88.476 209.291,88.324 208.531 C 88.183 207.835,88.162 207.836,87.879 208.557 M85.734 216.227 C 85.602 216.572,85.698 217.058,85.947 217.307 C 86.284 217.644,86.400 217.484,86.400 216.680 C 86.400 215.477,86.101 215.273,85.734 216.227 M83.708 225.228 C 83.676 225.652,83.819 226.000,84.025 226.000 C 84.480 226.000,84.527 224.925,84.083 224.651 C 83.909 224.544,83.740 224.803,83.708 225.228 M82.400 232.000 C 82.400 232.440,82.580 232.800,82.800 232.800 C 83.020 232.800,83.200 232.440,83.200 232.000 C 83.200 231.560,83.020 231.200,82.800 231.200 C 82.580 231.200,82.400 231.560,82.400 232.000 M81.734 235.427 C 81.602 235.772,81.698 236.258,81.947 236.507 C 82.284 236.844,82.400 236.684,82.400 235.880 C 82.400 234.677,82.101 234.473,81.734 235.427 M80.400 245.424 C 80.400 246.271,80.562 246.747,80.800 246.600 C 81.020 246.464,81.200 245.823,81.200 245.176 C 81.200 244.529,81.020 244.000,80.800 244.000 C 80.580 244.000,80.400 244.641,80.400 245.424 M79.606 251.500 C 79.609 252.325,79.787 253.270,80.000 253.600 C 80.278 254.030,80.389 253.603,80.394 252.100 C 80.397 250.945,80.220 250.000,80.000 250.000 C 79.780 250.000,79.603 250.675,79.606 251.500 M79.867 272.418 C 79.695 272.978,79.678 273.968,79.829 274.618 C 79.980 275.268,80.179 276.700,80.271 277.800 C 80.363 278.900,80.598 280.160,80.794 280.600 C 80.989 281.040,81.266 282.794,81.408 284.497 C 81.551 286.201,81.833 287.696,82.034 287.821 C 82.235 287.945,82.400 288.667,82.400 289.424 C 82.400 290.181,82.557 290.800,82.748 290.800 C 82.940 290.800,83.219 291.880,83.368 293.200 C 83.518 294.520,83.790 295.600,83.974 295.600 C 84.159 295.600,84.405 296.095,84.522 296.700 C 84.639 297.305,84.950 298.610,85.213 299.600 C 85.477 300.590,85.701 301.617,85.713 301.882 C 85.724 302.148,85.883 302.272,86.067 302.159 C 86.250 302.045,86.400 302.323,86.400 302.776 C 86.400 303.229,86.560 303.600,86.755 303.600 C 86.950 303.600,87.231 304.413,87.380 305.408 C 87.529 306.402,87.820 307.111,88.026 306.984 C 88.232 306.857,88.400 307.213,88.400 307.776 C 88.400 308.339,88.560 308.800,88.755 308.800 C 88.951 308.800,89.229 309.430,89.374 310.200 C 89.518 310.970,89.808 311.600,90.018 311.600 C 90.228 311.600,90.400 311.810,90.400 312.066 C 90.400 312.812,91.723 315.600,92.077 315.600 C 92.255 315.600,92.400 315.870,92.400 316.200 C 92.400 316.530,92.560 316.800,92.755 316.800 C 92.951 316.800,93.229 317.430,93.374 318.200 C 93.518 318.970,93.808 319.600,94.018 319.600 C 94.228 319.600,94.400 319.870,94.400 320.200 C 94.400 320.530,94.577 320.800,94.792 320.800 C 95.008 320.800,95.298 321.250,95.436 321.800 C 95.574 322.350,95.847 322.800,96.043 322.800 C 96.240 322.800,96.400 323.048,96.400 323.351 C 96.400 323.654,96.670 324.126,97.000 324.400 C 97.330 324.674,97.600 325.224,97.600 325.622 C 97.600 326.020,97.960 326.460,98.400 326.600 C 98.842 326.740,99.200 327.205,99.200 327.640 C 99.200 328.072,99.470 328.529,99.800 328.655 C 100.130 328.782,100.400 329.207,100.400 329.600 C 100.400 329.993,100.670 330.418,101.000 330.545 C 101.330 330.671,101.600 331.061,101.600 331.411 C 101.600 331.761,101.780 331.936,102.000 331.800 C 102.220 331.664,102.400 331.833,102.400 332.176 C 102.400 332.519,102.568 332.800,102.773 332.800 C 102.978 332.800,103.255 333.143,103.388 333.561 C 103.521 333.980,104.613 335.362,105.815 336.633 C 107.017 337.904,108.000 339.081,108.000 339.247 C 108.000 339.703,119.173 350.800,119.632 350.800 C 119.851 350.800,120.817 351.610,121.779 352.600 C 122.741 353.590,123.726 354.400,123.967 354.400 C 124.208 354.400,124.797 354.850,125.275 355.400 C 125.753 355.950,126.357 356.400,126.616 356.400 C 126.876 356.400,127.418 356.839,127.821 357.376 C 128.224 357.913,128.969 358.456,129.477 358.584 C 129.985 358.711,130.400 358.992,130.400 359.208 C 130.400 359.423,130.670 359.600,131.000 359.600 C 131.330 359.600,131.600 359.768,131.600 359.973 C 131.600 360.178,132.005 360.474,132.500 360.630 C 132.995 360.787,133.670 361.204,134.000 361.557 C 134.330 361.911,135.275 362.543,136.100 362.963 C 136.925 363.383,137.600 363.858,137.600 364.018 C 137.600 364.179,138.235 364.430,139.011 364.576 C 139.787 364.721,140.341 364.972,140.241 365.134 C 140.141 365.295,141.214 365.961,142.625 366.613 C 144.035 367.266,145.192 367.927,145.195 368.082 C 145.198 368.237,145.828 368.482,146.596 368.626 C 147.365 368.770,147.894 369.048,147.773 369.244 C 147.652 369.440,148.013 369.600,148.576 369.600 C 149.139 369.600,149.600 369.760,149.600 369.955 C 149.600 370.151,150.230 370.429,151.000 370.574 C 151.770 370.718,152.400 371.008,152.400 371.218 C 152.400 371.428,152.850 371.600,153.400 371.600 C 153.950 371.600,154.400 371.778,154.400 371.995 C 154.400 372.213,155.120 372.506,156.000 372.646 C 156.880 372.787,157.600 373.059,157.600 373.251 C 157.600 373.443,158.039 373.600,158.576 373.600 C 159.113 373.600,159.658 373.770,159.786 373.977 C 159.914 374.184,160.824 374.475,161.809 374.622 C 162.794 374.770,163.600 375.050,163.600 375.245 C 163.600 375.440,164.215 375.600,164.967 375.600 C 165.718 375.600,166.393 375.769,166.467 375.975 C 166.540 376.182,167.572 376.479,168.760 376.635 C 170.429 376.854,170.851 376.806,170.615 376.425 C 170.447 376.153,169.970 376.019,169.555 376.128 C 169.140 376.236,168.800 376.162,168.800 375.963 C 168.800 375.763,168.350 375.600,167.800 375.600 C 167.250 375.600,166.800 375.420,166.800 375.200 C 166.800 374.980,166.524 374.800,166.188 374.800 C 163.917 374.800,152.439 368.714,147.000 364.625 C 133.361 354.373,122.784 337.077,117.997 317.200 C 116.549 311.188,116.296 309.952,115.051 302.816 L 114.600 300.231 109.345 297.568 C 95.855 290.733,80.633 278.054,80.316 273.389 C 80.203 271.728,80.129 271.568,79.867 272.418 M319.600 274.824 C 319.600 275.057,319.420 275.136,319.200 275.000 C 318.980 274.864,318.800 275.023,318.800 275.354 C 318.800 275.990,311.128 283.902,308.864 285.600 C 308.131 286.150,307.321 286.783,307.065 287.007 C 306.809 287.232,305.430 288.278,304.000 289.334 C 302.570 290.389,300.956 291.601,300.413 292.026 C 299.870 292.452,299.195 292.800,298.913 292.800 C 298.631 292.800,298.399 292.935,298.397 293.100 C 298.394 293.502,296.081 294.800,295.368 294.800 C 295.055 294.800,294.800 294.952,294.800 295.137 C 294.800 295.322,294.125 295.817,293.300 296.237 C 292.475 296.657,291.710 297.099,291.600 297.221 C 291.278 297.577,288.520 298.800,288.040 298.800 C 287.798 298.800,287.600 298.936,287.600 299.102 C 287.600 299.269,287.015 299.651,286.300 299.952 C 285.585 300.253,284.477 300.747,283.839 301.050 C 283.200 301.352,282.435 301.600,282.139 301.600 C 281.842 301.600,281.600 301.766,281.600 301.968 C 281.600 302.171,281.021 302.464,280.313 302.619 C 279.605 302.775,278.705 303.059,278.313 303.251 C 277.921 303.443,277.279 303.757,276.887 303.949 C 276.495 304.141,275.556 304.434,274.800 304.600 C 274.044 304.766,273.105 305.059,272.713 305.251 C 272.321 305.443,271.666 305.765,271.259 305.967 C 270.851 306.168,269.681 306.459,268.659 306.612 C 267.636 306.765,266.800 307.050,266.800 307.245 C 266.800 307.440,266.476 307.600,266.080 307.600 C 263.660 307.600,262.988 308.531,262.611 312.404 C 262.360 314.976,262.371 315.014,263.478 315.476 C 264.095 315.733,265.050 316.214,265.600 316.543 C 266.470 317.065,272.299 319.830,274.600 320.813 C 275.040 321.001,276.462 321.625,277.760 322.199 C 279.058 322.774,280.637 323.347,281.268 323.474 C 281.900 323.600,282.514 323.860,282.632 324.052 C 282.750 324.243,283.287 324.400,283.824 324.400 C 284.361 324.400,284.800 324.569,284.800 324.775 C 284.800 324.982,285.612 325.273,286.605 325.422 C 287.598 325.571,288.508 325.852,288.629 326.046 C 288.749 326.241,289.287 326.400,289.824 326.400 C 290.361 326.400,290.800 326.567,290.800 326.771 C 290.800 326.975,291.792 327.266,293.005 327.418 C 294.218 327.570,295.309 327.852,295.429 328.047 C 295.549 328.241,296.267 328.400,297.024 328.400 C 297.781 328.400,298.400 328.580,298.400 328.800 C 298.400 329.593,300.102 329.178,300.874 328.196 C 301.309 327.644,301.810 327.283,301.988 327.393 C 302.166 327.503,302.430 326.965,302.574 326.196 C 302.718 325.428,302.996 324.800,303.191 324.800 C 303.386 324.800,303.670 324.395,303.820 323.900 C 303.971 323.405,304.371 322.685,304.709 322.300 C 305.047 321.915,305.199 321.600,305.046 321.600 C 304.893 321.600,305.001 321.349,305.284 321.042 C 305.568 320.735,305.947 320.573,306.127 320.682 C 306.306 320.791,306.409 320.637,306.355 320.340 C 306.241 319.709,307.616 316.800,308.030 316.800 C 308.184 316.800,308.429 316.170,308.574 315.400 C 308.718 314.630,309.008 314.000,309.218 314.000 C 309.428 314.000,309.600 313.730,309.600 313.400 C 309.600 313.070,309.757 312.800,309.950 312.800 C 310.277 312.800,310.972 310.566,310.854 309.900 C 310.824 309.735,310.966 309.600,311.168 309.600 C 311.371 309.600,311.655 309.060,311.800 308.400 C 311.945 307.740,312.229 307.200,312.432 307.200 C 312.634 307.200,312.800 306.851,312.800 306.424 C 312.800 305.997,312.980 305.536,313.200 305.400 C 313.420 305.264,313.600 304.724,313.600 304.200 C 313.600 303.676,313.770 303.142,313.977 303.014 C 314.184 302.886,314.475 301.973,314.623 300.986 C 314.771 299.998,315.052 299.092,315.246 298.971 C 315.441 298.851,315.600 298.313,315.600 297.776 C 315.600 297.239,315.791 296.800,316.024 296.800 C 316.257 296.800,316.331 296.612,316.189 296.382 C 316.047 296.153,316.091 295.748,316.286 295.482 C 316.482 295.217,316.692 294.370,316.755 293.600 C 316.817 292.830,317.032 292.029,317.234 291.820 C 317.435 291.611,317.600 291.037,317.600 290.544 C 317.600 290.051,317.771 289.542,317.980 289.413 C 318.188 289.284,318.291 288.643,318.209 287.989 C 318.126 287.335,318.198 286.800,318.369 286.800 C 318.540 286.800,318.714 285.682,318.755 284.315 C 318.798 282.879,319.034 281.699,319.315 281.521 C 319.667 281.297,319.635 281.209,319.200 281.200 C 318.792 281.192,318.747 281.094,319.060 280.894 C 319.313 280.732,319.594 279.520,319.684 278.200 C 319.774 276.880,319.992 275.485,320.167 275.100 C 320.366 274.663,320.319 274.400,320.043 274.400 C 319.799 274.400,319.600 274.591,319.600 274.824 M153.901 315.260 C 150.868 324.984,150.403 335.476,152.627 344.000 C 157.221 361.600,168.587 372.000,183.230 372.000 C 198.870 372.000,217.053 364.101,230.742 351.360 L 233.283 348.994 227.017 345.841 C 212.441 338.505,199.197 329.404,186.200 317.793 L 183.000 314.935 177.800 314.443 C 166.039 313.330,164.464 313.176,161.400 312.830 C 159.640 312.632,157.467 312.346,156.572 312.195 L 154.943 311.921 153.901 315.260 M240.593 356.710 C 237.307 359.876,234.248 362.474,233.467 362.762 C 233.225 362.851,232.752 363.233,232.414 363.611 C 231.719 364.390,223.232 369.670,221.400 370.464 C 220.740 370.750,220.110 371.094,220.000 371.229 C 219.890 371.363,218.900 371.808,217.800 372.216 C 216.700 372.625,215.710 373.075,215.600 373.216 C 215.490 373.358,214.500 373.791,213.400 374.179 C 212.300 374.567,211.040 375.037,210.600 375.222 C 208.938 375.923,205.943 376.800,205.210 376.800 C 204.790 376.800,204.336 376.980,204.200 377.200 C 204.064 377.420,203.459 377.600,202.856 377.600 C 202.253 377.600,201.589 377.761,201.380 377.958 C 201.042 378.277,197.169 378.954,192.600 379.493 C 187.889 380.049,191.263 380.400,201.320 380.400 C 208.440 380.400,212.400 380.257,212.400 380.000 C 212.400 379.774,213.542 379.600,215.026 379.600 C 216.471 379.600,217.977 379.426,218.374 379.214 C 218.771 379.001,220.560 378.705,222.348 378.556 C 224.137 378.407,225.600 378.131,225.600 377.942 C 225.600 377.754,226.320 377.600,227.200 377.600 C 228.080 377.600,228.800 377.445,228.800 377.256 C 228.800 377.067,229.832 376.805,231.094 376.675 C 232.355 376.545,233.450 376.250,233.527 376.019 C 233.604 375.789,234.181 375.600,234.810 375.600 C 235.438 375.600,236.051 375.441,236.171 375.246 C 236.292 375.052,237.198 374.771,238.186 374.623 C 239.173 374.475,240.086 374.184,240.214 373.977 C 240.342 373.770,240.987 373.600,241.647 373.600 C 242.345 373.600,242.744 373.433,242.600 373.200 C 242.464 372.980,242.678 372.794,243.076 372.786 C 243.474 372.779,244.517 372.434,245.392 372.020 C 246.268 371.606,247.123 371.353,247.292 371.457 C 247.462 371.562,247.600 371.457,247.600 371.224 C 247.600 370.991,247.870 370.800,248.200 370.800 C 248.530 370.800,248.800 370.609,248.800 370.376 C 248.800 370.143,248.968 370.057,249.174 370.184 C 249.380 370.311,250.201 370.049,250.998 369.601 C 251.795 369.153,252.887 368.751,253.424 368.706 C 253.961 368.662,254.400 368.488,254.400 368.321 C 254.400 367.913,257.400 366.400,258.208 366.400 C 258.559 366.400,258.736 366.220,258.600 366.000 C 258.389 365.658,258.906 365.507,259.855 365.634 C 259.996 365.653,260.259 365.428,260.441 365.134 C 260.762 364.615,260.918 364.555,262.224 364.450 C 262.567 364.423,262.736 364.220,262.600 364.000 C 262.464 363.780,262.734 363.600,263.200 363.600 C 263.666 363.600,263.939 363.425,263.807 363.212 C 263.675 362.998,264.070 362.703,264.684 362.555 C 265.298 362.408,266.415 361.683,267.167 360.944 L 268.533 359.600 266.867 359.600 C 265.950 359.600,265.200 359.446,265.200 359.257 C 265.200 359.069,263.899 358.794,262.309 358.646 C 260.719 358.498,259.243 358.203,259.029 357.989 C 258.815 357.775,258.147 357.600,257.544 357.600 C 256.941 357.600,256.349 357.441,256.229 357.247 C 256.109 357.052,255.021 356.770,253.812 356.619 C 252.602 356.468,251.509 356.177,251.383 355.972 C 251.256 355.767,250.713 355.600,250.176 355.600 C 249.639 355.600,249.200 355.440,249.200 355.245 C 249.200 355.050,248.394 354.770,247.409 354.622 C 246.424 354.475,245.514 354.184,245.386 353.977 C 244.843 353.099,243.614 353.800,240.593 356.710 " stroke="none" fill="#bcb4c7" fill-rule="evenodd"></path><path id="path2" d="M187.400 39.844 C 178.762 46.126,167.497 59.894,160.608 72.590 C 160.128 73.475,159.317 74.920,158.806 75.800 C 157.196 78.576,151.600 89.871,151.600 90.346 C 151.600 90.596,151.420 90.800,151.200 90.800 C 150.980 90.800,150.800 91.059,150.800 91.376 C 150.800 91.902,148.139 98.046,147.197 99.695 C 146.979 100.077,146.800 100.567,146.800 100.784 C 146.800 101.001,146.371 102.128,145.846 103.289 C 145.322 104.450,144.665 106.030,144.386 106.800 C 144.108 107.570,143.655 108.740,143.380 109.400 C 143.104 110.060,142.696 111.140,142.472 111.800 C 142.249 112.460,141.410 114.800,140.608 117.000 C 139.807 119.200,138.796 122.080,138.362 123.400 C 137.928 124.720,137.423 126.160,137.241 126.600 C 137.058 127.040,136.599 128.390,136.221 129.600 C 135.842 130.810,135.394 132.160,135.224 132.600 C 135.055 133.040,134.286 135.290,133.515 137.600 C 132.744 139.910,131.985 142.160,131.829 142.600 C 131.608 143.221,131.667 143.196,132.092 142.489 C 132.610 141.627,132.679 141.735,133.356 144.489 C 133.750 146.090,134.214 147.850,134.389 148.400 C 134.563 148.950,134.996 150.390,135.351 151.600 C 136.206 154.517,139.952 165.984,140.381 167.000 C 140.567 167.440,140.944 168.430,141.220 169.200 C 141.495 169.970,141.939 171.140,142.206 171.800 C 142.473 172.460,143.010 173.810,143.400 174.800 C 143.790 175.790,144.337 177.140,144.616 177.800 C 144.895 178.460,145.591 180.121,146.163 181.490 C 148.640 187.427,155.030 200.584,158.286 206.450 C 165.156 218.830,166.017 219.989,165.410 216.047 C 165.253 215.031,164.976 212.850,164.794 211.200 C 164.118 205.089,163.580 200.946,163.211 199.000 C 163.002 197.900,162.545 194.750,162.195 192.000 C 161.551 186.945,158.405 167.359,157.408 162.200 C 157.111 160.660,156.574 157.780,156.216 155.800 C 155.857 153.820,155.387 151.300,155.170 150.200 C 152.442 136.349,151.800 130.521,151.800 119.600 C 151.800 109.759,151.951 108.486,153.868 102.200 C 157.045 91.779,165.071 81.923,180.746 69.192 C 190.428 61.329,189.958 61.555,190.300 64.589 C 190.413 65.595,190.676 66.523,190.884 66.652 C 191.373 66.954,190.874 63.531,190.119 61.400 C 189.231 58.897,188.729 54.418,188.454 46.531 C 188.203 39.355,188.190 39.269,187.400 39.844 M191.251 68.000 C 191.215 69.205,192.509 74.248,192.968 74.688 C 193.300 75.006,193.011 73.164,192.390 71.000 C 192.200 70.340,191.873 69.170,191.663 68.400 C 191.349 67.248,191.276 67.177,191.251 68.000 M193.455 76.800 C 193.580 77.790,193.844 78.771,194.041 78.980 C 194.239 79.189,194.400 79.686,194.400 80.085 C 194.400 80.484,194.558 81.123,194.750 81.505 C 194.943 81.887,195.426 83.280,195.823 84.600 C 196.221 85.920,196.660 87.180,196.800 87.400 C 196.939 87.620,197.401 88.925,197.827 90.300 C 198.252 91.675,198.735 92.800,198.900 92.800 C 199.311 92.800,199.366 93.006,197.764 88.573 C 196.975 86.388,195.881 83.160,195.333 81.400 C 194.785 79.640,194.087 77.480,193.782 76.600 L 193.227 75.000 193.455 76.800 M199.370 94.173 C 199.525 94.818,200.000 96.067,200.426 96.948 C 200.852 97.829,201.200 98.684,201.200 98.847 C 201.200 99.165,203.370 104.120,204.036 105.325 C 204.365 105.919,203.908 106.711,201.498 109.725 C 195.539 117.174,193.787 120.813,192.603 128.200 C 191.662 134.067,190.486 140.496,188.907 148.400 C 188.138 152.250,187.367 156.120,187.193 157.000 C 186.258 161.748,184.323 170.523,182.607 177.800 C 182.296 179.120,181.769 181.370,181.437 182.800 C 179.616 190.627,178.388 195.682,174.778 210.216 C 170.532 227.310,170.514 227.404,171.342 228.369 C 171.641 228.716,173.464 231.340,175.395 234.200 C 179.002 239.544,184.240 246.599,188.719 252.148 C 190.117 253.879,191.466 255.769,191.718 256.348 C 192.203 257.467,195.929 261.997,197.600 263.500 C 198.546 264.351,198.900 264.395,204.200 264.321 L 209.800 264.243 204.199 264.022 L 198.598 263.800 196.946 262.000 C 191.633 256.212,191.766 256.768,194.619 252.223 C 204.593 236.338,209.212 220.752,208.032 206.964 C 207.604 201.960,207.235 199.555,204.442 183.600 C 199.519 155.467,200.427 141.078,208.461 119.946 L 209.622 116.893 207.411 112.311 C 206.195 109.791,205.200 107.599,205.200 107.440 C 205.200 107.048,199.566 93.453,199.299 93.200 C 199.183 93.090,199.214 93.528,199.370 94.173 M126.046 162.067 C 126.021 162.434,125.896 163.064,125.770 163.467 C 125.552 164.162,125.563 164.163,125.997 163.487 C 126.248 163.096,126.373 162.466,126.273 162.087 C 126.111 161.468,126.088 161.466,126.046 162.067 M122.054 178.267 C 122.025 178.744,121.896 179.464,121.770 179.867 C 121.552 180.561,121.564 180.562,121.996 179.888 C 122.247 179.497,122.375 178.777,122.281 178.288 C 122.109 177.401,122.109 177.401,122.054 178.267 M272.818 185.273 C 272.838 185.866,274.754 189.579,274.782 189.080 C 274.792 188.904,274.525 188.229,274.190 187.580 C 273.399 186.051,273.836 186.084,275.481 187.678 C 276.206 188.382,276.800 188.861,276.800 188.745 C 276.800 188.628,275.900 187.680,274.800 186.639 C 273.700 185.597,272.808 184.983,272.818 185.273 M120.054 187.600 C 120.019 188.150,119.896 189.050,119.783 189.600 L 119.577 190.600 120.007 189.615 C 120.243 189.074,120.365 188.174,120.278 187.615 L 120.120 186.600 120.054 187.600 M279.258 191.100 C 279.289 191.265,281.854 193.828,284.958 196.795 L 290.600 202.190 285.005 196.495 C 279.369 190.757,279.153 190.555,279.258 191.100 M275.628 191.800 C 275.628 192.020,275.886 192.650,276.200 193.200 C 276.514 193.750,276.772 194.020,276.772 193.800 C 276.772 193.580,276.514 192.950,276.200 192.400 C 275.886 191.850,275.628 191.580,275.628 191.800 M277.663 197.000 C 277.662 197.220,277.903 198.030,278.200 198.800 C 278.497 199.570,278.745 199.930,278.752 199.600 C 278.758 199.270,278.517 198.460,278.214 197.800 C 277.912 197.140,277.664 196.780,277.663 197.000 M118.093 199.200 C 118.093 199.970,118.175 200.285,118.276 199.900 C 118.376 199.515,118.376 198.885,118.276 198.500 C 118.175 198.115,118.093 198.430,118.093 199.200 M117.419 201.300 C 117.333 201.575,117.153 202.700,117.018 203.800 C 116.883 204.900,116.513 207.780,116.196 210.200 C 115.879 212.620,115.520 215.500,115.399 216.600 C 115.279 217.700,114.994 220.130,114.766 222.000 C 112.764 238.454,112.077 278.683,113.598 290.400 C 113.812 292.050,114.102 294.803,114.242 296.518 C 114.383 298.233,114.595 299.539,114.714 299.420 C 114.833 299.300,114.629 295.827,114.261 291.702 C 113.163 279.392,112.874 269.740,113.247 257.800 C 113.596 246.613,114.676 226.069,115.034 223.800 C 115.139 223.140,115.385 221.070,115.582 219.200 C 115.778 217.330,116.238 213.550,116.603 210.800 C 117.752 202.140,117.979 199.505,117.419 201.300 M278.828 201.076 C 278.918 202.115,279.544 202.996,279.572 202.124 C 279.587 201.642,279.420 201.136,279.200 201.000 C 278.980 200.864,278.813 200.898,278.828 201.076 M279.869 204.600 C 280.257 207.027,280.834 208.572,280.541 206.400 C 280.407 205.410,280.144 204.240,279.955 203.800 C 279.735 203.284,279.704 203.569,279.869 204.600 M295.429 208.038 C 296.073 208.829,296.681 209.408,296.779 209.325 C 296.878 209.242,296.351 208.595,295.609 207.887 L 294.258 206.600 295.429 208.038 M281.059 211.000 C 281.199 212.100,281.377 213.075,281.456 213.167 C 281.799 213.564,281.550 210.141,281.197 209.600 C 280.930 209.190,280.886 209.635,281.059 211.000 M301.200 215.200 C 301.670 215.860,302.144 216.400,302.254 216.400 C 302.364 216.400,302.070 215.860,301.600 215.200 C 301.130 214.540,300.656 214.000,300.546 214.000 C 300.436 214.000,300.730 214.540,301.200 215.200 M281.750 218.600 C 281.751 221.020,281.816 221.958,281.896 220.685 C 281.976 219.412,281.975 217.432,281.894 216.285 C 281.814 215.138,281.749 216.180,281.750 218.600 M303.200 218.000 C 303.670 218.660,304.144 219.200,304.254 219.200 C 304.364 219.200,304.070 218.660,303.600 218.000 C 303.130 217.340,302.656 216.800,302.546 216.800 C 302.436 216.800,302.730 217.340,303.200 218.000 M281.262 224.600 C 281.222 225.260,281.089 226.250,280.967 226.800 C 280.776 227.660,280.808 227.701,281.196 227.093 C 281.444 226.704,281.577 225.714,281.491 224.893 C 281.356 223.604,281.325 223.564,281.262 224.600 M280.080 230.280 C 279.830 231.094,279.692 231.826,279.773 231.906 C 279.854 231.987,280.136 231.399,280.400 230.600 C 280.664 229.801,280.802 229.069,280.707 228.974 C 280.612 228.878,280.330 229.466,280.080 230.280 M277.681 236.209 C 277.202 237.194,276.894 238.000,276.997 238.000 C 277.268 238.000,278.884 234.751,278.703 234.570 C 278.619 234.486,278.159 235.224,277.681 236.209 M275.814 239.435 C 275.441 240.004,275.205 240.538,275.289 240.622 C 275.373 240.707,275.758 240.241,276.144 239.588 C 277.006 238.128,276.748 238.009,275.814 239.435 M315.448 241.400 C 315.591 242.060,315.866 242.870,316.059 243.200 C 316.284 243.584,316.318 243.368,316.152 242.600 C 316.009 241.940,315.734 241.130,315.541 240.800 C 315.316 240.416,315.282 240.632,315.448 241.400 M270.976 245.075 C 267.229 248.880,266.843 249.572,270.253 246.374 C 272.853 243.935,274.985 241.637,274.773 241.504 C 274.678 241.444,272.969 243.051,270.976 245.075 M265.000 250.144 C 264.340 250.658,263.350 251.195,262.800 251.338 C 262.250 251.481,261.350 251.976,260.800 252.438 L 259.800 253.279 261.247 252.440 C 262.043 251.978,262.900 251.600,263.151 251.600 C 263.402 251.600,264.352 251.060,265.263 250.400 C 266.175 249.740,266.758 249.202,266.560 249.204 C 266.362 249.207,265.660 249.629,265.000 250.144 M318.428 253.233 C 318.444 253.765,318.619 254.560,318.819 255.000 C 319.071 255.558,319.107 255.315,318.938 254.200 C 318.655 252.343,318.387 251.836,318.428 253.233 M257.071 254.199 C 256.010 254.725,254.300 255.466,253.271 255.844 C 251.114 256.637,250.086 257.351,251.827 256.846 C 253.295 256.421,259.944 253.265,259.400 253.252 C 259.180 253.246,258.132 253.673,257.071 254.199 M245.656 258.459 C 244.917 258.672,244.387 258.920,244.479 259.012 C 244.681 259.214,247.600 258.437,247.600 258.181 C 247.600 257.946,247.282 257.991,245.656 258.459 M319.265 259.400 C 319.201 261.284,319.550 262.800,320.047 262.800 C 320.241 262.800,320.400 262.170,320.400 261.400 C 320.400 260.630,320.232 260.000,320.027 260.000 C 319.821 260.000,319.578 259.505,319.487 258.900 C 319.362 258.081,319.306 258.209,319.265 259.400 M241.800 259.600 C 240.781 260.038,241.832 260.038,243.200 259.600 C 244.004 259.343,244.043 259.277,243.400 259.268 C 242.960 259.262,242.240 259.411,241.800 259.600 M237.896 260.384 C 237.068 260.544,236.288 260.778,236.163 260.904 C 235.856 261.210,239.188 260.767,240.200 260.367 L 241.000 260.051 240.200 260.071 C 239.760 260.083,238.723 260.223,237.896 260.384 M232.400 261.612 C 231.981 261.891,232.342 261.933,233.600 261.750 C 235.841 261.425,236.160 261.198,234.367 261.206 C 233.615 261.209,232.730 261.392,232.400 261.612 M226.094 262.394 C 222.774 262.772,222.442 263.186,225.668 262.925 C 228.425 262.701,231.468 262.056,229.600 262.091 C 229.050 262.101,227.472 262.238,226.094 262.394 M215.800 263.611 C 215.118 263.791,216.241 263.833,218.400 263.709 C 220.490 263.589,222.275 263.426,222.367 263.346 C 222.686 263.067,216.992 263.297,215.800 263.611 M319.462 268.269 C 319.323 269.111,319.207 270.709,319.204 271.820 C 319.202 272.931,318.975 274.092,318.700 274.401 C 318.275 274.878,318.304 274.882,318.900 274.432 C 319.324 274.111,319.600 273.369,319.600 272.551 C 319.600 271.808,319.780 271.200,320.000 271.200 C 320.483 271.200,320.525 268.016,320.051 267.269 C 319.822 266.908,319.634 267.227,319.462 268.269 M313.000 280.187 C 310.360 282.856,307.085 285.840,305.723 286.819 C 304.360 287.799,303.235 288.746,303.223 288.923 C 303.210 289.101,304.325 288.390,305.700 287.343 C 308.377 285.304,318.868 275.176,318.200 275.275 C 317.980 275.308,315.640 277.518,313.000 280.187 M301.500 289.903 C 300.895 290.278,300.400 290.729,300.400 290.905 C 300.400 291.080,300.940 290.825,301.600 290.337 C 302.655 289.557,303.027 289.176,302.700 289.211 C 302.645 289.216,302.105 289.528,301.500 289.903 M298.200 292.250 C 297.540 292.812,297.360 293.088,297.800 292.865 C 298.996 292.258,300.257 291.225,299.800 291.227 C 299.580 291.228,298.860 291.688,298.200 292.250 M295.300 294.046 C 293.937 294.919,293.495 295.506,294.700 294.843 C 295.618 294.339,297.056 293.227,296.800 293.219 C 296.690 293.216,296.015 293.588,295.300 294.046 M288.920 297.494 C 287.337 298.308,286.103 299.037,286.179 299.113 C 286.355 299.288,292.000 296.458,292.000 296.195 C 292.000 295.908,292.037 295.892,288.920 297.494 M115.019 300.726 C 115.175 301.097,115.378 301.850,115.469 302.400 C 116.556 308.931,116.896 310.807,117.208 312.000 C 117.410 312.770,117.929 314.840,118.361 316.600 C 119.556 321.469,121.876 328.748,123.205 331.800 C 125.861 337.895,131.866 348.858,133.174 350.000 C 133.300 350.110,134.418 351.460,135.659 353.000 C 143.203 362.365,152.485 369.093,164.113 373.625 C 169.479 375.716,169.593 375.630,165.241 372.763 C 145.657 359.861,139.951 337.210,149.812 311.513 C 150.063 310.859,149.118 310.544,143.400 309.369 C 141.640 309.008,138.850 308.351,137.200 307.909 C 135.550 307.468,133.660 306.964,133.000 306.790 C 128.024 305.481,119.748 302.555,116.667 301.017 C 115.062 300.215,114.782 300.166,115.019 300.726 M279.600 301.800 C 279.050 302.114,278.780 302.372,279.000 302.372 C 279.220 302.372,279.850 302.114,280.400 301.800 C 280.950 301.486,281.220 301.228,281.000 301.228 C 280.780 301.228,280.150 301.486,279.600 301.800 M273.288 304.099 C 272.126 304.545,271.240 304.973,271.318 305.052 C 271.492 305.225,276.400 303.594,276.400 303.363 C 276.400 303.054,275.394 303.292,273.288 304.099 M267.275 306.084 C 265.887 306.524,264.826 306.959,264.918 307.051 C 265.010 307.143,266.416 306.782,268.042 306.248 C 269.669 305.715,270.730 305.280,270.400 305.282 C 270.070 305.283,268.664 305.644,267.275 306.084 M260.600 308.400 L 259.800 308.744 260.600 308.766 C 261.040 308.778,261.670 308.613,262.000 308.400 C 262.795 307.886,261.796 307.886,260.600 308.400 M257.024 309.250 C 256.157 309.453,255.354 309.713,255.239 309.828 C 254.879 310.188,258.580 309.516,258.980 309.149 C 259.434 308.732,259.174 308.746,257.024 309.250 M253.200 310.386 C 253.200 310.864,256.001 312.800,256.693 312.800 C 256.972 312.800,257.202 312.935,257.205 313.100 C 257.207 313.265,257.972 313.757,258.905 314.194 C 259.837 314.631,260.690 315.081,260.800 315.194 C 261.276 315.685,263.672 316.861,263.845 316.689 C 264.063 316.470,262.930 315.770,256.268 312.005 C 254.602 311.064,254.087 310.591,254.468 310.350 C 254.849 310.108,254.744 310.011,254.100 310.006 C 253.605 310.003,253.200 310.174,253.200 310.386 M151.200 311.204 C 151.744 311.552,155.558 311.794,155.167 311.456 C 155.075 311.377,154.010 311.201,152.800 311.066 C 151.330 310.902,150.799 310.948,151.200 311.204 M162.500 312.676 C 162.885 312.776,163.515 312.776,163.900 312.676 C 164.285 312.575,163.970 312.493,163.200 312.493 C 162.430 312.493,162.115 312.575,162.500 312.676 M173.100 313.882 C 173.595 313.978,174.405 313.978,174.900 313.882 C 175.395 313.787,174.990 313.709,174.000 313.709 C 173.010 313.709,172.605 313.787,173.100 313.882 M185.600 316.818 C 193.755 324.233,212.449 338.250,212.386 336.903 C 212.378 336.736,211.192 335.880,209.749 335.000 C 208.307 334.120,206.756 333.085,206.302 332.700 C 205.849 332.315,205.370 332.000,205.239 331.999 C 205.107 331.999,204.370 331.459,203.600 330.800 C 202.830 330.141,202.078 329.601,201.929 329.601 C 201.779 329.600,201.419 329.375,201.129 329.100 C 200.838 328.825,199.520 327.802,198.200 326.827 C 196.880 325.851,195.710 324.951,195.600 324.827 C 195.418 324.620,192.085 321.866,190.245 320.401 C 189.830 320.070,188.300 318.678,186.845 317.306 C 185.390 315.934,184.020 314.814,183.800 314.815 C 183.580 314.817,184.390 315.718,185.600 316.818 M264.400 317.092 C 264.400 317.496,267.622 318.911,267.903 318.631 C 268.017 318.516,267.624 318.237,267.029 318.011 C 266.433 317.785,265.598 317.413,265.173 317.186 C 264.748 316.958,264.400 316.916,264.400 317.092 M268.400 318.960 C 268.400 319.232,271.597 320.801,272.112 320.782 C 272.381 320.772,271.790 320.330,270.800 319.800 C 269.046 318.861,268.400 318.635,268.400 318.960 M272.800 320.990 C 272.800 321.296,276.459 322.875,276.672 322.661 C 276.779 322.554,276.019 322.092,274.982 321.633 C 272.974 320.745,272.800 320.694,272.800 320.990 M277.600 323.200 C 277.600 323.420,277.924 323.600,278.320 323.600 C 278.716 323.600,279.211 323.757,279.420 323.948 C 279.629 324.140,280.340 324.407,281.000 324.542 C 281.782 324.702,281.450 324.441,280.049 323.794 C 277.595 322.661,277.600 322.662,277.600 323.200 M282.932 325.089 C 283.228 325.569,287.562 326.971,287.852 326.681 C 287.966 326.567,287.101 326.177,285.930 325.813 C 284.758 325.450,283.550 325.050,283.244 324.924 C 282.938 324.798,282.798 324.872,282.932 325.089 M289.000 327.200 C 289.136 327.420,289.642 327.587,290.124 327.572 C 290.969 327.545,290.971 327.531,290.200 327.200 C 289.099 326.727,288.708 326.727,289.000 327.200 M291.200 327.992 C 291.200 328.217,291.447 328.400,291.750 328.400 C 292.053 328.400,292.907 328.495,293.650 328.611 C 294.636 328.765,294.785 328.727,294.200 328.470 C 292.705 327.814,291.200 327.574,291.200 327.992 M296.000 329.200 C 296.000 329.420,296.546 329.600,297.213 329.600 C 298.847 329.600,299.110 330.527,297.836 331.800 C 297.266 332.370,296.800 333.014,296.800 333.230 C 296.800 333.447,296.170 334.178,295.400 334.854 C 294.630 335.530,294.000 336.284,294.000 336.529 C 294.000 336.774,293.066 337.921,291.923 339.078 C 290.781 340.234,289.972 341.306,290.126 341.459 C 290.396 341.729,292.305 339.830,295.200 336.412 C 295.970 335.503,296.825 334.511,297.100 334.208 C 297.375 333.905,297.600 333.546,297.600 333.409 C 297.600 333.273,298.050 332.745,298.600 332.235 C 299.150 331.725,299.600 331.119,299.600 330.887 C 299.600 330.656,299.825 330.387,300.100 330.289 C 300.375 330.192,299.622 329.817,298.427 329.456 C 295.863 328.682,296.000 328.696,296.000 329.200 M212.800 337.360 C 212.800 337.449,213.430 337.893,214.200 338.347 C 214.970 338.801,215.600 339.038,215.600 338.873 C 215.600 338.708,215.077 338.264,214.438 337.886 C 213.288 337.207,212.800 337.050,212.800 337.360 M216.000 339.360 C 216.000 339.449,216.630 339.893,217.400 340.347 C 218.170 340.801,218.800 341.038,218.800 340.873 C 218.800 340.708,218.277 340.264,217.638 339.886 C 216.488 339.207,216.000 339.050,216.000 339.360 M219.600 341.349 C 219.600 341.478,220.320 341.951,221.200 342.400 C 222.080 342.849,222.799 343.078,222.797 342.908 C 222.795 342.739,222.300 342.361,221.697 342.069 C 219.931 341.214,219.600 341.101,219.600 341.349 M287.365 343.700 C 284.012 347.167,279.316 351.600,278.996 351.600 C 278.723 351.600,276.812 353.121,274.486 355.188 C 273.983 355.634,273.476 356.000,273.359 356.000 C 273.040 356.000,270.292 358.091,269.551 358.898 C 268.977 359.523,268.844 359.535,268.402 359.002 C 268.127 358.671,267.282 358.400,266.525 358.400 C 265.767 358.400,264.844 358.244,264.474 358.054 C 263.708 357.660,259.299 357.033,259.631 357.365 C 259.751 357.484,261.724 357.951,264.017 358.403 C 266.309 358.855,268.338 359.378,268.526 359.566 C 269.051 360.091,270.346 359.601,270.607 358.777 C 270.741 358.357,271.079 358.132,271.396 358.254 C 271.702 358.371,272.186 358.092,272.472 357.633 C 272.758 357.175,273.211 356.800,273.478 356.800 C 273.745 356.800,274.414 356.350,274.964 355.800 C 275.514 355.250,276.145 354.800,276.366 354.800 C 276.588 354.800,277.482 354.080,278.353 353.200 C 279.224 352.320,280.049 351.600,280.186 351.600 C 280.451 351.600,281.331 350.918,282.119 350.102 C 282.384 349.828,283.194 348.973,283.919 348.202 C 284.645 347.431,285.365 346.801,285.519 346.802 C 285.946 346.804,290.288 342.021,290.063 341.796 C 289.677 341.410,289.369 341.628,287.365 343.700 M223.200 343.392 C 223.200 343.691,226.455 345.278,226.656 345.077 C 226.754 344.979,226.101 344.517,225.205 344.049 C 223.518 343.170,223.200 343.066,223.200 343.392 M227.370 345.552 C 227.490 345.745,227.995 346.006,228.494 346.132 C 229.368 346.352,229.373 346.340,228.624 345.780 C 227.764 345.138,227.032 345.004,227.370 345.552 M232.800 348.271 C 233.790 348.902,235.320 349.714,236.200 350.073 C 240.148 351.687,243.093 352.764,244.200 353.001 C 246.137 353.414,244.843 352.619,242.200 351.772 C 240.880 351.349,239.710 350.897,239.600 350.767 C 239.490 350.636,239.040 350.422,238.600 350.291 C 236.795 349.753,234.907 348.962,233.982 348.357 C 233.442 348.004,232.550 347.582,232.000 347.419 C 231.383 347.236,231.690 347.562,232.800 348.271 M248.189 354.233 C 249.723 354.769,251.163 355.137,251.389 355.050 C 251.834 354.880,251.668 354.812,248.454 353.845 C 245.205 352.868,245.027 353.129,248.189 354.233 M254.200 356.026 C 257.773 357.147,258.948 357.364,258.626 356.843 C 258.476 356.599,257.958 356.397,257.476 356.394 C 256.994 356.391,255.880 356.129,255.000 355.812 C 254.120 355.495,253.040 355.244,252.600 355.254 C 252.160 355.264,252.880 355.612,254.200 356.026 " stroke="none" fill="#8474b4" fill-rule="evenodd"></path><path id="path3" d="M185.121 65.673 C 165.561 81.211,157.336 90.824,153.868 102.200 C 151.951 108.486,151.800 109.759,151.800 119.600 C 151.800 130.521,152.442 136.349,155.170 150.200 C 155.387 151.300,155.857 153.820,156.216 155.800 C 156.574 157.780,157.111 160.660,157.408 162.200 C 158.405 167.359,161.551 186.945,162.195 192.000 C 162.545 194.750,163.002 197.900,163.211 199.000 C 163.580 200.946,164.118 205.089,164.794 211.200 C 164.976 212.850,165.253 215.031,165.410 216.047 C 166.017 219.989,165.156 218.830,158.286 206.450 C 155.030 200.584,148.640 187.427,146.163 181.490 C 145.591 180.121,144.895 178.460,144.616 177.800 C 144.337 177.140,143.790 175.790,143.400 174.800 C 143.010 173.810,142.473 172.460,142.206 171.800 C 141.939 171.140,141.495 169.970,141.220 169.200 C 140.944 168.430,140.567 167.440,140.381 167.000 C 139.952 165.984,136.206 154.517,135.351 151.600 C 134.996 150.390,134.563 148.950,134.389 148.400 C 134.214 147.850,133.750 146.091,133.357 144.491 C 132.493 140.981,132.303 141.229,130.204 148.600 C 129.828 149.920,129.373 151.360,129.194 151.800 C 129.015 152.240,128.662 153.410,128.410 154.400 C 128.158 155.390,127.773 156.830,127.553 157.600 C 127.334 158.370,126.986 159.720,126.780 160.600 C 126.334 162.502,125.595 165.162,125.280 166.000 C 125.155 166.330,124.828 167.590,124.552 168.800 C 124.277 170.010,123.850 171.810,123.605 172.800 C 123.062 174.990,122.034 179.759,121.752 181.400 C 121.638 182.060,121.391 182.960,121.202 183.400 C 121.013 183.840,120.665 185.460,120.429 187.000 C 120.193 188.540,119.813 190.700,119.584 191.800 C 118.439 197.321,116.455 210.897,115.582 219.200 C 115.385 221.070,115.139 223.140,115.034 223.800 C 114.674 226.082,113.594 246.641,113.252 257.705 C 112.882 269.714,113.250 281.525,114.358 293.200 L 115.022 300.200 116.811 301.089 C 119.797 302.572,128.151 305.514,133.000 306.790 C 133.660 306.964,135.550 307.472,137.200 307.918 C 138.850 308.365,142.025 309.104,144.256 309.561 C 146.487 310.018,148.557 310.469,148.856 310.563 C 150.311 311.023,153.654 311.211,153.411 310.818 C 153.269 310.588,152.550 310.400,151.814 310.400 C 150.645 310.400,150.503 310.292,150.697 309.550 C 151.283 307.310,156.879 297.445,160.036 293.086 C 161.535 291.018,161.684 291.496,158.053 286.719 C 148.011 273.505,137.159 254.943,130.622 239.800 C 129.767 237.820,128.754 235.480,128.370 234.600 C 127.368 232.302,124.498 224.706,123.551 221.842 C 123.106 220.499,122.592 219.040,122.407 218.600 C 122.223 218.160,121.591 216.180,121.004 214.200 C 120.417 212.220,119.771 210.078,119.568 209.440 C 119.112 208.003,119.112 208.000,119.600 208.000 C 119.820 208.000,120.000 208.272,120.000 208.605 C 120.000 208.938,120.169 209.523,120.375 209.905 C 120.581 210.287,121.240 211.950,121.839 213.600 C 132.115 241.906,153.282 259.126,183.000 263.357 C 193.387 264.836,217.620 265.242,220.480 263.985 C 221.167 263.683,220.690 263.632,218.600 263.783 C 217.060 263.895,211.930 264.097,207.200 264.231 L 198.600 264.476 197.600 263.538 C 195.817 261.866,192.187 257.428,191.718 256.348 C 191.466 255.769,190.117 253.879,188.719 252.148 C 184.240 246.599,179.002 239.544,175.395 234.200 C 173.464 231.340,171.641 228.716,171.342 228.369 C 170.514 227.404,170.532 227.310,174.778 210.216 C 178.388 195.682,179.616 190.627,181.437 182.800 C 181.769 181.370,182.296 179.120,182.607 177.800 C 184.323 170.523,186.258 161.748,187.193 157.000 C 187.367 156.120,188.138 152.250,188.907 148.400 C 190.486 140.496,191.662 134.067,192.603 128.200 C 193.787 120.813,195.539 117.174,201.498 109.725 C 203.908 106.711,204.365 105.919,204.036 105.325 C 203.370 104.120,201.200 99.165,201.200 98.847 C 201.200 98.684,200.835 97.795,200.390 96.873 C 199.944 95.950,199.471 94.656,199.340 93.998 C 199.208 93.339,198.987 92.800,198.850 92.800 C 198.712 92.800,198.252 91.675,197.827 90.300 C 197.401 88.925,196.939 87.620,196.800 87.400 C 196.660 87.180,196.221 85.920,195.823 84.600 C 195.426 83.280,194.943 81.887,194.750 81.505 C 194.558 81.123,194.400 80.459,194.400 80.029 C 194.400 79.599,194.241 79.149,194.046 79.029 C 193.852 78.908,193.567 77.971,193.413 76.946 C 193.259 75.921,192.982 74.794,192.797 74.441 C 192.268 73.431,191.200 69.056,191.200 67.897 C 191.200 67.320,191.020 66.736,190.800 66.600 C 190.580 66.464,190.398 65.868,190.395 65.276 C 190.376 61.682,190.121 61.701,185.121 65.673 M273.933 187.100 C 274.419 188.043,275.342 190.213,276.187 192.400 C 276.569 193.390,277.007 194.470,277.160 194.800 C 277.313 195.130,277.769 196.480,278.175 197.800 C 278.580 199.120,279.050 200.560,279.219 201.000 C 281.556 207.092,282.727 222.348,281.242 227.357 C 281.040 228.040,280.551 229.680,280.156 231.000 C 279.345 233.716,276.657 239.174,275.541 240.371 C 275.133 240.809,274.795 241.309,274.789 241.483 C 274.767 242.097,269.012 247.743,267.000 249.125 C 266.779 249.276,265.936 249.895,265.126 250.500 C 264.316 251.105,263.406 251.600,263.103 251.600 C 262.801 251.600,262.204 251.873,261.776 252.206 C 261.035 252.785,261.047 252.802,262.045 252.576 C 263.234 252.308,263.011 250.920,264.010 264.800 C 264.569 272.562,264.327 294.202,263.615 300.200 C 262.792 307.136,262.724 307.383,261.600 307.534 C 261.050 307.607,260.429 307.832,260.220 308.034 C 260.011 308.235,259.347 308.400,258.744 308.400 C 258.141 308.400,257.536 308.580,257.400 308.800 C 257.008 309.435,260.752 308.630,263.000 307.596 C 263.440 307.394,265.330 306.757,267.200 306.181 C 270.893 305.043,274.726 303.709,278.800 302.144 C 282.966 300.544,293.540 295.237,296.755 293.134 C 298.381 292.070,299.866 291.200,300.055 291.200 C 300.245 291.200,300.400 291.059,300.400 290.886 C 300.400 290.714,300.972 290.235,301.670 289.822 C 302.369 289.409,303.224 288.841,303.570 288.559 C 303.917 288.277,305.640 286.892,307.400 285.480 C 309.160 284.069,312.535 280.909,314.900 278.458 L 319.200 274.002 319.204 271.901 C 319.211 268.916,319.632 266.609,320.051 267.269 C 320.255 267.590,320.390 266.824,320.394 265.333 C 320.398 263.795,320.223 262.808,319.930 262.710 C 319.646 262.615,319.335 261.057,319.144 258.777 C 318.613 252.429,316.694 243.955,314.710 239.200 C 314.481 238.650,314.148 237.840,313.972 237.400 C 313.795 236.960,313.099 235.372,312.425 233.872 C 311.751 232.372,311.200 230.992,311.200 230.805 C 311.200 230.619,311.065 230.407,310.900 230.333 C 310.735 230.260,310.245 229.480,309.811 228.600 C 308.233 225.403,301.200 214.641,300.008 213.600 C 299.882 213.490,299.155 212.590,298.392 211.600 C 297.628 210.610,296.472 209.207,295.822 208.482 C 295.171 207.758,294.360 206.774,294.020 206.297 C 292.972 204.831,274.405 186.400,273.976 186.400 C 273.720 186.400,273.705 186.657,273.933 187.100 M258.800 253.820 C 257.810 254.339,257.242 254.772,257.538 254.782 C 257.969 254.796,259.261 254.203,260.767 253.300 C 261.812 252.673,260.149 253.113,258.800 253.820 M254.400 255.819 C 253.410 256.333,252.778 256.763,252.996 256.776 C 253.644 256.815,256.797 255.425,256.799 255.100 C 256.801 254.661,256.402 254.780,254.400 255.819 M249.600 257.569 C 246.773 258.609,246.480 258.819,248.200 258.569 C 249.080 258.442,249.971 258.172,250.180 257.969 C 250.389 257.766,250.873 257.600,251.256 257.600 C 251.639 257.600,252.064 257.420,252.200 257.200 C 252.531 256.664,251.766 256.772,249.600 257.569 M242.427 259.725 C 239.321 260.589,238.987 261.161,242.044 260.382 C 243.010 260.136,244.297 259.839,244.905 259.721 C 246.020 259.506,246.895 258.757,245.924 258.850 C 245.636 258.877,244.062 259.271,242.427 259.725 M236.200 261.200 C 235.558 261.476,235.697 261.549,236.900 261.572 C 237.725 261.587,238.400 261.420,238.400 261.200 C 238.400 260.722,237.312 260.722,236.200 261.200 M231.226 262.054 C 230.030 262.252,228.950 262.524,228.826 262.657 C 228.488 263.019,234.105 262.375,234.800 261.972 C 235.571 261.525,234.232 261.556,231.226 262.054 M223.400 263.200 C 222.408 263.452,222.595 263.514,224.476 263.553 C 225.728 263.579,226.864 263.420,227.000 263.200 C 227.285 262.738,225.215 262.738,223.400 263.200 M253.800 309.489 C 253.360 309.598,252.820 309.823,252.600 309.991 C 251.632 310.728,242.233 312.287,231.000 313.574 C 222.910 314.501,210.935 314.904,197.200 314.713 C 189.390 314.604,183.302 314.624,183.671 314.758 C 184.040 314.891,185.502 316.080,186.920 317.400 C 188.338 318.720,189.837 320.070,190.249 320.401 C 192.311 322.052,195.423 324.626,195.600 324.827 C 195.710 324.951,196.880 325.851,198.200 326.827 C 199.520 327.802,200.838 328.825,201.129 329.100 C 201.419 329.375,201.779 329.600,201.929 329.601 C 202.078 329.601,202.830 330.141,203.600 330.800 C 204.370 331.459,205.122 331.999,205.271 331.999 C 205.421 332.000,205.781 332.227,206.071 332.505 C 206.362 332.782,207.860 333.813,209.400 334.796 C 210.940 335.779,212.290 336.697,212.400 336.837 C 212.510 336.977,212.973 337.208,213.429 337.351 C 213.886 337.493,214.611 337.922,215.040 338.305 C 215.470 338.687,216.492 339.343,217.311 339.763 C 218.130 340.183,218.800 340.678,218.800 340.863 C 218.800 341.048,219.087 341.200,219.438 341.200 C 220.012 341.200,222.296 342.290,222.800 342.804 C 222.910 342.916,225.160 344.055,227.800 345.336 C 230.440 346.616,232.915 347.829,233.300 348.031 C 235.937 349.420,238.301 350.400,239.014 350.400 C 239.336 350.400,239.602 350.535,239.603 350.700 C 239.605 350.865,240.730 351.347,242.103 351.770 C 243.477 352.194,244.870 352.678,245.200 352.847 C 245.530 353.015,246.880 353.452,248.200 353.817 C 249.520 354.181,250.960 354.627,251.400 354.806 C 252.240 355.148,255.102 355.919,256.800 356.259 C 257.350 356.370,258.160 356.619,258.600 356.813 C 259.366 357.150,262.798 357.807,266.200 358.267 C 267.080 358.387,268.234 358.870,268.765 359.342 C 269.295 359.814,269.598 359.974,269.439 359.697 C 268.986 358.911,270.356 357.706,270.874 358.435 C 271.202 358.896,271.238 358.881,271.070 358.351 C 270.894 357.797,272.652 356.000,273.370 356.000 C 273.481 356.000,273.983 355.634,274.486 355.188 C 277.686 352.344,278.849 351.533,279.418 351.752 C 279.761 351.883,279.942 351.830,279.821 351.633 C 279.699 351.437,280.890 350.044,282.467 348.538 C 284.044 347.032,286.262 344.848,287.396 343.685 C 288.945 342.096,289.649 341.633,290.229 341.823 C 290.855 342.028,290.887 341.996,290.400 341.652 C 289.899 341.299,290.147 340.877,291.900 339.102 C 293.055 337.932,294.000 336.789,294.000 336.562 C 294.000 335.907,296.293 333.887,296.730 334.157 C 296.958 334.298,297.042 334.084,296.929 333.652 C 296.807 333.185,297.137 332.500,297.803 331.834 C 299.108 330.529,298.863 329.600,297.213 329.600 C 296.546 329.600,296.000 329.443,296.000 329.252 C 296.000 329.060,294.920 328.781,293.600 328.632 C 292.280 328.482,291.200 328.189,291.200 327.980 C 291.200 327.771,290.761 327.600,290.224 327.600 C 289.687 327.600,289.151 327.444,289.032 327.253 C 288.914 327.061,288.074 326.786,287.165 326.641 C 286.257 326.496,284.785 326.025,283.895 325.595 C 283.005 325.165,281.673 324.700,280.934 324.561 C 280.195 324.423,279.493 324.150,279.372 323.955 C 279.251 323.760,278.803 323.600,278.376 323.600 C 277.949 323.600,277.600 323.420,277.600 323.200 C 277.600 322.980,277.303 322.800,276.940 322.800 C 276.577 322.800,275.272 322.332,274.040 321.761 C 272.808 321.189,270.630 320.182,269.200 319.523 C 267.770 318.864,266.150 318.117,265.600 317.863 C 265.050 317.609,264.510 317.311,264.400 317.201 C 264.290 317.090,263.480 316.642,262.600 316.204 C 261.720 315.766,260.910 315.313,260.800 315.198 C 260.690 315.082,259.837 314.631,258.905 314.194 C 257.972 313.757,257.207 313.265,257.205 313.100 C 257.202 312.935,256.972 312.800,256.693 312.800 C 254.999 312.800,252.454 310.023,254.100 309.972 C 254.595 309.956,255.360 309.789,255.800 309.600 C 256.734 309.199,255.304 309.120,253.800 309.489 M158.000 311.813 C 159.650 312.108,161.450 312.350,162.000 312.350 C 164.207 312.349,161.381 311.714,158.200 311.495 L 155.000 311.275 158.000 311.813 M165.400 312.800 C 167.165 313.249,169.645 313.249,168.600 312.800 C 168.160 312.611,166.990 312.465,166.000 312.475 C 164.375 312.493,164.317 312.524,165.400 312.800 M174.200 313.590 C 179.157 314.162,183.017 314.368,182.400 314.029 C 182.070 313.848,179.460 313.602,176.600 313.483 C 172.904 313.330,172.210 313.361,174.200 313.590 M288.770 343.500 L 287.800 344.600 289.000 343.600 C 289.660 343.050,290.275 342.555,290.367 342.500 C 290.458 342.445,290.355 342.400,290.136 342.400 C 289.918 342.400,289.303 342.895,288.770 343.500 " stroke="none" fill="#7866aa" fill-rule="evenodd"></path><path id="path4" d="M119.200 208.140 C 119.200 208.217,119.366 208.802,119.568 209.440 C 119.771 210.078,120.417 212.220,121.004 214.200 C 121.591 216.180,122.223 218.160,122.407 218.600 C 122.592 219.040,123.106 220.499,123.551 221.842 C 124.498 224.706,127.368 232.302,128.370 234.600 C 128.754 235.480,129.767 237.820,130.622 239.800 C 137.159 254.943,148.011 273.505,158.053 286.719 C 161.684 291.496,161.535 291.018,160.036 293.086 C 156.879 297.445,151.283 307.310,150.697 309.550 C 150.504 310.288,150.646 310.400,151.771 310.400 C 152.484 310.400,153.200 310.535,153.363 310.700 C 153.526 310.865,155.581 311.224,157.930 311.498 C 160.278 311.772,163.640 312.177,165.400 312.398 C 167.160 312.618,171.750 313.071,175.600 313.405 C 179.450 313.738,184.310 314.170,186.400 314.365 C 191.646 314.855,212.455 314.883,220.207 314.410 C 233.662 313.590,251.068 311.189,252.658 309.934 C 252.909 309.735,254.040 309.463,255.169 309.329 C 256.299 309.195,257.319 308.931,257.435 308.743 C 257.552 308.554,258.141 308.400,258.744 308.400 C 259.347 308.400,260.011 308.235,260.220 308.034 C 260.429 307.832,261.050 307.607,261.600 307.534 C 262.724 307.383,262.792 307.136,263.615 300.200 C 264.327 294.202,264.569 272.562,264.010 264.800 C 263.010 250.914,263.234 252.305,262.049 252.602 C 261.477 252.746,260.916 252.984,260.804 253.132 C 260.418 253.639,258.076 254.800,257.438 254.800 C 257.087 254.800,256.799 254.935,256.799 255.100 C 256.798 255.265,255.943 255.731,254.899 256.136 C 252.427 257.093,251.143 257.623,250.387 257.996 C 250.050 258.162,249.150 258.422,248.387 258.572 C 247.624 258.723,246.640 258.991,246.200 259.168 C 244.296 259.932,242.320 260.447,240.429 260.671 C 239.313 260.803,238.400 261.066,238.400 261.256 C 238.400 261.445,237.758 261.600,236.974 261.600 C 236.189 261.600,235.230 261.770,234.843 261.977 C 234.455 262.184,232.712 262.468,230.969 262.607 C 229.226 262.746,227.440 263.019,227.000 263.214 C 226.560 263.409,225.030 263.655,223.600 263.761 C 222.170 263.867,218.840 264.130,216.200 264.346 C 167.496 268.334,135.453 251.102,121.839 213.600 C 121.240 211.950,120.581 210.287,120.375 209.905 C 120.169 209.523,120.000 208.938,120.000 208.605 C 120.000 208.272,119.820 208.000,119.600 208.000 C 119.380 208.000,119.200 208.063,119.200 208.140 M284.122 348.200 C 283.860 348.485,283.410 348.802,283.122 348.904 C 282.835 349.007,282.693 349.193,282.806 349.318 C 282.919 349.443,283.457 349.210,284.000 348.800 C 284.543 348.390,284.901 347.971,284.794 347.868 C 284.687 347.765,284.385 347.914,284.122 348.200 " stroke="none" fill="#64549c" fill-rule="evenodd"></path></g></svg>