<svg width="25" height="35" viewBox="0 0 25 35" fill="none" xmlns="http://www.w3.org/2000/svg">
<g clip-path="url(#clip0_25_129)">
<path d="M12.3959 34.9116L2.29511 32.1075L0.0441589 6.86096H24.7778L22.5245 32.1036L12.3959 34.9116V34.9116Z" fill="#264DE4"/>
<path d="M20.5955 30.4963L22.521 8.9252H12.411V32.7652L20.5955 30.4963V30.4963Z" fill="#2965F1"/>
<path d="M5.2044 18.2888L5.48188 21.3852H12.411V18.2888H5.2044ZM4.64673 12.0217L4.92818 15.1181H12.411V12.0217H4.64673V12.0217ZM12.411 26.3305L12.3974 26.3341L8.94901 25.4029L8.72854 22.9334H5.62023L6.054 27.7952L12.3968 29.5559L12.411 29.552V26.3305Z" fill="#EBEBEB"/>
<path d="M5.86511 0H9.61525V1.56831H7.43342V3.13662H9.61544V4.70483H5.86511V0ZM10.3654 0H14.1156V1.36374H11.9337V1.63647H14.1156V4.77309H10.3655V3.341H12.5474V3.06827H10.3653V0H10.3654ZM14.8657 0H18.616V1.36374H16.434V1.63647H18.616V4.77309H14.8657V3.341H17.0477V3.06827H14.8658V0H14.8657Z" fill="white"/>
<path d="M19.5978 18.2888L20.1568 12.0217H12.4003V15.1181H16.7634L16.4817 18.2888H12.4003V21.3852H16.2132L15.8537 25.401L12.4002 26.3331V29.5545L18.748 27.7952L18.7946 27.2721L19.5223 19.1203L19.5978 18.2888V18.2888Z" fill="white"/>
</g>
<defs>
<clipPath id="clip0_25_129">
<rect width="24.822" height="35" fill="white"/>
</clipPath>
</defs>
</svg>
