<svg width="30" height="30" viewBox="0 0 30 30" fill="none" xmlns="http://www.w3.org/2000/svg">
<g clip-path="url(#clip0_27_9)">
<path d="M26.9417 4.99999C26.8281 4.98828 26.7136 4.98828 26.6 4.99999H3.26668C3.11713 5.00229 2.96858 5.02472 2.82501 5.06666L14.8667 17.0583L26.9417 4.99999Z" fill="#EEEEEE"/>
<path d="M28.175 6.15833L16.0417 18.2417C15.7294 18.5521 15.307 18.7263 14.8667 18.7263C14.4264 18.7263 14.0039 18.5521 13.6917 18.2417L1.66667 6.24999C1.6297 6.38586 1.6101 6.52586 1.60834 6.66666V23.3333C1.60834 23.7754 1.78393 24.1993 2.09649 24.5118C2.40905 24.8244 2.83298 25 3.275 25H26.6083C27.0504 25 27.4743 24.8244 27.7868 24.5118C28.0994 24.1993 28.275 23.7754 28.275 23.3333V6.66666C28.2684 6.49304 28.2346 6.32152 28.175 6.15833ZM4.41667 23.3333H3.25834V22.1417L9.31667 16.1333L10.4917 17.3083L4.41667 23.3333ZM26.5917 23.3333H25.425L19.35 17.3083L20.525 16.1333L26.5833 22.1417L26.5917 23.3333Z" fill="#EEEEEE"/>
</g>
<defs>
<clipPath id="clip0_27_9">
<rect width="30" height="30" fill="white"/>
</clipPath>
</defs>
</svg>
