<svg width="35" height="35" viewBox="0 0 35 35" fill="none" xmlns="http://www.w3.org/2000/svg">
<path d="M19.4688 9.39641C21.7427 14.4102 27.825 16.5058 27.2792 23.0398C26.6427 30.7147 21.2078 32.6473 18.1836 32.7841C15.7522 32.9727 13.3397 32.233 11.432 30.7139C9.5242 29.1948 8.26299 27.0092 7.90235 24.5973C6.1447 16.4566 13.8414 3.9725 18.2755 2.1875C18.1294 4.64946 18.5371 7.11284 19.4688 9.39641V9.39641ZM19.2872 30.0212C19.3015 29.9605 19.3033 29.8975 19.2926 29.8361C19.2819 29.7746 19.2588 29.7159 19.2249 29.6636C18.5763 28.4605 12.8702 27.8644 11.6703 27.7473C12.2039 28.295 12.8048 28.7727 13.4586 29.1692C14.4008 29.7452 15.4462 30.132 16.5364 30.3078C17.4147 30.4402 19.1045 30.5517 19.2883 30.0202L19.2872 30.0212Z" fill="#7C648F"/>
<path opacity="0.25" d="M19.9587 11.6134C24.8478 16.8886 27.008 17.0592 26.7805 23.0737C26.5081 30.1569 21.8116 32.0326 19.0608 32.2831C14.467 32.8858 10.8631 30.6119 9.91921 26.064C7.99749 18.6626 14.1947 6.58764 18.1967 4.76874C18.297 7.14373 18.9014 9.47022 19.9697 11.5937L19.9587 11.6134Z" fill="#26003D"/>
<path opacity="0.75" d="M19.0149 10.8511C22.2786 15.3125 26.5989 14.9844 27.3438 21.4823C27.4466 29.0544 23.4063 31.6356 20.522 32.363C15.6002 33.7619 11.2099 31.6575 9.48173 26.8942C6.1622 19.238 12.3813 6.64453 16.3833 4.01843C16.7273 6.45734 17.613 8.78827 18.9755 10.8402L19.0149 10.8511Z" fill="url(#paint0_linear_25_154)"/>
<defs>
<linearGradient id="paint0_linear_25_154" x1="18.8661" y1="32.3717" x2="16.3767" y2="4.36843" gradientUnits="userSpaceOnUse">
<stop stop-color="white" stop-opacity="0"/>
<stop offset="0.01" stop-color="#F7F6F8" stop-opacity="0.04"/>
<stop offset="0.09" stop-color="#AA9CB3" stop-opacity="0.39"/>
<stop offset="0.2" stop-color="#6F567E" stop-opacity="0.66"/>
<stop offset="0.32" stop-color="#452459" stop-opacity="0.86"/>
<stop offset="0.5" stop-color="#2D0843" stop-opacity="0.97"/>
<stop offset="1" stop-color="#26003D"/>
</linearGradient>
</defs>
</svg>
