<svg width="25" height="35" viewBox="0 0 25 35" fill="none" xmlns="http://www.w3.org/2000/svg">
<g clip-path="url(#clip0_25_123)">
<path d="M24.7778 6.86096L22.5245 32.1036L12.3959 34.9116L2.29513 32.1075L0.0441742 6.86096H24.7778Z" fill="#E44D26"/>
<path d="M12.411 32.7652L20.5955 30.4963L22.521 8.9252H12.411V32.7652Z" fill="#F16529"/>
<path d="M8.03066 15.1181H12.411V12.0217H4.64671L4.72079 12.8524L5.48187 21.3852H12.411V18.2888H8.31367L8.03066 15.1181V15.1181ZM8.72853 22.9334H5.62022L6.05398 27.7952L12.3967 29.5559L12.411 29.552V26.3305L12.3974 26.3341L8.949 25.4029L8.72853 22.9334Z" fill="#EBEBEB"/>
<path d="M2.34535 0H3.9189V1.55464H5.35836V0H6.932V4.70784H5.35845V3.13139H3.91899V4.70784H2.34545V0H2.34535ZM9.00117 1.56123H7.6161V0H11.9609V1.56123H10.575V4.70784H9.00146V1.56123H9.00136H9.00117ZM12.6505 0H14.2912L15.3005 1.65421L16.3088 0H17.9502V4.70784H16.3831V2.37438L15.3005 4.04827H15.2733L14.1901 2.37438V4.70784H12.6505V0ZM18.7333 0H20.3073V3.15175H22.5202V4.70784H18.7332V0H18.7333Z" fill="white"/>
<path d="M12.4003 21.3852H16.2132L15.8537 25.401L12.4002 26.3331V29.5545L18.748 27.7952L18.7946 27.2721L19.5223 19.1203L19.5978 18.2888H12.4003V21.3852ZM12.4003 15.1105V15.1181H19.8796L19.9416 14.4221L20.0828 12.8524L20.1568 12.0217H12.4003V15.1106V15.1105Z" fill="white"/>
</g>
<defs>
<clipPath id="clip0_25_123">
<rect width="24.822" height="35" fill="white"/>
</clipPath>
</defs>
</svg>
