<svg width="30" height="30" viewBox="0 0 30 30" fill="none" xmlns="http://www.w3.org/2000/svg">
<g clip-path="url(#clip0_25_113)">
<path d="M27.6316 24.1053C28.2398 24.1056 28.8246 24.3399 29.2648 24.7596C29.705 25.1793 29.9669 25.7523 29.9961 26.3599C30.0253 26.9674 29.8197 27.5629 29.4218 28.0229C29.024 28.483 28.4643 28.7724 27.8589 28.831L27.6316 28.8421H2.36842C1.76018 28.8418 1.17538 28.6075 0.735179 28.1878C0.294981 27.768 0.0331389 27.195 0.00390906 26.5875C-0.0253208 25.98 0.180303 25.3845 0.578172 24.9244C0.976041 24.4644 1.53565 24.175 2.14105 24.1163L2.36842 24.1053H27.6316ZM27.6316 13.0526C28.2597 13.0526 28.8621 13.3022 29.3063 13.7463C29.7505 14.1905 30 14.7929 30 15.4211C30 16.0492 29.7505 16.6516 29.3063 17.0958C28.8621 17.5399 28.2597 17.7895 27.6316 17.7895H2.36842C1.74028 17.7895 1.13786 17.5399 0.693695 17.0958C0.249529 16.6516 0 16.0492 0 15.4211C0 14.7929 0.249529 14.1905 0.693695 13.7463C1.13786 13.3022 1.74028 13.0526 2.36842 13.0526H27.6316ZM27.6316 2C28.2597 2 28.8621 2.24953 29.3063 2.69369C29.7505 3.13786 30 3.74028 30 4.36842C30 4.99657 29.7505 5.59898 29.3063 6.04315C28.8621 6.48731 28.2597 6.73684 27.6316 6.73684H2.36842C1.74028 6.73684 1.13786 6.48731 0.693695 6.04315C0.249529 5.59898 0 4.99657 0 4.36842C0 3.74028 0.249529 3.13786 0.693695 2.69369C1.13786 2.24953 1.74028 2 2.36842 2H27.6316Z" fill="#FF8811"/>
</g>
<defs>
<clipPath id="clip0_25_113">
<rect width="30" height="30" fill="white"/>
</clipPath>
</defs>
</svg>
