<svg width="35" height="35" viewBox="0 0 35 35" fill="none" xmlns="http://www.w3.org/2000/svg">
<g clip-path="url(#clip0_25_135)">
<path d="M0 0H35V35H0V0Z" fill="#F7DF1E"/>
<path d="M9.2028 29.2485L11.8811 27.6276C12.3979 28.5437 12.868 29.3189 13.9955 29.3189C15.0762 29.3189 15.7578 28.8962 15.7578 27.2517V16.0684H19.0468V27.2982C19.0468 30.7048 17.0499 32.2555 14.1364 32.2555C11.5053 32.2555 9.978 30.8928 9.20267 29.2482M20.8333 28.8961L23.5114 27.3455C24.2164 28.4968 25.1327 29.3426 26.7537 29.3426C28.1166 29.3426 28.9856 28.6612 28.9856 27.7214C28.9856 26.5937 28.0928 26.1942 26.5892 25.5366L25.7671 25.1839C23.3941 24.1739 21.82 22.9052 21.82 20.2269C21.82 17.7599 23.6995 15.8803 26.6364 15.8803C28.7273 15.8803 30.231 16.6087 31.3116 18.5117L28.7506 20.1564C28.1866 19.1462 27.576 18.7469 26.6362 18.7469C25.6729 18.7469 25.062 19.3577 25.062 20.1564C25.062 21.1431 25.6729 21.5428 27.0825 22.1536L27.9047 22.506C30.7006 23.7043 32.2746 24.9259 32.2746 27.6745C32.2746 30.635 29.9488 32.2559 26.8241 32.2559C23.7699 32.2559 21.7964 30.7993 20.8332 28.8962" fill="white"/>
</g>
<defs>
<clipPath id="clip0_25_135">
<rect width="35" height="35" fill="white"/>
</clipPath>
</defs>
</svg>
