<svg width="26" height="35" viewBox="0 0 26 35" fill="none" xmlns="http://www.w3.org/2000/svg">
<g clip-path="url(#clip0_25_161)">
<path d="M8.35286 27.0565C8.35286 27.0565 7.0178 27.8329 9.30302 28.0956C12.0716 28.4114 13.4864 28.3662 16.5374 27.7887C16.5374 27.7887 17.3396 28.2916 18.4597 28.7273C11.6204 31.6585 2.98087 28.5575 8.35286 27.0565M7.51711 23.2314C7.51711 23.2314 6.0197 24.3399 8.30663 24.5764C11.264 24.8814 13.5995 24.9064 17.6409 24.1282C17.6409 24.1282 18.1999 24.6949 19.0788 25.0049C10.8096 27.4229 1.59928 25.1955 7.51711 23.2314" fill="#5382A1"/>
<path d="M14.5626 16.7428C16.2479 18.683 14.1199 20.429 14.1199 20.429C14.1199 20.429 18.3989 18.22 16.4337 15.4538C14.5983 12.8743 13.1907 11.5925 20.8105 7.17337C20.8105 7.17337 8.85003 10.1605 14.5626 16.7427" fill="#E76F00"/>
<path d="M23.6082 29.8857C23.6082 29.8857 24.5962 30.6997 22.5201 31.3295C18.5723 32.5255 6.08908 32.8866 2.62125 31.3772C1.3747 30.835 3.71242 30.0824 4.44772 29.9244C5.21459 29.7581 5.6529 29.7891 5.6529 29.7891C4.26655 28.8125 -3.30781 31.7067 1.80553 32.5355C15.7502 34.797 27.2252 31.5173 23.6082 29.8857ZM8.99479 19.2682C8.99479 19.2682 2.64512 20.7764 6.74629 21.324C8.47788 21.5558 11.9298 21.5034 15.1453 21.234C17.7731 21.0124 20.4118 20.541 20.4118 20.541C20.4118 20.541 19.4852 20.9379 18.8148 21.3956C12.3667 23.0915 -0.0898361 22.3026 3.49625 20.5678C6.52901 19.1019 8.99489 19.2682 8.99489 19.2682M20.3856 25.6352C26.9405 22.229 23.9097 18.9558 21.7944 19.3969C21.2758 19.5047 21.0447 19.5982 21.0447 19.5982C21.0447 19.5982 21.2372 19.2967 21.6048 19.1662C25.7896 17.6949 29.0081 23.5055 20.2539 25.8068C20.2539 25.8069 20.3553 25.7163 20.3856 25.6352Z" fill="#5382A1"/>
<path d="M16.4337 0.0375157C16.4337 0.0375157 20.0639 3.66902 12.9907 9.25293C7.31875 13.7323 11.6973 16.2863 12.9883 19.2044C9.67751 16.2172 7.24774 13.5876 8.87787 11.1402C11.2703 7.54744 17.8984 5.80564 16.4337 0.0374146" fill="#E76F00"/>
<path d="M9.63896 34.8649C15.9308 35.2678 25.5925 34.6415 25.8213 31.6644C25.8213 31.6644 25.3815 32.7931 20.6215 33.6893C15.2513 34.6999 8.62801 34.5819 4.69962 33.9342C4.69972 33.9342 5.50381 34.5998 9.63907 34.8649" fill="#5382A1"/>
</g>
<defs>
<clipPath id="clip0_25_161">
<rect width="25.9" height="35" fill="white"/>
</clipPath>
</defs>
</svg>
