<svg width="36" height="35" viewBox="0 0 36 35" fill="none" xmlns="http://www.w3.org/2000/svg">
<g clip-path="url(#clip0_25_158)">
<path d="M17.4241 0.0098877C8.52563 0.0098877 9.08124 3.86881 9.08124 3.86881L9.09112 7.86677H17.5828V9.06706H5.71836C5.71836 9.06706 0.0242004 8.42128 0.0242004 17.3998C0.0242004 26.3786 4.9942 26.0602 4.9942 26.0602H7.96028V21.8937C7.96028 21.8937 7.80038 16.9237 12.8509 16.9237H21.2732C21.2732 16.9237 26.005 17.0001 26.005 12.3505V4.66255C26.005 4.66255 26.7237 0.0098877 17.4241 0.0098877ZM12.7418 2.69844C12.9425 2.69826 13.1412 2.73765 13.3266 2.81435C13.5121 2.89106 13.6806 3.00358 13.8224 3.14547C13.9643 3.28736 14.0769 3.45584 14.1536 3.64126C14.2303 3.82669 14.2697 4.02542 14.2695 4.22608C14.2697 4.42675 14.2303 4.62548 14.1536 4.8109C14.0769 4.99633 13.9643 5.16481 13.8224 5.3067C13.6806 5.44859 13.5121 5.56111 13.3266 5.63781C13.1412 5.71452 12.9425 5.75391 12.7418 5.75373C12.5412 5.75391 12.3424 5.71452 12.157 5.63781C11.9716 5.56111 11.8031 5.44859 11.6612 5.3067C11.5193 5.16481 11.4068 4.99633 11.3301 4.8109C11.2534 4.62548 11.214 4.42675 11.2142 4.22608C11.214 4.02542 11.2534 3.82669 11.3301 3.64126C11.4068 3.45584 11.5193 3.28736 11.6612 3.14547C11.8031 3.00358 11.9716 2.89106 12.157 2.81435C12.3424 2.73765 12.5412 2.69826 12.7418 2.69844V2.69844Z" fill="url(#paint0_linear_25_158)"/>
<path d="M17.6768 34.88C26.5753 34.88 26.0197 31.0211 26.0197 31.0211L26.0098 27.0233H17.518V25.823H29.3825C29.3825 25.823 35.0766 26.4688 35.0766 17.49C35.0766 8.5113 30.1066 8.82974 30.1066 8.82974H27.1406V12.9961C27.1406 12.9961 27.3005 17.9661 22.2499 17.9661H13.8277C13.8277 17.9661 9.09579 17.8897 9.09579 22.5394V30.2275C9.09579 30.2275 8.37726 34.88 17.6767 34.88H17.6768ZM22.3591 32.1918C22.1585 32.1919 21.9597 32.1525 21.7743 32.0758C21.5889 31.9991 21.4204 31.8866 21.2785 31.7447C21.1366 31.6028 21.0241 31.4344 20.9474 31.2489C20.8707 31.0635 20.8313 30.8648 20.8315 30.6641C20.8313 30.4634 20.8707 30.2647 20.9474 30.0792C21.0241 29.8938 21.1366 29.7253 21.2785 29.5834C21.4204 29.4415 21.5889 29.329 21.7743 29.2523C21.9597 29.1755 22.1585 29.1361 22.3591 29.1363C22.5598 29.1361 22.7585 29.1755 22.944 29.2522C23.1294 29.3289 23.2979 29.4415 23.4398 29.5834C23.5816 29.7252 23.6942 29.8937 23.7709 30.0792C23.8476 30.2646 23.887 30.4633 23.8868 30.664C23.887 30.8646 23.8476 31.0634 23.7709 31.2488C23.6942 31.4342 23.5816 31.6027 23.4398 31.7446C23.2979 31.8865 23.1294 31.999 22.944 32.0757C22.7585 32.1524 22.5598 32.1918 22.3591 32.1916V32.1918Z" fill="url(#paint1_linear_25_158)"/>
</g>
<defs>
<linearGradient id="paint0_linear_25_158" x1="3.39273" y1="3.14625" x2="20.7637" y2="20.3439" gradientUnits="userSpaceOnUse">
<stop stop-color="#387EB8"/>
<stop offset="1" stop-color="#366994"/>
</linearGradient>
<linearGradient id="paint1_linear_25_158" x1="14.055" y1="14.1895" x2="32.7094" y2="31.8241" gradientUnits="userSpaceOnUse">
<stop stop-color="#FFE052"/>
<stop offset="1" stop-color="#FFC331"/>
</linearGradient>
<clipPath id="clip0_25_158">
<rect width="35.1458" height="35" fill="white"/>
</clipPath>
</defs>
</svg>
